Literata-M2.ufo
<glyph name="quotedbl" format="2">
	<unicode hex="0022"/>
	<advance width="381"/>
	<outline>
		<contour>
			<point x="108" y="549" type="line"/>
			<point x="121" y="549" type="line"/>
			<point x="160" y="713" type="line" smooth="yes"/>
			<point x="164" y="730"/>
			<point x="165" y="738"/>
			<point x="165" y="745" type="curve" smooth="yes"/>
			<point x="165" y="768"/>
			<point x="142" y="782"/>
			<point x="123" y="782" type="curve" smooth="yes"/>
			<point x="90" y="782"/>
			<point x="70" y="755"/>
			<point x="70" y="726" type="curve" smooth="yes"/>
			<point x="70" y="720"/>
			<point x="71" y="713"/>
			<point x="73" y="702" type="curve" smooth="yes"/>
		</contour>
		<contour>
			<point x="254" y="549" type="line"/>
			<point x="267" y="549" type="line"/>
			<point x="306" y="713" type="line" smooth="yes"/>
			<point x="310" y="730"/>
			<point x="311" y="738"/>
			<point x="311" y="745" type="curve" smooth="yes"/>
			<point x="311" y="768"/>
			<point x="288" y="782"/>
			<point x="269" y="782" type="curve" smooth="yes"/>
			<point x="236" y="782"/>
			<point x="216" y="755"/>
			<point x="216" y="726" type="curve" smooth="yes"/>
			<point x="216" y="720"/>
			<point x="217" y="713"/>
			<point x="219" y="702" type="curve" smooth="yes"/>
		</contour>
	</outline>
</glyph>
<glyph name="quotesingle" format="2">
	<unicode hex="0027"/>
	<advance width="235"/>
	<outline>
		<contour>
			<point x="108" y="549" type="line"/>
			<point x="121" y="549" type="line"/>
			<point x="160" y="713" type="line" smooth="yes"/>
			<point x="164" y="730"/>
			<point x="165" y="738"/>
			<point x="165" y="745" type="curve" smooth="yes"/>
			<point x="165" y="768"/>
			<point x="142" y="782"/>
			<point x="123" y="782" type="curve" smooth="yes"/>
			<point x="90" y="782"/>
			<point x="70" y="755"/>
			<point x="70" y="726" type="curve" smooth="yes"/>
			<point x="70" y="720"/>
			<point x="71" y="713"/>
			<point x="73" y="702" type="curve" smooth="yes"/>
		</contour>
	</outline>
</glyph>
<glyph name="asterisk" format="2">
	<unicode hex="002A"/>
	<advance width="449"/>
	<outline>
		<contour>
			<point x="218" y="407" type="curve" smooth="yes"/>
			<point x="252" y="407"/>
			<point x="258" y="438"/>
			<point x="253" y="465" type="curve" smooth="yes"/>
			<point x="230" y="583" type="line"/>
			<point x="327" y="493" type="line" smooth="yes"/>
			<point x="346" y="476"/>
			<point x="369" y="467"/>
			<point x="382" y="493" type="curve" smooth="yes"/>
			<point x="398" y="522"/>
			<point x="377" y="545"/>
			<point x="350" y="554" type="curve" smooth="yes"/>
			<point x="237" y="594" type="line"/>
			<point x="360" y="635" type="line" smooth="yes"/>
			<point x="386" y="644"/>
			<point x="404" y="659"/>
			<point x="389" y="684" type="curve" smooth="yes"/>
			<point x="373" y="713"/>
			<point x="344" y="706"/>
			<point x="322" y="687" type="curve" smooth="yes"/>
			<point x="230" y="604" type="line"/>
			<point x="258" y="734" type="line" smooth="yes"/>
			<point x="264" y="762"/>
			<point x="256" y="782"/>
			<point x="230" y="782" type="curve" smooth="yes"/>
			<point x="196" y="782"/>
			<point x="188" y="755"/>
			<point x="194" y="724" type="curve" smooth="yes"/>
			<point x="217" y="605" type="line"/>
			<point x="120" y="695" type="line" smooth="yes"/>
			<point x="103" y="710"/>
			<point x="77" y="717"/>
			<point x="64" y="692" type="curve" smooth="yes"/>
			<point x="48" y="663"/>
			<point x="65" y="644"/>
			<point x="97" y="633" type="curve" smooth="yes"/>
			<point x="209" y="595" type="line"/>
			<point x="87" y="553" type="line" smooth="yes"/>
			<point x="66" y="546"/>
			<point x="44" y="530"/>
			<point x="61" y="501" type="curve" smooth="yes"/>
			<point x="77" y="472"/>
			<point x="106" y="484"/>
			<point x="125" y="501" type="curve" smooth="yes"/>
			<point x="216" y="584" type="line"/>
			<point x="190" y="456" type="line" smooth="yes"/>
			<point x="185" y="430"/>
			<point x="189" y="407"/>
		</contour>
	</outline>
</glyph>
<glyph name="plus" format="2">
	<unicode hex="002B"/>
	<advance width="582"/>
	<outline>
		<contour>
			<point x="277" y="88" type="line"/>
			<point x="298" y="88" type="line"/>
			<point x="298" y="296" type="line"/>
			<point x="482" y="296" type="line"/>
			<point x="482" y="315" type="line"/>
			<point x="298" y="315" type="line"/>
			<point x="298" y="514" type="line"/>
			<point x="277" y="514" type="line"/>
			<point x="277" y="315" type="line"/>
			<point x="100" y="315" type="line"/>
			<point x="100" y="296" type="line"/>
			<point x="277" y="296" type="line"/>
		</contour>
	</outline>
</glyph>
<glyph name="zero" format="2">
	<unicode hex="0030"/>
	<advance width="602"/>
	<outline>
		<contour>
			<point x="299" y="-13" type="curve" smooth="yes"/>
			<point x="442" y="-13"/>
			<point x="557" y="117"/>
			<point x="557" y="378" type="curve" smooth="yes"/>
			<point x="557" y="632"/>
			<point x="442" y="744"/>
			<point x="308" y="744" type="curve" smooth="yes"/>
			<point x="177" y="744"/>
			<point x="45" y="647"/>
			<point x="45" y="354" type="curve" smooth="yes"/>
			<point x="45" y="138"/>
			<point x="134" y="-13"/>
		</contour>
		<contour>
			<point x="306" y="3" type="curve" smooth="yes"/>
			<point x="204" y="3"/>
			<point x="148" y="120"/>
			<point x="148" y="371" type="curve" smooth="yes"/>
			<point x="148" y="642"/>
			<point x="210" y="728"/>
			<point x="300" y="728" type="curve" smooth="yes"/>
			<point x="398" y="728"/>
			<point x="453" y="630"/>
			<point x="453" y="363" type="curve" smooth="yes"/>
			<point x="453" y="98"/>
			<point x="401" y="3"/>
		</contour>
	</outline>
</glyph>
<glyph name="one" format="2">
	<unicode hex="0031"/>
	<advance width="407"/>
	<outline>
		<contour>
			<point x="39" y="0" type="line"/>
			<point x="382" y="0" type="line"/>
			<point x="382" y="12" type="line"/>
			<point x="295" y="19" type="line" smooth="yes"/>
			<point x="266" y="21"/>
			<point x="261" y="34"/>
			<point x="261" y="65" type="curve"/>
			<point x="261" y="731" type="line"/>
			<point x="250" y="742" type="line"/>
			<point x="36" y="702" type="line"/>
			<point x="35" y="690" type="line"/>
			<point x="119" y="686" type="line" smooth="yes"/>
			<point x="162" y="684"/>
			<point x="162" y="665"/>
			<point x="162" y="626" type="curve" smooth="yes"/>
			<point x="162" y="68" type="line"/>
			<point x="162" y="35"/>
			<point x="154" y="21"/>
			<point x="129" y="19" type="curve" smooth="yes"/>
			<point x="39" y="12" type="line"/>
		</contour>
	</outline>
</glyph>
<glyph name="three" format="2">
	<unicode hex="0033"/>
	<advance width="542"/>
	<outline>
		<contour>
			<point x="246" y="-14" type="curve" smooth="yes"/>
			<point x="366" y="-14"/>
			<point x="487" y="52"/>
			<point x="487" y="195" type="curve" smooth="yes"/>
			<point x="487" y="307"/>
			<point x="419" y="361"/>
			<point x="314" y="378" type="curve"/>
			<point x="314" y="381" type="line"/>
			<point x="390" y="406"/>
			<point x="462" y="465"/>
			<point x="462" y="567" type="curve" smooth="yes"/>
			<point x="462" y="683"/>
			<point x="383" y="744"/>
			<point x="260" y="744" type="curve" smooth="yes"/>
			<point x="131" y="744"/>
			<point x="51" y="667"/>
			<point x="51" y="588" type="curve" smooth="yes"/>
			<point x="51" y="560"/>
			<point x="66" y="526"/>
			<point x="111" y="526" type="curve" smooth="yes"/>
			<point x="144" y="526"/>
			<point x="169" y="544"/>
			<point x="169" y="575" type="curve" smooth="yes"/>
			<point x="169" y="602"/>
			<point x="151" y="622"/>
			<point x="103" y="663" type="curve"/>
			<point x="131" y="700"/>
			<point x="181" y="723"/>
			<point x="237" y="723" type="curve" smooth="yes"/>
			<point x="320" y="723"/>
			<point x="364" y="667"/>
			<point x="364" y="566" type="curve" smooth="yes"/>
			<point x="364" y="439"/>
			<point x="314" y="390"/>
			<point x="189" y="379" type="curve"/>
			<point x="184" y="358" type="line"/>
			<point x="309" y="367"/>
			<point x="380" y="325"/>
			<point x="380" y="194" type="curve" smooth="yes"/>
			<point x="380" y="79"/>
			<point x="328" y="12"/>
			<point x="231" y="12" type="curve" smooth="yes"/>
			<point x="155" y="12"/>
			<point x="95" y="47"/>
			<point x="53" y="128" type="curve"/>
			<point x="42" y="121" type="line"/>
			<point x="75" y="41"/>
			<point x="141" y="-14"/>
		</contour>
	</outline>
</glyph>
<glyph name="nine" format="2">
	<unicode hex="0039"/>
	<advance width="547"/>
	<outline>
		<contour>
			<point x="243" y="-14" type="curve" smooth="yes"/>
			<point x="403" y="-14"/>
			<point x="502" y="123"/>
			<point x="502" y="419" type="curve" smooth="yes"/>
			<point x="502" y="614"/>
			<point x="444" y="744"/>
			<point x="271" y="744" type="curve" smooth="yes"/>
			<point x="136" y="744"/>
			<point x="35" y="660"/>
			<point x="35" y="485" type="curve" smooth="yes"/>
			<point x="35" y="347"/>
			<point x="123" y="270"/>
			<point x="240" y="270" type="curve" smooth="yes"/>
			<point x="314" y="270"/>
			<point x="366" y="305"/>
			<point x="399" y="360" type="curve"/>
			<point x="389" y="113"/>
			<point x="347" y="12"/>
			<point x="227" y="12" type="curve" smooth="yes"/>
			<point x="151" y="12"/>
			<point x="88" y="51"/>
			<point x="57" y="130" type="curve"/>
			<point x="45" y="123" type="line"/>
			<point x="82" y="22"/>
			<point x="154" y="-14"/>
		</contour>
		<contour>
			<point x="261" y="300" type="curve" smooth="yes"/>
			<point x="183" y="300"/>
			<point x="135" y="363"/>
			<point x="135" y="507" type="curve" smooth="yes"/>
			<point x="135" y="672"/>
			<point x="184" y="726"/>
			<point x="262" y="726" type="curve" smooth="yes"/>
			<point x="361" y="726"/>
			<point x="400" y="640"/>
			<point x="400" y="502" type="curve" smooth="yes"/>
			<point x="400" y="335"/>
			<point x="329" y="300"/>
		</contour>
	</outline>
</glyph>
<glyph name="at" format="2">
	<unicode hex="0040"/>
	<advance width="841"/>
	<outline>
		<contour>
			<point x="406" y="-183" type="curve" smooth="yes"/>
			<point x="507" y="-183"/>
			<point x="589" y="-153"/>
			<point x="649" y="-95" type="curve"/>
			<point x="638" y="-82" type="line"/>
			<point x="576" y="-133"/>
			<point x="516" y="-163"/>
			<point x="410" y="-163" type="curve" smooth="yes"/>
			<point x="229" y="-163"/>
			<point x="72" y="-62"/>
			<point x="72" y="186" type="curve" smooth="yes"/>
			<point x="72" y="408"/>
			<point x="225" y="548"/>
			<point x="436" y="548" type="curve" smooth="yes"/>
			<point x="640" y="548"/>
			<point x="769" y="451"/>
			<point x="769" y="238" type="curve" smooth="yes"/>
			<point x="769" y="95"/>
			<point x="691" y="21"/>
			<point x="605" y="21" type="curve" smooth="yes"/>
			<point x="579" y="21"/>
			<point x="580" y="35"/>
			<point x="581" y="78" type="curve" smooth="yes"/>
			<point x="591" y="388" type="line"/>
			<point x="577" y="394" type="line"/>
			<point x="549" y="361" type="line"/>
			<point x="505" y="384"/>
			<point x="471" y="395"/>
			<point x="421" y="395" type="curve" smooth="yes"/>
			<point x="320" y="395"/>
			<point x="227" y="323"/>
			<point x="227" y="147" type="curve" smooth="yes"/>
			<point x="227" y="56"/>
			<point x="262" y="-11"/>
			<point x="350" y="-11" type="curve" smooth="yes"/>
			<point x="420" y="-11"/>
			<point x="453" y="41"/>
			<point x="490" y="137" type="curve" smooth="yes"/>
			<point x="518" y="210" type="line"/>
			<point x="522" y="210" type="line"/>
			<point x="516" y="83" type="line" smooth="yes"/>
			<point x="513" y="24"/>
			<point x="520" y="-11"/>
			<point x="590" y="-11" type="curve" smooth="yes"/>
			<point x="696" y="-11"/>
			<point x="791" y="67"/>
			<point x="791" y="244" type="curve" smooth="yes"/>
			<point x="791" y="461"/>
			<point x="651" y="568"/>
			<point x="436" y="568" type="curve" smooth="yes"/>
			<point x="199" y="568"/>
			<point x="50" y="405"/>
			<point x="50" y="184" type="curve" smooth="yes"/>
			<point x="50" y="-75"/>
			<point x="221" y="-183"/>
		</contour>
		<contour>
			<point x="369" y="21" type="curve" smooth="yes"/>
			<point x="322" y="22"/>
			<point x="307" y="92"/>
			<point x="307" y="153" type="curve" smooth="yes"/>
			<point x="307" y="249"/>
			<point x="350" y="373"/>
			<point x="439" y="373" type="curve" smooth="yes"/>
			<point x="484" y="373"/>
			<point x="506" y="363"/>
			<point x="540" y="344" type="curve"/>
			<point x="515" y="267" type="line"/>
			<point x="461" y="108"/>
			<point x="434" y="22"/>
		</contour>
	</outline>
</glyph>
<glyph name="C" format="2">
	<unicode hex="0043"/>
	<advance width="693"/>
	<outline>
		<contour>
			<point x="397" y="-14" type="curve" smooth="yes"/>
			<point x="501" y="-14"/>
			<point x="594" y="42"/>
			<point x="648" y="133" type="curve"/>
			<point x="638" y="140" type="line"/>
			<point x="586" y="55"/>
			<point x="503" y="10"/>
			<point x="409" y="10" type="curve" smooth="yes"/>
			<point x="247" y="10"/>
			<point x="160" y="175"/>
			<point x="160" y="372" type="curve" smooth="yes"/>
			<point x="160" y="597"/>
			<point x="221" y="730"/>
			<point x="371" y="730" type="curve" smooth="yes"/>
			<point x="490" y="730"/>
			<point x="565" y="635"/>
			<point x="615" y="510" type="curve"/>
			<point x="630" y="513" type="line"/>
			<point x="591" y="746" type="line"/>
			<point x="577" y="746" type="line"/>
			<point x="567" y="659" type="line"/>
			<point x="525" y="702"/>
			<point x="460" y="744"/>
			<point x="371" y="744" type="curve" smooth="yes"/>
			<point x="181" y="744"/>
			<point x="53" y="578"/>
			<point x="53" y="371" type="curve" smooth="yes"/>
			<point x="53" y="131"/>
			<point x="176" y="-14"/>
		</contour>
	</outline>
	<anchor name="bottom" x="379" y="-30"/>
	<anchor name="top" x="365" y="730"/>
	<guideline x="380" y="685" angle="0"/>
</glyph>
<glyph name="G" format="2">
	<unicode hex="0047"/>
	<advance width="746"/>
	<outline>
		<contour>
			<point x="364" y="-14" type="curve" smooth="yes"/>
			<point x="457" y="-14"/>
			<point x="508" y="16"/>
			<point x="552" y="64" type="curve"/>
			<point x="626" y="-3" type="line"/>
			<point x="638" y="-3" type="line"/>
			<point x="638" y="268" type="line" smooth="yes"/>
			<point x="638" y="305"/>
			<point x="645" y="318"/>
			<point x="668" y="319" type="curve" smooth="yes"/>
			<point x="721" y="322" type="line"/>
			<point x="721" y="334" type="line"/>
			<point x="450" y="334" type="line"/>
			<point x="450" y="322" type="line"/>
			<point x="510" y="319" type="line" smooth="yes"/>
			<point x="537" y="318"/>
			<point x="543" y="305"/>
			<point x="543" y="272" type="curve" smooth="yes"/>
			<point x="543" y="73" type="line"/>
			<point x="508" y="29"/>
			<point x="448" y="9"/>
			<point x="381" y="9" type="curve" smooth="yes"/>
			<point x="249" y="9"/>
			<point x="160" y="165"/>
			<point x="160" y="362" type="curve" smooth="yes"/>
			<point x="160" y="587"/>
			<point x="244" y="730"/>
			<point x="381" y="730" type="curve" smooth="yes"/>
			<point x="489" y="730"/>
			<point x="574" y="635"/>
			<point x="624" y="510" type="curve"/>
			<point x="639" y="513" type="line"/>
			<point x="594" y="746" type="line"/>
			<point x="580" y="746" type="line"/>
			<point x="570" y="659" type="line"/>
			<point x="528" y="702"/>
			<point x="470" y="744"/>
			<point x="381" y="744" type="curve" smooth="yes"/>
			<point x="191" y="744"/>
			<point x="53" y="568"/>
			<point x="53" y="361" type="curve" smooth="yes"/>
			<point x="53" y="121"/>
			<point x="176" y="-14"/>
		</contour>
	</outline>
	<anchor name="bottom" x="368" y="-30"/>
	<anchor name="top" x="370" y="730"/>
</glyph>
<glyph name="I" format="2">
	<unicode hex="0049"/>
	<advance width="395"/>
	<outline>
		<contour>
			<point x="59" y="0" type="line"/>
			<point x="336" y="0" type="line"/>
			<point x="336" y="12" type="line"/>
			<point x="279" y="16" type="line" smooth="yes"/>
			<point x="253" y="18"/>
			<point x="247" y="29"/>
			<point x="247" y="63" type="curve" smooth="yes"/>
			<point x="247" y="664" type="line" smooth="yes"/>
			<point x="247" y="703"/>
			<point x="255" y="714"/>
			<point x="277" y="715" type="curve" smooth="yes"/>
			<point x="336" y="718" type="line"/>
			<point x="336" y="730" type="line"/>
			<point x="59" y="730" type="line"/>
			<point x="59" y="718" type="line"/>
			<point x="115" y="715" type="line" smooth="yes"/>
			<point x="142" y="714"/>
			<point x="148" y="701"/>
			<point x="148" y="668" type="curve" smooth="yes"/>
			<point x="148" y="67" type="line" smooth="yes"/>
			<point x="148" y="30"/>
			<point x="142" y="18"/>
			<point x="117" y="16" type="curve" smooth="yes"/>
			<point x="59" y="12" type="line"/>
		</contour>
	</outline>
	<anchor name="bottom" x="195" y="-30"/>
	<anchor name="top" x="197" y="730"/>
</glyph>
<glyph name="J" format="2">
	<unicode hex="004A"/>
	<advance width="557"/>
	<outline>
		<contour>
			<point x="219" y="-14" type="curve" smooth="yes"/>
			<point x="352" y="-14"/>
			<point x="429" y="73"/>
			<point x="429" y="224" type="curve" smooth="yes"/>
			<point x="429" y="664" type="line" smooth="yes"/>
			<point x="429" y="700"/>
			<point x="434" y="714"/>
			<point x="460" y="715" type="curve" smooth="yes"/>
			<point x="522" y="718" type="line"/>
			<point x="522" y="730" type="line"/>
			<point x="227" y="730" type="line"/>
			<point x="227" y="718" type="line"/>
			<point x="297" y="715" type="line" smooth="yes"/>
			<point x="324" y="714"/>
			<point x="330" y="701"/>
			<point x="330" y="668" type="curve" smooth="yes"/>
			<point x="330" y="201" type="line" smooth="yes"/>
			<point x="330" y="38"/>
			<point x="297" y="0"/>
			<point x="225" y="0" type="curve" smooth="yes"/>
			<point x="186" y="0"/>
			<point x="151" y="11"/>
			<point x="125" y="33" type="curve"/>
			<point x="147" y="65"/>
			<point x="178" y="113"/>
			<point x="178" y="141" type="curve" smooth="yes"/>
			<point x="178" y="173"/>
			<point x="155" y="190"/>
			<point x="115" y="190" type="curve" smooth="yes"/>
			<point x="72" y="190"/>
			<point x="40" y="155"/>
			<point x="40" y="108" type="curve" smooth="yes"/>
			<point x="40" y="37"/>
			<point x="114" y="-14"/>
		</contour>
	</outline>
	<anchor name="top" x="379" y="730"/>
</glyph>
<glyph name="L" format="2">
	<unicode hex="004C"/>
	<advance width="589"/>
	<outline>
		<contour>
			<point x="59" y="0" type="line"/>
			<point x="529" y="0" type="line"/>
			<point x="554" y="195" type="line"/>
			<point x="541" y="195" type="line"/>
			<point x="501" y="44"/>
			<point x="466" y="16"/>
			<point x="370" y="16" type="curve" smooth="yes"/>
			<point x="247" y="16" type="line"/>
			<point x="247" y="668" type="line" smooth="yes"/>
			<point x="247" y="706"/>
			<point x="256" y="714"/>
			<point x="279" y="715" type="curve" smooth="yes"/>
			<point x="345" y="718" type="line"/>
			<point x="345" y="730" type="line"/>
			<point x="59" y="730" type="line"/>
			<point x="59" y="718" type="line"/>
			<point x="115" y="715" type="line" smooth="yes"/>
			<point x="142" y="714"/>
			<point x="148" y="701"/>
			<point x="148" y="668" type="curve" smooth="yes"/>
			<point x="148" y="67" type="line" smooth="yes"/>
			<point x="148" y="30"/>
			<point x="142" y="18"/>
			<point x="117" y="16" type="curve" smooth="yes"/>
			<point x="59" y="12" type="line"/>
		</contour>
	</outline>
	<anchor name="bottom" x="320" y="-30"/>
	<anchor name="top" x="198" y="730"/>
</glyph>
<glyph name="M" format="2">
	<unicode hex="004D"/>
	<advance width="985"/>
	<outline>
		<contour>
			<point x="52" y="0" type="line"/>
			<point x="262" y="0" type="line"/>
			<point x="262" y="11" type="line"/>
			<point x="201" y="20" type="line" smooth="yes"/>
			<point x="173" y="24"/>
			<point x="167" y="34"/>
			<point x="169" y="67" type="curve" smooth="yes"/>
			<point x="205" y="688" type="line"/>
			<point x="206" y="688" type="line"/>
			<point x="432" y="113" type="line"/>
			<point x="493" y="113" type="line"/>
			<point x="707" y="688" type="line"/>
			<point x="708" y="688" type="line"/>
			<point x="743" y="72" type="line" smooth="yes"/>
			<point x="745" y="35"/>
			<point x="737" y="25"/>
			<point x="712" y="21" type="curve" smooth="yes"/>
			<point x="650" y="12" type="line"/>
			<point x="650" y="0" type="line"/>
			<point x="933" y="0" type="line"/>
			<point x="933" y="11" type="line"/>
			<point x="874" y="20" type="line" smooth="yes"/>
			<point x="848" y="24"/>
			<point x="845" y="33"/>
			<point x="842" y="67" type="curve" smooth="yes"/>
			<point x="806" y="658" type="line" smooth="yes"/>
			<point x="803" y="702"/>
			<point x="818" y="706"/>
			<point x="836" y="709" type="curve" smooth="yes"/>
			<point x="899" y="718" type="line"/>
			<point x="899" y="730" type="line"/>
			<point x="698" y="730" type="line"/>
			<point x="498" y="193" type="line"/>
			<point x="497" y="193" type="line"/>
			<point x="292" y="730" type="line"/>
			<point x="83" y="730" type="line"/>
			<point x="83" y="718" type="line"/>
			<point x="149" y="709" type="line" smooth="yes"/>
			<point x="175" y="705"/>
			<point x="183" y="696"/>
			<point x="181" y="662" type="curve" smooth="yes"/>
			<point x="145" y="72" type="line" smooth="yes"/>
			<point x="143" y="36"/>
			<point x="138" y="25"/>
			<point x="114" y="21" type="curve" smooth="yes"/>
			<point x="52" y="12" type="line"/>
		</contour>
	</outline>
	<anchor name="bottom" x="458" y="-30"/>
</glyph>
<glyph name="P" format="2">
	<unicode hex="0050"/>
	<advance width="606"/>
	<outline>
		<contour>
			<point x="59" y="0" type="line"/>
			<point x="354" y="0" type="line"/>
			<point x="354" y="12" type="line"/>
			<point x="284" y="15" type="line" smooth="yes"/>
			<point x="255" y="16"/>
			<point x="247" y="30"/>
			<point x="247" y="65" type="curve" smooth="yes"/>
			<point x="247" y="322" type="line"/>
			<point x="257" y="319"/>
			<point x="290" y="317"/>
			<point x="326" y="317" type="curve" smooth="yes"/>
			<point x="474" y="317"/>
			<point x="574" y="388"/>
			<point x="574" y="532" type="curve" smooth="yes"/>
			<point x="574" y="664"/>
			<point x="485" y="730"/>
			<point x="305" y="730" type="curve" smooth="yes"/>
			<point x="59" y="730" type="line"/>
			<point x="59" y="718" type="line"/>
			<point x="115" y="715" type="line" smooth="yes"/>
			<point x="142" y="714"/>
			<point x="148" y="701"/>
			<point x="148" y="668" type="curve" smooth="yes"/>
			<point x="148" y="67" type="line" smooth="yes"/>
			<point x="148" y="30"/>
			<point x="142" y="18"/>
			<point x="117" y="16" type="curve" smooth="yes"/>
			<point x="59" y="12" type="line"/>
		</contour>
		<contour>
			<point x="305" y="333" type="curve" smooth="yes"/>
			<point x="281" y="333"/>
			<point x="257" y="335"/>
			<point x="247" y="338" type="curve"/>
			<point x="247" y="714" type="line"/>
			<point x="298" y="714" type="line" smooth="yes"/>
			<point x="415" y="714"/>
			<point x="467" y="666"/>
			<point x="467" y="529" type="curve" smooth="yes"/>
			<point x="467" y="398"/>
			<point x="412" y="333"/>
		</contour>
	</outline>
</glyph>
<glyph name="R" format="2">
	<unicode hex="0052"/>
	<advance width="680"/>
	<outline>
		<contour>
			<point x="599" y="-14" type="curve" smooth="yes"/>
			<point x="639" y="-14"/>
			<point x="672" y="-1"/>
			<point x="700" y="26" type="curve"/>
			<point x="694" y="33" type="line"/>
			<point x="681" y="24"/>
			<point x="665" y="21"/>
			<point x="645" y="21" type="curve" smooth="yes"/>
			<point x="591" y="21"/>
			<point x="570" y="85"/>
			<point x="542" y="153" type="curve" smooth="yes"/>
			<point x="504" y="244" type="line" smooth="yes"/>
			<point x="482" y="296"/>
			<point x="436" y="343"/>
			<point x="360" y="358" type="curve"/>
			<point x="360" y="361" type="line"/>
			<point x="504" y="379"/>
			<point x="579" y="456"/>
			<point x="579" y="552" type="curve" smooth="yes"/>
			<point x="579" y="674"/>
			<point x="486" y="730"/>
			<point x="310" y="730" type="curve" smooth="yes"/>
			<point x="59" y="730" type="line"/>
			<point x="59" y="718" type="line"/>
			<point x="115" y="715" type="line" smooth="yes"/>
			<point x="142" y="714"/>
			<point x="148" y="701"/>
			<point x="148" y="668" type="curve" smooth="yes"/>
			<point x="148" y="67" type="line" smooth="yes"/>
			<point x="148" y="30"/>
			<point x="142" y="18"/>
			<point x="117" y="16" type="curve" smooth="yes"/>
			<point x="59" y="12" type="line"/>
			<point x="59" y="0" type="line"/>
			<point x="354" y="0" type="line"/>
			<point x="354" y="12" type="line"/>
			<point x="284" y="15" type="line" smooth="yes"/>
			<point x="255" y="16"/>
			<point x="247" y="30"/>
			<point x="247" y="65" type="curve" smooth="yes"/>
			<point x="247" y="355" type="line"/>
			<point x="260" y="356"/>
			<point x="274" y="356"/>
			<point x="292" y="356" type="curve" smooth="yes"/>
			<point x="350" y="356"/>
			<point x="361" y="327"/>
			<point x="402" y="229" type="curve" smooth="yes"/>
			<point x="450" y="114" type="line" smooth="yes"/>
			<point x="491" y="16"/>
			<point x="528" y="-14"/>
		</contour>
		<contour>
			<point x="303" y="374" type="curve" smooth="yes"/>
			<point x="289" y="374"/>
			<point x="272" y="374"/>
			<point x="247" y="375" type="curve"/>
			<point x="247" y="714" type="line"/>
			<point x="303" y="714" type="line" smooth="yes"/>
			<point x="420" y="714"/>
			<point x="472" y="661"/>
			<point x="472" y="540" type="curve" smooth="yes"/>
			<point x="472" y="437"/>
			<point x="410" y="374"/>
		</contour>
	</outline>
	<anchor name="bottom" x="365" y="-30"/>
	<anchor name="top" x="321" y="730"/>
</glyph>
<glyph name="S" format="2">
	<unicode hex="0053"/>
	<advance width="592"/>
	<outline>
		<contour>
			<point x="296" y="-14" type="curve" smooth="yes"/>
			<point x="426" y="-14"/>
			<point x="534" y="85"/>
			<point x="534" y="210" type="curve" smooth="yes"/>
			<point x="534" y="313"/>
			<point x="470" y="377"/>
			<point x="323" y="428" type="curve" smooth="yes"/>
			<point x="207" y="468"/>
			<point x="159" y="506"/>
			<point x="159" y="592" type="curve" smooth="yes"/>
			<point x="159" y="668"/>
			<point x="207" y="729"/>
			<point x="298" y="729" type="curve" smooth="yes"/>
			<point x="392" y="729"/>
			<point x="461" y="659"/>
			<point x="492" y="515" type="curve"/>
			<point x="507" y="517" type="line"/>
			<point x="483" y="744" type="line"/>
			<point x="469" y="744" type="line"/>
			<point x="456" y="682" type="line"/>
			<point x="418" y="715"/>
			<point x="359" y="744"/>
			<point x="295" y="744" type="curve" smooth="yes"/>
			<point x="167" y="744"/>
			<point x="71" y="666"/>
			<point x="71" y="551" type="curve" smooth="yes"/>
			<point x="71" y="450"/>
			<point x="125" y="383"/>
			<point x="276" y="335" type="curve" smooth="yes"/>
			<point x="392" y="298"/>
			<point x="446" y="248"/>
			<point x="446" y="145" type="curve" smooth="yes"/>
			<point x="446" y="62"/>
			<point x="391" y="2"/>
			<point x="293" y="2" type="curve" smooth="yes"/>
			<point x="201" y="2"/>
			<point x="103" y="74"/>
			<point x="70" y="223" type="curve"/>
			<point x="56" y="220" type="line"/>
			<point x="76" y="-6" type="line"/>
			<point x="90" y="-6" type="line"/>
			<point x="103" y="53" type="line"/>
			<point x="156" y="16"/>
			<point x="218" y="-14"/>
		</contour>
	</outline>
	<anchor name="bottom" x="295" y="-30"/>
	<anchor name="top" x="291" y="729"/>
</glyph>
<glyph name="W" format="2">
	<unicode hex="0057"/>
	<advance width="982"/>
	<outline>
		<contour>
			<point x="254" y="0" type="line"/>
			<point x="330" y="0" type="line"/>
			<point x="490" y="631" type="line"/>
			<point x="493" y="631" type="line"/>
			<point x="667" y="0" type="line"/>
			<point x="743" y="0" type="line"/>
			<point x="898" y="653" type="line" smooth="yes"/>
			<point x="907" y="693"/>
			<point x="921" y="708"/>
			<point x="945" y="711" type="curve" smooth="yes"/>
			<point x="1002" y="718" type="line"/>
			<point x="1002" y="730" type="line"/>
			<point x="793" y="730" type="line"/>
			<point x="793" y="719" type="line"/>
			<point x="850" y="712" type="line" smooth="yes"/>
			<point x="886" y="708"/>
			<point x="882" y="680"/>
			<point x="876" y="652" type="curve" smooth="yes"/>
			<point x="743" y="91" type="line"/>
			<point x="738" y="91" type="line"/>
			<point x="559" y="730" type="line"/>
			<point x="490" y="730" type="line"/>
			<point x="329" y="86" type="line"/>
			<point x="324" y="86" type="line"/>
			<point x="190" y="662" type="line" smooth="yes"/>
			<point x="180" y="706"/>
			<point x="192" y="707"/>
			<point x="213" y="711" type="curve" smooth="yes"/>
			<point x="264" y="719" type="line"/>
			<point x="264" y="730" type="line"/>
			<point x="0" y="730" type="line"/>
			<point x="0" y="716" type="line"/>
			<point x="40" y="709" type="line" smooth="yes"/>
			<point x="69" y="704"/>
			<point x="76" y="694"/>
			<point x="85" y="658" type="curve" smooth="yes"/>
		</contour>
	</outline>
	<anchor name="top" x="523" y="730"/>
</glyph>
<glyph name="Z" format="2">
	<unicode hex="005A"/>
	<advance width="624"/>
	<outline>
		<contour>
			<point x="45" y="0" type="line"/>
			<point x="555" y="0" type="line"/>
			<point x="574" y="199" type="line"/>
			<point x="559" y="199" type="line"/>
			<point x="519" y="44"/>
			<point x="484" y="16"/>
			<point x="402" y="16" type="curve" smooth="yes"/>
			<point x="154" y="16" type="line"/>
			<point x="573" y="714" type="line"/>
			<point x="573" y="730" type="line"/>
			<point x="88" y="730" type="line"/>
			<point x="76" y="511" type="line"/>
			<point x="91" y="513" type="line"/>
			<point x="141" y="681"/>
			<point x="164" y="714"/>
			<point x="221" y="714" type="curve" smooth="yes"/>
			<point x="469" y="714" type="line"/>
			<point x="45" y="15" type="line"/>
		</contour>
	</outline>
	<anchor name="bottom" x="308" y="-30"/>
	<anchor name="top" x="327" y="730"/>
</glyph>
<glyph name="bracketleft" format="2">
	<unicode hex="005B"/>
	<advance width="323"/>
	<outline>
		<contour>
			<point x="105" y="-212" type="line"/>
			<point x="279" y="-212" type="line"/>
			<point x="280" y="-200" type="line"/>
			<point x="206" y="-194" type="line" smooth="yes"/>
			<point x="182" y="-192"/>
			<point x="178" y="-185"/>
			<point x="178" y="-148" type="curve" smooth="yes"/>
			<point x="178" y="748" type="line" smooth="yes"/>
			<point x="178" y="785"/>
			<point x="182" y="792"/>
			<point x="206" y="794" type="curve" smooth="yes"/>
			<point x="280" y="800" type="line"/>
			<point x="279" y="812" type="line"/>
			<point x="105" y="812" type="line"/>
		</contour>
	</outline>
</glyph>
<glyph name="bracketright" format="2">
	<unicode hex="005D"/>
	<advance width="323"/>
	<outline>
		<contour>
			<point x="44" y="-212" type="line"/>
			<point x="218" y="-212" type="line"/>
			<point x="218" y="812" type="line"/>
			<point x="44" y="812" type="line"/>
			<point x="43" y="800" type="line"/>
			<point x="117" y="794" type="line" smooth="yes"/>
			<point x="141" y="792"/>
			<point x="145" y="785"/>
			<point x="145" y="748" type="curve" smooth="yes"/>
			<point x="145" y="-148" type="line" smooth="yes"/>
			<point x="145" y="-185"/>
			<point x="141" y="-192"/>
			<point x="117" y="-194" type="curve" smooth="yes"/>
			<point x="43" y="-200" type="line"/>
		</contour>
	</outline>
</glyph>
<glyph name="grave" format="2">
	<unicode hex="0060"/>
	<advance width="500"/>
	<outline>
		<contour>
			<point x="290" y="585" type="line"/>
			<point x="298" y="593" type="line"/>
			<point x="210" y="746" type="line" smooth="yes"/>
			<point x="198" y="767"/>
			<point x="185" y="775"/>
			<point x="171" y="775" type="curve" smooth="yes"/>
			<point x="144" y="775"/>
			<point x="131" y="753"/>
			<point x="131" y="731" type="curve" smooth="yes"/>
			<point x="131" y="711"/>
			<point x="148" y="694"/>
			<point x="166" y="680" type="curve" smooth="yes"/>
		</contour>
	</outline>
	<anchor name="_top" x="250" y="550"/>
</glyph>
<glyph name="a" format="2">
	<unicode hex="0061"/>
	<advance width="529"/>
	<outline>
		<contour>
			<point x="194" y="-14" type="curve" smooth="yes"/>
			<point x="261" y="-14"/>
			<point x="307" y="10"/>
			<point x="341" y="84" type="curve"/>
			<point x="346" y="18"/>
			<point x="374" y="-14"/>
			<point x="434" y="-14" type="curve" smooth="yes"/>
			<point x="466" y="-14"/>
			<point x="498" y="-3"/>
			<point x="529" y="33" type="curve"/>
			<point x="524" y="40" type="line"/>
			<point x="507" y="31"/>
			<point x="489" y="26"/>
			<point x="473" y="26" type="curve" smooth="yes"/>
			<point x="447" y="26"/>
			<point x="429" y="40"/>
			<point x="429" y="77" type="curve" smooth="yes"/>
			<point x="429" y="347" type="line" smooth="yes"/>
			<point x="429" y="469"/>
			<point x="370" y="527"/>
			<point x="244" y="527" type="curve" smooth="yes"/>
			<point x="145" y="527"/>
			<point x="57" y="465"/>
			<point x="57" y="401" type="curve" smooth="yes"/>
			<point x="57" y="367"/>
			<point x="76" y="348"/>
			<point x="112" y="348" type="curve" smooth="yes"/>
			<point x="147" y="348"/>
			<point x="167" y="369"/>
			<point x="167" y="392" type="curve" smooth="yes"/>
			<point x="167" y="409"/>
			<point x="155" y="434"/>
			<point x="120" y="474" type="curve"/>
			<point x="143" y="496"/>
			<point x="190" y="512"/>
			<point x="236" y="512" type="curve" smooth="yes"/>
			<point x="306" y="512"/>
			<point x="336" y="480"/>
			<point x="336" y="398" type="curve" smooth="yes"/>
			<point x="336" y="276" type="line"/>
			<point x="123" y="267"/>
			<point x="55" y="221"/>
			<point x="55" y="121" type="curve" smooth="yes"/>
			<point x="55" y="36"/>
			<point x="106" y="-14"/>
		</contour>
		<contour>
			<point x="236" y="25" type="curve" smooth="yes"/>
			<point x="181" y="25"/>
			<point x="152" y="64"/>
			<point x="152" y="132" type="curve" smooth="yes"/>
			<point x="152" y="230"/>
			<point x="202" y="259"/>
			<point x="336" y="262" type="curve"/>
			<point x="336" y="138" type="line" smooth="yes"/>
			<point x="336" y="71"/>
			<point x="295" y="25"/>
		</contour>
	</outline>
	<anchor name="bottom" x="261" y="-30"/>
	<anchor name="top" x="243" y="550"/>
</glyph>
<glyph name="b" format="2">
	<unicode hex="0062"/>
	<advance width="615"/>
	<outline>
		<contour>
			<point x="114" y="-14" type="line"/>
			<point x="178" y="28" type="line"/>
			<point x="214" y="3"/>
			<point x="269" y="-14"/>
			<point x="320" y="-14" type="curve" smooth="yes"/>
			<point x="475" y="-14"/>
			<point x="563" y="96"/>
			<point x="563" y="278" type="curve" smooth="yes"/>
			<point x="563" y="445"/>
			<point x="484" y="527"/>
			<point x="358" y="527" type="curve" smooth="yes"/>
			<point x="293" y="527"/>
			<point x="234" y="506"/>
			<point x="198" y="434" type="curve"/>
			<point x="197" y="434" type="line"/>
			<point x="197" y="761" type="line"/>
			<point x="190" y="766" type="line"/>
			<point x="21" y="761" type="line"/>
			<point x="20" y="751" type="line"/>
			<point x="67" y="747" type="line" smooth="yes"/>
			<point x="104" y="744"/>
			<point x="104" y="728"/>
			<point x="104" y="685" type="curve" smooth="yes"/>
			<point x="104" y="-9" type="line"/>
		</contour>
		<contour>
			<point x="318" y="3" type="curve" smooth="yes"/>
			<point x="267" y="3"/>
			<point x="226" y="25"/>
			<point x="197" y="52" type="curve"/>
			<point x="197" y="351" type="line" smooth="yes"/>
			<point x="197" y="443"/>
			<point x="250" y="492"/>
			<point x="325" y="492" type="curve" smooth="yes"/>
			<point x="419" y="492"/>
			<point x="464" y="427"/>
			<point x="464" y="257" type="curve" smooth="yes"/>
			<point x="464" y="60"/>
			<point x="406" y="3"/>
		</contour>
	</outline>
</glyph>
<glyph name="c" format="2">
	<unicode hex="0063"/>
	<advance width="494"/>
	<outline>
		<contour>
			<point x="268" y="-14" type="curve" smooth="yes"/>
			<point x="354" y="-14"/>
			<point x="413" y="27"/>
			<point x="459" y="107" type="curve"/>
			<point x="450" y="114" type="line"/>
			<point x="416" y="80"/>
			<point x="370" y="54"/>
			<point x="302" y="54" type="curve" smooth="yes"/>
			<point x="207" y="54"/>
			<point x="147" y="128"/>
			<point x="147" y="278" type="curve" smooth="yes"/>
			<point x="147" y="443"/>
			<point x="208" y="510"/>
			<point x="290" y="510" type="curve" smooth="yes"/>
			<point x="328" y="510"/>
			<point x="356" y="501"/>
			<point x="382" y="481" type="curve"/>
			<point x="355" y="435"/>
			<point x="340" y="413"/>
			<point x="340" y="393" type="curve" smooth="yes"/>
			<point x="340" y="363"/>
			<point x="359" y="344"/>
			<point x="396" y="344" type="curve" smooth="yes"/>
			<point x="436" y="344"/>
			<point x="454" y="369"/>
			<point x="454" y="409" type="curve" smooth="yes"/>
			<point x="454" y="471"/>
			<point x="388" y="527"/>
			<point x="289" y="527" type="curve" smooth="yes"/>
			<point x="148" y="527"/>
			<point x="48" y="423"/>
			<point x="48" y="247" type="curve" smooth="yes"/>
			<point x="48" y="77"/>
			<point x="140" y="-14"/>
		</contour>
	</outline>
	<anchor name="bottom" x="275" y="-30"/>
	<anchor name="top" x="277" y="550"/>
</glyph>
<glyph name="f" format="2">
	<unicode hex="0066"/>
	<advance width="362"/>
	<outline>
		<contour>
			<point x="35" y="0" type="line"/>
			<point x="317" y="0" type="line"/>
			<point x="317" y="12" type="line"/>
			<point x="239" y="19" type="line" smooth="yes"/>
			<point x="212" y="21"/>
			<point x="207" y="31"/>
			<point x="207" y="64" type="curve" smooth="yes"/>
			<point x="207" y="497" type="line"/>
			<point x="353" y="497" type="line"/>
			<point x="353" y="513" type="line"/>
			<point x="207" y="513" type="line"/>
			<point x="207" y="619" type="line" smooth="yes"/>
			<point x="207" y="727"/>
			<point x="233" y="767"/>
			<point x="294" y="767" type="curve" smooth="yes"/>
			<point x="322" y="767"/>
			<point x="345" y="760"/>
			<point x="362" y="749" type="curve"/>
			<point x="335" y="708"/>
			<point x="328" y="693"/>
			<point x="328" y="675" type="curve" smooth="yes"/>
			<point x="328" y="654"/>
			<point x="344" y="639"/>
			<point x="375" y="639" type="curve" smooth="yes"/>
			<point x="411" y="639"/>
			<point x="428" y="664"/>
			<point x="428" y="692" type="curve" smooth="yes"/>
			<point x="428" y="744"/>
			<point x="380" y="782"/>
			<point x="295" y="782" type="curve" smooth="yes"/>
			<point x="182" y="782"/>
			<point x="114" y="695"/>
			<point x="114" y="545" type="curve" smooth="yes"/>
			<point x="114" y="513" type="line"/>
			<point x="41" y="507" type="line"/>
			<point x="41" y="497" type="line"/>
			<point x="114" y="497" type="line"/>
			<point x="114" y="68" type="line" smooth="yes"/>
			<point x="114" y="29"/>
			<point x="110" y="20"/>
			<point x="83" y="17" type="curve" smooth="yes"/>
			<point x="35" y="12" type="line"/>
		</contour>
	</outline>
</glyph>
<glyph name="i" format="2">
	<unicode hex="0069"/>
	<advance width="324"/>
	<outline>
		<contour>
			<point x="40" y="0" type="line"/>
			<point x="295" y="0" type="line"/>
			<point x="295" y="11" type="line"/>
			<point x="237" y="19" type="line" smooth="yes"/>
			<point x="217" y="22"/>
			<point x="212" y="31"/>
			<point x="212" y="62" type="curve" smooth="yes"/>
			<point x="212" y="513" type="line"/>
			<point x="205" y="518" type="line"/>
			<point x="36" y="509" type="line"/>
			<point x="35" y="499" type="line"/>
			<point x="85" y="495" type="line" smooth="yes"/>
			<point x="114" y="493"/>
			<point x="119" y="480"/>
			<point x="119" y="433" type="curve" smooth="yes"/>
			<point x="119" y="66" type="line" smooth="yes"/>
			<point x="119" y="32"/>
			<point x="115" y="20"/>
			<point x="93" y="18" type="curve" smooth="yes"/>
			<point x="40" y="12" type="line"/>
		</contour>
		<contour>
			<point x="152" y="622" type="curve" smooth="yes"/>
			<point x="190" y="622"/>
			<point x="218" y="650"/>
			<point x="218" y="687" type="curve" smooth="yes"/>
			<point x="218" y="724"/>
			<point x="190" y="751"/>
			<point x="152" y="751" type="curve" smooth="yes"/>
			<point x="115" y="751"/>
			<point x="87" y="723"/>
			<point x="87" y="686" type="curve" smooth="yes"/>
			<point x="87" y="649"/>
			<point x="115" y="622"/>
		</contour>
	</outline>
	<anchor name="bottom" x="165" y="-30"/>
</glyph>
<glyph name="k" format="2">
	<unicode hex="006B"/>
	<advance width="574"/>
	<outline>
		<contour>
			<point x="484" y="-9" type="curve" smooth="yes"/>
			<point x="521" y="-9"/>
			<point x="566" y="13"/>
			<point x="593" y="38" type="curve"/>
			<point x="588" y="46" type="line"/>
			<point x="574" y="39"/>
			<point x="555" y="35"/>
			<point x="541" y="35" type="curve" smooth="yes"/>
			<point x="518" y="35"/>
			<point x="498" y="47"/>
			<point x="466" y="91" type="curve" smooth="yes"/>
			<point x="295" y="325" type="line"/>
			<point x="437" y="450" type="line" smooth="yes"/>
			<point x="470" y="479"/>
			<point x="483" y="483"/>
			<point x="501" y="489" type="curve" smooth="yes"/>
			<point x="536" y="500" type="line"/>
			<point x="536" y="513" type="line"/>
			<point x="370" y="513" type="line"/>
			<point x="368" y="500" type="line"/>
			<point x="398" y="492" type="line" smooth="yes"/>
			<point x="425" y="485"/>
			<point x="423" y="468"/>
			<point x="405" y="452" type="curve" smooth="yes"/>
			<point x="221" y="284" type="line"/>
			<point x="221" y="278" type="line"/>
			<point x="373" y="65" type="line" smooth="yes"/>
			<point x="412" y="11"/>
			<point x="438" y="-9"/>
		</contour>
		<contour>
			<point x="43" y="0" type="line"/>
			<point x="271" y="0" type="line"/>
			<point x="271" y="13" type="line"/>
			<point x="237" y="17" type="line" smooth="yes"/>
			<point x="212" y="20"/>
			<point x="210" y="39"/>
			<point x="210" y="64" type="curve" smooth="yes"/>
			<point x="210" y="761" type="line"/>
			<point x="203" y="766" type="line"/>
			<point x="35" y="761" type="line"/>
			<point x="33" y="751" type="line"/>
			<point x="82" y="747" type="line" smooth="yes"/>
			<point x="117" y="744"/>
			<point x="117" y="729"/>
			<point x="117" y="688" type="curve" smooth="yes"/>
			<point x="117" y="68" type="line" smooth="yes"/>
			<point x="117" y="31"/>
			<point x="113" y="20"/>
			<point x="86" y="17" type="curve" smooth="yes"/>
			<point x="43" y="12" type="line"/>
		</contour>
	</outline>
	<anchor name="bottom" x="306" y="-30"/>
	<anchor name="top" x="137" y="782"/>
</glyph>
<glyph name="m" format="2">
	<unicode hex="006D"/>
	<advance width="933"/>
	<outline>
		<contour>
			<point x="43" y="0" type="line"/>
			<point x="280" y="0" type="line"/>
			<point x="280" y="11" type="line"/>
			<point x="235" y="19" type="line" smooth="yes"/>
			<point x="215" y="23"/>
			<point x="210" y="31"/>
			<point x="210" y="62" type="curve" smooth="yes"/>
			<point x="210" y="350" type="line" smooth="yes"/>
			<point x="210" y="433"/>
			<point x="263" y="489"/>
			<point x="336" y="489" type="curve" smooth="yes"/>
			<point x="403" y="489"/>
			<point x="427" y="456"/>
			<point x="427" y="361" type="curve" smooth="yes"/>
			<point x="427" y="58" type="line" smooth="yes"/>
			<point x="427" y="26"/>
			<point x="420" y="19"/>
			<point x="397" y="16" type="curve" smooth="yes"/>
			<point x="361" y="11" type="line"/>
			<point x="361" y="0" type="line"/>
			<point x="590" y="0" type="line"/>
			<point x="590" y="11" type="line"/>
			<point x="544" y="19" type="line" smooth="yes"/>
			<point x="520" y="23"/>
			<point x="520" y="38"/>
			<point x="520" y="62" type="curve" smooth="yes"/>
			<point x="520" y="356" type="line" smooth="yes"/>
			<point x="520" y="439"/>
			<point x="573" y="489"/>
			<point x="645" y="489" type="curve" smooth="yes"/>
			<point x="712" y="489"/>
			<point x="737" y="455"/>
			<point x="737" y="361" type="curve" smooth="yes"/>
			<point x="737" y="58" type="line" smooth="yes"/>
			<point x="737" y="26"/>
			<point x="730" y="19"/>
			<point x="707" y="16" type="curve" smooth="yes"/>
			<point x="671" y="11" type="line"/>
			<point x="671" y="0" type="line"/>
			<point x="908" y="0" type="line"/>
			<point x="908" y="12" type="line"/>
			<point x="861" y="17" type="line" smooth="yes"/>
			<point x="835" y="20"/>
			<point x="830" y="28"/>
			<point x="830" y="58" type="curve" smooth="yes"/>
			<point x="830" y="356" type="line" smooth="yes"/>
			<point x="830" y="466"/>
			<point x="774" y="527"/>
			<point x="676" y="527" type="curve" smooth="yes"/>
			<point x="608" y="527"/>
			<point x="542" y="485"/>
			<point x="515" y="415" type="curve"/>
			<point x="495" y="493"/>
			<point x="442" y="527"/>
			<point x="367" y="527" type="curve" smooth="yes"/>
			<point x="302" y="527"/>
			<point x="238" y="485"/>
			<point x="208" y="415" type="curve"/>
			<point x="207" y="415" type="line"/>
			<point x="208" y="513" type="line"/>
			<point x="203" y="518" type="line"/>
			<point x="34" y="509" type="line"/>
			<point x="33" y="499" type="line"/>
			<point x="83" y="495" type="line" smooth="yes"/>
			<point x="112" y="493"/>
			<point x="117" y="480"/>
			<point x="117" y="433" type="curve" smooth="yes"/>
			<point x="117" y="66" type="line" smooth="yes"/>
			<point x="117" y="31"/>
			<point x="112" y="21"/>
			<point x="91" y="18" type="curve" smooth="yes"/>
			<point x="43" y="12" type="line"/>
		</contour>
	</outline>
	<anchor name="bottom" x="470" y="-30"/>
	<guideline x="336" y="415" angle="0"/>
</glyph>
<glyph name="n" format="2">
	<unicode hex="006E"/>
	<advance width="634"/>
	<outline>
		<contour>
			<point x="43" y="0" type="line"/>
			<point x="288" y="0" type="line"/>
			<point x="288" y="11" type="line"/>
			<point x="235" y="19" type="line" smooth="yes"/>
			<point x="215" y="22"/>
			<point x="210" y="32"/>
			<point x="210" y="62" type="curve" smooth="yes"/>
			<point x="210" y="351" type="line" smooth="yes"/>
			<point x="210" y="435"/>
			<point x="266" y="489"/>
			<point x="341" y="489" type="curve" smooth="yes"/>
			<point x="417" y="489"/>
			<point x="438" y="454"/>
			<point x="438" y="360" type="curve" smooth="yes"/>
			<point x="438" y="58" type="line" smooth="yes"/>
			<point x="438" y="28"/>
			<point x="433" y="19"/>
			<point x="408" y="16" type="curve" smooth="yes"/>
			<point x="364" y="11" type="line"/>
			<point x="364" y="0" type="line"/>
			<point x="609" y="0" type="line"/>
			<point x="609" y="12" type="line"/>
			<point x="562" y="17" type="line" smooth="yes"/>
			<point x="536" y="20"/>
			<point x="531" y="28"/>
			<point x="531" y="58" type="curve" smooth="yes"/>
			<point x="531" y="356" type="line" smooth="yes"/>
			<point x="531" y="467"/>
			<point x="478" y="527"/>
			<point x="377" y="527" type="curve" smooth="yes"/>
			<point x="306" y="527"/>
			<point x="239" y="490"/>
			<point x="208" y="415" type="curve"/>
			<point x="207" y="415" type="line"/>
			<point x="208" y="513" type="line"/>
			<point x="203" y="518" type="line"/>
			<point x="34" y="509" type="line"/>
			<point x="33" y="499" type="line"/>
			<point x="83" y="495" type="line" smooth="yes"/>
			<point x="112" y="493"/>
			<point x="117" y="480"/>
			<point x="117" y="433" type="curve" smooth="yes"/>
			<point x="117" y="66" type="line" smooth="yes"/>
			<point x="117" y="31"/>
			<point x="112" y="21"/>
			<point x="91" y="18" type="curve" smooth="yes"/>
			<point x="43" y="12" type="line"/>
		</contour>
	</outline>
	<anchor name="bottom" x="323" y="-30"/>
	<anchor name="top" x="324" y="550"/>
</glyph>
<glyph name="r" format="2">
	<unicode hex="0072"/>
	<advance width="469"/>
	<outline>
		<contour>
			<point x="43" y="0" type="line"/>
			<point x="321" y="0" type="line"/>
			<point x="321" y="11" type="line"/>
			<point x="235" y="21" type="line" smooth="yes"/>
			<point x="214" y="23"/>
			<point x="210" y="33"/>
			<point x="210" y="64" type="curve" smooth="yes"/>
			<point x="210" y="346" type="line" smooth="yes"/>
			<point x="210" y="446"/>
			<point x="296" y="513"/>
			<point x="368" y="491" type="curve"/>
			<point x="344" y="458"/>
			<point x="331" y="438"/>
			<point x="331" y="418" type="curve" smooth="yes"/>
			<point x="331" y="396"/>
			<point x="349" y="375"/>
			<point x="389" y="375" type="curve" smooth="yes"/>
			<point x="433" y="375"/>
			<point x="454" y="405"/>
			<point x="454" y="444" type="curve" smooth="yes"/>
			<point x="454" y="492"/>
			<point x="414" y="527"/>
			<point x="352" y="527" type="curve" smooth="yes"/>
			<point x="293" y="527"/>
			<point x="238" y="486"/>
			<point x="209" y="414" type="curve"/>
			<point x="208" y="414" type="line"/>
			<point x="208" y="513" type="line"/>
			<point x="203" y="518" type="line"/>
			<point x="34" y="509" type="line"/>
			<point x="33" y="499" type="line"/>
			<point x="83" y="495" type="line" smooth="yes"/>
			<point x="112" y="493"/>
			<point x="117" y="479"/>
			<point x="117" y="433" type="curve" smooth="yes"/>
			<point x="117" y="66" type="line" smooth="yes"/>
			<point x="117" y="31"/>
			<point x="112" y="21"/>
			<point x="91" y="18" type="curve" smooth="yes"/>
			<point x="43" y="12" type="line"/>
		</contour>
	</outline>
	<anchor name="bottom" x="166" y="-30"/>
	<anchor name="top" x="256" y="550"/>
</glyph>
<glyph name="s" format="2">
	<unicode hex="0073"/>
	<advance width="447"/>
	<outline>
		<contour>
			<point x="63" y="-14" type="line"/>
			<point x="75" y="-14" type="line"/>
			<point x="87" y="32" type="line"/>
			<point x="128" y="-2"/>
			<point x="173" y="-14"/>
			<point x="224" y="-14" type="curve" smooth="yes"/>
			<point x="335" y="-14"/>
			<point x="407" y="49"/>
			<point x="407" y="149" type="curve" smooth="yes"/>
			<point x="407" y="256"/>
			<point x="322" y="288"/>
			<point x="246" y="310" type="curve" smooth="yes"/>
			<point x="179" y="329"/>
			<point x="121" y="345"/>
			<point x="121" y="417" type="curve" smooth="yes"/>
			<point x="121" y="475"/>
			<point x="160" y="508"/>
			<point x="223" y="508" type="curve" smooth="yes"/>
			<point x="301" y="508"/>
			<point x="342" y="456"/>
			<point x="367" y="369" type="curve"/>
			<point x="382" y="368" type="line"/>
			<point x="371" y="527" type="line"/>
			<point x="361" y="527" type="line"/>
			<point x="346" y="486" type="line"/>
			<point x="322" y="504"/>
			<point x="284" y="527"/>
			<point x="223" y="527" type="curve" smooth="yes"/>
			<point x="117" y="527"/>
			<point x="57" y="460"/>
			<point x="57" y="376" type="curve" smooth="yes"/>
			<point x="57" y="267"/>
			<point x="143" y="240"/>
			<point x="208" y="222" type="curve" smooth="yes"/>
			<point x="287" y="200"/>
			<point x="340" y="184"/>
			<point x="340" y="114" type="curve" smooth="yes"/>
			<point x="340" y="48"/>
			<point x="298" y="6"/>
			<point x="226" y="6" type="curve" smooth="yes"/>
			<point x="152" y="6"/>
			<point x="94" y="45"/>
			<point x="64" y="167" type="curve"/>
			<point x="50" y="166" type="line"/>
		</contour>
	</outline>
	<anchor name="bottom" x="228" y="-30"/>
	<anchor name="top" x="222" y="550"/>
</glyph>
<glyph name="t" format="2">
	<unicode hex="0074"/>
	<advance width="377"/>
	<outline>
		<contour>
			<point x="226" y="-14" type="curve" smooth="yes"/>
			<point x="292" y="-14"/>
			<point x="333" y="20"/>
			<point x="372" y="81" type="curve"/>
			<point x="362" y="88" type="line"/>
			<point x="337" y="58"/>
			<point x="299" y="45"/>
			<point x="266" y="45" type="curve" smooth="yes"/>
			<point x="215" y="45"/>
			<point x="199" y="76"/>
			<point x="199" y="140" type="curve" smooth="yes"/>
			<point x="199" y="497" type="line"/>
			<point x="347" y="497" type="line"/>
			<point x="347" y="513" type="line"/>
			<point x="199" y="513" type="line"/>
			<point x="199" y="664" type="line"/>
			<point x="194" y="668" type="line"/>
			<point x="146" y="661" type="line"/>
			<point x="135" y="549"/>
			<point x="107" y="513"/>
			<point x="35" y="508" type="curve"/>
			<point x="35" y="497" type="line"/>
			<point x="106" y="497" type="line"/>
			<point x="106" y="133" type="line" smooth="yes"/>
			<point x="106" y="26"/>
			<point x="149" y="-14"/>
		</contour>
	</outline>
	<anchor name="bottom" x="231" y="-30"/>
</glyph>
<glyph name="v" format="2">
	<unicode hex="0076"/>
	<advance width="527"/>
	<outline>
		<contour>
			<point x="240" y="0" type="line"/>
			<point x="300" y="0" type="line"/>
			<point x="453" y="441" type="line" smooth="yes"/>
			<point x="468" y="484"/>
			<point x="475" y="491"/>
			<point x="499" y="496" type="curve" smooth="yes"/>
			<point x="532" y="502" type="line"/>
			<point x="532" y="513" type="line"/>
			<point x="374" y="513" type="line"/>
			<point x="372" y="503" type="line"/>
			<point x="408" y="497" type="line" smooth="yes"/>
			<point x="443" y="491"/>
			<point x="441" y="469"/>
			<point x="431" y="440" type="curve" smooth="yes"/>
			<point x="307" y="83" type="line"/>
			<point x="304" y="83" type="line"/>
			<point x="173" y="447" type="line" smooth="yes"/>
			<point x="161" y="481"/>
			<point x="165" y="494"/>
			<point x="192" y="497" type="curve" smooth="yes"/>
			<point x="240" y="502" type="line"/>
			<point x="240" y="513" type="line"/>
			<point x="2" y="513" type="line"/>
			<point x="0" y="503" type="line"/>
			<point x="27" y="496" type="line" smooth="yes"/>
			<point x="53" y="489"/>
			<point x="54" y="486"/>
			<point x="71" y="442" type="curve" smooth="yes"/>
		</contour>
	</outline>
	<anchor name="top" x="305" y="550"/>
</glyph>
<glyph name="w" format="2">
	<unicode hex="0077"/>
	<advance width="786"/>
	<outline>
		<contour>
			<point x="214" y="0" type="line"/>
			<point x="274" y="0" type="line"/>
			<point x="391" y="399" type="line"/>
			<point x="393" y="399" type="line"/>
			<point x="521" y="0" type="line"/>
			<point x="580" y="0" type="line"/>
			<point x="711" y="439" type="line" smooth="yes"/>
			<point x="723" y="479"/>
			<point x="732" y="491"/>
			<point x="755" y="495" type="curve" smooth="yes"/>
			<point x="791" y="502" type="line"/>
			<point x="791" y="513" type="line"/>
			<point x="633" y="513" type="line"/>
			<point x="631" y="503" type="line"/>
			<point x="666" y="497" type="line" smooth="yes"/>
			<point x="697" y="492"/>
			<point x="700" y="477"/>
			<point x="689" y="438" type="curve" smooth="yes"/>
			<point x="586" y="85" type="line"/>
			<point x="584" y="85" type="line"/>
			<point x="448" y="513" type="line"/>
			<point x="402" y="513" type="line"/>
			<point x="279" y="85" type="line"/>
			<point x="277" y="85" type="line"/>
			<point x="169" y="448" type="line" smooth="yes"/>
			<point x="157" y="489"/>
			<point x="164" y="496"/>
			<point x="187" y="498" type="curve" smooth="yes"/>
			<point x="230" y="502" type="line"/>
			<point x="230" y="513" type="line"/>
			<point x="2" y="513" type="line"/>
			<point x="0" y="502" type="line"/>
			<point x="27" y="495" type="line" smooth="yes"/>
			<point x="56" y="488"/>
			<point x="59" y="479"/>
			<point x="71" y="443" type="curve" smooth="yes"/>
		</contour>
	</outline>
	<anchor name="top" x="425" y="550"/>
</glyph>
<glyph name="y" format="2">
	<unicode hex="0079"/>
	<advance width="537"/>
	<outline>
		<contour>
			<point x="98" y="-230" type="curve" smooth="yes"/>
			<point x="171" y="-230"/>
			<point x="223" y="-199"/>
			<point x="283" y="-39" type="curve" smooth="yes"/>
			<point x="464" y="444" type="line" smooth="yes"/>
			<point x="479" y="485"/>
			<point x="487" y="491"/>
			<point x="509" y="496" type="curve" smooth="yes"/>
			<point x="542" y="502" type="line"/>
			<point x="542" y="513" type="line"/>
			<point x="383" y="513" type="line"/>
			<point x="382" y="503" type="line"/>
			<point x="417" y="497" type="line" smooth="yes"/>
			<point x="446" y="492"/>
			<point x="456" y="481"/>
			<point x="442" y="444" type="curve" smooth="yes"/>
			<point x="312" y="99" type="line"/>
			<point x="309" y="99" type="line"/>
			<point x="170" y="447" type="line" smooth="yes"/>
			<point x="156" y="481"/>
			<point x="163" y="494"/>
			<point x="189" y="497" type="curve" smooth="yes"/>
			<point x="237" y="502" type="line"/>
			<point x="237" y="513" type="line"/>
			<point x="2" y="513" type="line"/>
			<point x="0" y="503" type="line"/>
			<point x="33" y="494" type="line" smooth="yes"/>
			<point x="48" y="490"/>
			<point x="56" y="482"/>
			<point x="72" y="441" type="curve" smooth="yes"/>
			<point x="265" y="-23" type="line"/>
			<point x="250" y="-61" type="line" smooth="yes"/>
			<point x="197" y="-196"/>
			<point x="146" y="-209"/>
			<point x="103" y="-207" type="curve"/>
			<point x="113" y="-172"/>
			<point x="116" y="-154"/>
			<point x="116" y="-141" type="curve" smooth="yes"/>
			<point x="116" y="-114"/>
			<point x="95" y="-95"/>
			<point x="62" y="-95" type="curve" smooth="yes"/>
			<point x="25" y="-95"/>
			<point x="6" y="-122"/>
			<point x="6" y="-154" type="curve" smooth="yes"/>
			<point x="6" y="-199"/>
			<point x="40" y="-230"/>
		</contour>
	</outline>
	<anchor name="bottom" x="380" y="-30"/>
	<anchor name="top" x="305" y="550"/>
</glyph>
<glyph name="braceright" format="2">
	<unicode hex="007D"/>
	<advance width="372"/>
	<outline>
		<contour>
			<point x="109" y="-227" type="curve" smooth="yes"/>
			<point x="192" y="-227"/>
			<point x="242" y="-180"/>
			<point x="242" y="-106" type="curve" smooth="yes"/>
			<point x="242" y="-45"/>
			<point x="223" y="132"/>
			<point x="223" y="204" type="curve" smooth="yes"/>
			<point x="223" y="290"/>
			<point x="244" y="301"/>
			<point x="317" y="302" type="curve"/>
			<point x="317" y="314" type="line"/>
			<point x="244" y="315"/>
			<point x="223" y="326"/>
			<point x="223" y="412" type="curve" smooth="yes"/>
			<point x="223" y="484"/>
			<point x="242" y="640"/>
			<point x="242" y="701" type="curve" smooth="yes"/>
			<point x="242" y="775"/>
			<point x="198" y="822"/>
			<point x="115" y="822" type="curve" smooth="yes"/>
			<point x="93" y="822"/>
			<point x="66" y="818"/>
			<point x="45" y="813" type="curve"/>
			<point x="47" y="802" type="line"/>
			<point x="63" y="805"/>
			<point x="76" y="808"/>
			<point x="95" y="808" type="curve" smooth="yes"/>
			<point x="126" y="808"/>
			<point x="150" y="795"/>
			<point x="150" y="718" type="curve" smooth="yes"/>
			<point x="150" y="653"/>
			<point x="133" y="507"/>
			<point x="133" y="442" type="curve" smooth="yes"/>
			<point x="133" y="348"/>
			<point x="190" y="325"/>
			<point x="258" y="308" type="curve"/>
			<point x="190" y="291"/>
			<point x="133" y="268"/>
			<point x="133" y="174" type="curve" smooth="yes"/>
			<point x="133" y="109"/>
			<point x="150" y="-58"/>
			<point x="150" y="-123" type="curve" smooth="yes"/>
			<point x="150" y="-200"/>
			<point x="126" y="-213"/>
			<point x="95" y="-213" type="curve" smooth="yes"/>
			<point x="73" y="-213"/>
			<point x="59" y="-211"/>
			<point x="39" y="-207" type="curve"/>
			<point x="37" y="-218" type="line"/>
			<point x="59" y="-224"/>
			<point x="84" y="-227"/>
		</contour>
	</outline>
</glyph>
<glyph name="currency" format="2">
	<unicode hex="00A4"/>
	<advance width="519"/>
	<outline>
		<contour>
			<point x="452" y="154" type="line"/>
			<point x="464" y="166" type="line"/>
			<point x="402" y="252" type="line"/>
			<point x="423" y="281"/>
			<point x="436" y="320"/>
			<point x="436" y="371" type="curve" smooth="yes"/>
			<point x="436" y="418"/>
			<point x="425" y="454"/>
			<point x="406" y="480" type="curve"/>
			<point x="465" y="562" type="line"/>
			<point x="453" y="574" type="line"/>
			<point x="372" y="514" type="line"/>
			<point x="341" y="535"/>
			<point x="303" y="545"/>
			<point x="264" y="545" type="curve" smooth="yes"/>
			<point x="223" y="545"/>
			<point x="182" y="533"/>
			<point x="149" y="510" type="curve"/>
			<point x="66" y="571" type="line"/>
			<point x="54" y="559" type="line"/>
			<point x="115" y="474" type="line"/>
			<point x="95" y="446"/>
			<point x="84" y="409"/>
			<point x="84" y="362" type="curve" smooth="yes"/>
			<point x="84" y="316"/>
			<point x="95" y="278"/>
			<point x="115" y="251" type="curve"/>
			<point x="55" y="167" type="line"/>
			<point x="67" y="155" type="line"/>
			<point x="149" y="216" type="line"/>
			<point x="178" y="196"/>
			<point x="214" y="186"/>
			<point x="258" y="186" type="curve" smooth="yes"/>
			<point x="297" y="186"/>
			<point x="335" y="196"/>
			<point x="366" y="218" type="curve"/>
		</contour>
		<contour>
			<point x="258" y="204" type="curve" smooth="yes"/>
			<point x="195" y="204"/>
			<point x="158" y="265"/>
			<point x="158" y="365" type="curve" smooth="yes"/>
			<point x="158" y="470"/>
			<point x="198" y="527"/>
			<point x="262" y="527" type="curve" smooth="yes"/>
			<point x="324" y="527"/>
			<point x="362" y="473"/>
			<point x="362" y="367" type="curve" smooth="yes"/>
			<point x="362" y="266"/>
			<point x="329" y="204"/>
		</contour>
	</outline>
</glyph>
<glyph name="copyright" format="2">
	<unicode hex="00A9"/>
	<advance width="795"/>
	<outline>
		<contour>
			<point x="397" y="-12" type="curve" smooth="yes"/>
			<point x="601" y="-12"/>
			<point x="735" y="123"/>
			<point x="735" y="325" type="curve" smooth="yes"/>
			<point x="735" y="521"/>
			<point x="602" y="647"/>
			<point x="399" y="647" type="curve" smooth="yes"/>
			<point x="215" y="647"/>
			<point x="60" y="522"/>
			<point x="60" y="311" type="curve" smooth="yes"/>
			<point x="60" y="128"/>
			<point x="171" y="-12"/>
		</contour>
		<contour>
			<point x="399" y="15" type="curve" smooth="yes"/>
			<point x="197" y="15"/>
			<point x="89" y="129"/>
			<point x="89" y="311" type="curve" smooth="yes"/>
			<point x="89" y="504"/>
			<point x="226" y="620"/>
			<point x="399" y="620" type="curve" smooth="yes"/>
			<point x="578" y="620"/>
			<point x="706" y="515"/>
			<point x="706" y="319" type="curve" smooth="yes"/>
			<point x="706" y="137"/>
			<point x="585" y="15"/>
		</contour>
		<contour>
			<point x="409" y="106" type="curve" smooth="yes"/>
			<point x="480" y="106"/>
			<point x="522" y="144"/>
			<point x="556" y="189" type="curve"/>
			<point x="546" y="199" type="line"/>
			<point x="512" y="160"/>
			<point x="482" y="133"/>
			<point x="422" y="133" type="curve" smooth="yes"/>
			<point x="339" y="133"/>
			<point x="296" y="219"/>
			<point x="296" y="314" type="curve" smooth="yes"/>
			<point x="296" y="414"/>
			<point x="330" y="504"/>
			<point x="411" y="504" type="curve" smooth="yes"/>
			<point x="475" y="504"/>
			<point x="512" y="461"/>
			<point x="534" y="384" type="curve"/>
			<point x="549" y="387" type="line"/>
			<point x="527" y="520" type="line"/>
			<point x="516" y="520" type="line"/>
			<point x="511" y="478" type="line"/>
			<point x="491" y="498"/>
			<point x="457" y="519"/>
			<point x="402" y="519" type="curve" smooth="yes"/>
			<point x="296" y="519"/>
			<point x="215" y="442"/>
			<point x="215" y="313" type="curve" smooth="yes"/>
			<point x="215" y="205"/>
			<point x="279" y="106"/>
		</contour>
	</outline>
</glyph>
<glyph name="ordfeminine" format="2">
	<unicode hex="00AA"/>
	<advance width="420"/>
	<outline>
		<contour>
			<point x="149" y="362" type="curve" smooth="yes"/>
			<point x="214" y="362"/>
			<point x="241" y="378"/>
			<point x="263" y="427" type="curve"/>
			<point x="267" y="382"/>
			<point x="291" y="362"/>
			<point x="334" y="362" type="curve" smooth="yes"/>
			<point x="369" y="362"/>
			<point x="394" y="372"/>
			<point x="415" y="391" type="curve"/>
			<point x="412" y="402" type="line"/>
			<point x="399" y="396"/>
			<point x="385" y="390"/>
			<point x="369" y="390" type="curve" smooth="yes"/>
			<point x="346" y="390"/>
			<point x="335" y="400"/>
			<point x="335" y="430" type="curve" smooth="yes"/>
			<point x="335" y="611" type="line" smooth="yes"/>
			<point x="335" y="714"/>
			<point x="270" y="742"/>
			<point x="189" y="742" type="curve" smooth="yes"/>
			<point x="107" y="742"/>
			<point x="42" y="699"/>
			<point x="42" y="650" type="curve" smooth="yes"/>
			<point x="42" y="628"/>
			<point x="54" y="608"/>
			<point x="87" y="608" type="curve" smooth="yes"/>
			<point x="118" y="608"/>
			<point x="132" y="626"/>
			<point x="132" y="640" type="curve" smooth="yes"/>
			<point x="132" y="657"/>
			<point x="114" y="680"/>
			<point x="97" y="703" type="curve"/>
			<point x="126" y="719"/>
			<point x="150" y="726"/>
			<point x="178" y="726" type="curve" smooth="yes"/>
			<point x="236" y="726"/>
			<point x="256" y="687"/>
			<point x="256" y="617" type="curve" smooth="yes"/>
			<point x="256" y="567" type="line"/>
			<point x="223" y="565"/>
			<point x="191" y="563"/>
			<point x="159" y="558" type="curve" smooth="yes"/>
			<point x="84" y="546"/>
			<point x="38" y="513"/>
			<point x="38" y="461" type="curve" smooth="yes"/>
			<point x="38" y="390"/>
			<point x="93" y="362"/>
		</contour>
		<contour>
			<point x="177" y="379" type="curve" smooth="yes"/>
			<point x="149" y="379"/>
			<point x="121" y="393"/>
			<point x="121" y="467" type="curve" smooth="yes"/>
			<point x="121" y="537"/>
			<point x="178" y="552"/>
			<point x="256" y="552" type="curve"/>
			<point x="256" y="489" type="line" smooth="yes"/>
			<point x="256" y="416"/>
			<point x="226" y="379"/>
		</contour>
	</outline>
</glyph>
<glyph name="logicalnot" format="2">
	<unicode hex="00AC"/>
	<advance width="582"/>
	<outline>
		<contour>
			<point x="475" y="154" type="line"/>
			<point x="495" y="154" type="line"/>
			<point x="495" y="350" type="line"/>
			<point x="87" y="350" type="line"/>
			<point x="87" y="331" type="line"/>
			<point x="475" y="331" type="line"/>
		</contour>
	</outline>
</glyph>
<glyph name="softhyphen" format="2">
	<unicode hex="00AD"/>
	<advance width="345"/>
	<outline>
		<contour>
			<point x="44" y="260" type="line"/>
			<point x="301" y="260" type="line"/>
			<point x="301" y="322" type="line"/>
			<point x="44" y="322" type="line"/>
		</contour>
	</outline>
</glyph>
<glyph name="macron" format="2">
	<unicode hex="00AF"/>
	<advance width="500"/>
	<outline>
		<contour>
			<point x="118" y="644" type="line"/>
			<point x="382" y="644" type="line"/>
			<point x="382" y="710" type="line"/>
			<point x="118" y="710" type="line"/>
		</contour>
	</outline>
	<anchor name="_top" x="250" y="550"/>
</glyph>
<glyph name="degree" format="2">
	<unicode hex="00B0"/>
	<advance width="308"/>
	<outline>
		<contour>
			<point x="153" y="553" type="curve" smooth="yes"/>
			<point x="227" y="553"/>
			<point x="269" y="606"/>
			<point x="269" y="670" type="curve" smooth="yes"/>
			<point x="269" y="736"/>
			<point x="227" y="782"/>
			<point x="154" y="782" type="curve" smooth="yes"/>
			<point x="78" y="782"/>
			<point x="39" y="728"/>
			<point x="39" y="668" type="curve" smooth="yes"/>
			<point x="39" y="603"/>
			<point x="76" y="553"/>
		</contour>
		<contour>
			<point x="155" y="583" type="curve" smooth="yes"/>
			<point x="99" y="583"/>
			<point x="72" y="619"/>
			<point x="72" y="668" type="curve" smooth="yes"/>
			<point x="72" y="718"/>
			<point x="103" y="752"/>
			<point x="151" y="752" type="curve" smooth="yes"/>
			<point x="204" y="752"/>
			<point x="236" y="719"/>
			<point x="236" y="668" type="curve" smooth="yes"/>
			<point x="236" y="619"/>
			<point x="204" y="583"/>
		</contour>
	</outline>
</glyph>
<glyph name="plusminus" format="2">
	<unicode hex="00B1"/>
	<advance width="582"/>
	<outline>
		<contour>
			<point x="277" y="141" type="line"/>
			<point x="298" y="141" type="line"/>
			<point x="298" y="328" type="line"/>
			<point x="482" y="328" type="line"/>
			<point x="482" y="347" type="line"/>
			<point x="298" y="347" type="line"/>
			<point x="298" y="521" type="line"/>
			<point x="277" y="521" type="line"/>
			<point x="277" y="347" type="line"/>
			<point x="100" y="347" type="line"/>
			<point x="100" y="328" type="line"/>
			<point x="277" y="328" type="line"/>
		</contour>
		<contour>
			<point x="100" y="1" type="line"/>
			<point x="482" y="1" type="line"/>
			<point x="482" y="20" type="line"/>
			<point x="100" y="20" type="line"/>
		</contour>
	</outline>
</glyph>
<glyph name="cedilla" format="2">
	<unicode hex="00B8"/>
	<advance width="500"/>
	<outline>
		<contour>
			<point x="247" y="-220" type="curve" smooth="yes"/>
			<point x="317" y="-220"/>
			<point x="354" y="-182"/>
			<point x="354" y="-139" type="curve" smooth="yes"/>
			<point x="354" y="-86"/>
			<point x="313" y="-53"/>
			<point x="231" y="-63" type="curve"/>
			<point x="256" y="0" type="line"/>
			<point x="237" y="0" type="line"/>
			<point x="205" y="-80" type="line"/>
			<point x="209" y="-90" type="line"/>
			<point x="218" y="-87"/>
			<point x="225" y="-86"/>
			<point x="237" y="-86" type="curve" smooth="yes"/>
			<point x="267" y="-86"/>
			<point x="285" y="-102"/>
			<point x="285" y="-131" type="curve" smooth="yes"/>
			<point x="285" y="-170"/>
			<point x="255" y="-194"/>
			<point x="218" y="-194" type="curve" smooth="yes"/>
			<point x="189" y="-194"/>
			<point x="171" y="-182"/>
			<point x="153" y="-168" type="curve"/>
			<point x="144" y="-180" type="line"/>
			<point x="166" y="-202"/>
			<point x="196" y="-220"/>
		</contour>
	</outline>
	<anchor name="_bottom" x="250" y="-30"/>
</glyph>
<glyph name="onesuperior" format="2">
	<unicode hex="00B9"/>
	<advance width="310"/>
	<outline>
		<contour>
			<point x="30" y="374" type="line"/>
			<point x="290" y="374" type="line"/>
			<point x="290" y="386" type="line"/>
			<point x="228" y="393" type="line" smooth="yes"/>
			<point x="207" y="395"/>
			<point x="203" y="401"/>
			<point x="203" y="426" type="curve" smooth="yes"/>
			<point x="203" y="829" type="line"/>
			<point x="195" y="836" type="line"/>
			<point x="32" y="813" type="line"/>
			<point x="30" y="801" type="line"/>
			<point x="80" y="799" type="line" smooth="yes"/>
			<point x="117" y="798"/>
			<point x="119" y="787"/>
			<point x="119" y="759" type="curve" smooth="yes"/>
			<point x="119" y="428" type="line" smooth="yes"/>
			<point x="119" y="404"/>
			<point x="115" y="395"/>
			<point x="95" y="393" type="curve" smooth="yes"/>
			<point x="30" y="386" type="line"/>
		</contour>
	</outline>
</glyph>
<glyph name="AE" format="2">
	<unicode hex="00C6"/>
	<advance width="921"/>
	<outline>
		<contour>
			<point x="0" y="0" type="line"/>
			<point x="225" y="0" type="line"/>
			<point x="225" y="11" type="line"/>
			<point x="178" y="18" type="line" smooth="yes"/>
			<point x="135" y="24"/>
			<point x="127" y="36"/>
			<point x="143" y="71" type="curve" smooth="yes"/>
			<point x="270" y="344" type="line"/>
			<point x="462" y="344" type="line"/>
			<point x="462" y="67" type="line" smooth="yes"/>
			<point x="462" y="30"/>
			<point x="456" y="18"/>
			<point x="431" y="16" type="curve" smooth="yes"/>
			<point x="373" y="12" type="line"/>
			<point x="373" y="0" type="line"/>
			<point x="855" y="0" type="line"/>
			<point x="871" y="173" type="line"/>
			<point x="856" y="173" type="line"/>
			<point x="818" y="47"/>
			<point x="792" y="16"/>
			<point x="694" y="16" type="curve" smooth="yes"/>
			<point x="557" y="16" type="line"/>
			<point x="557" y="346" type="line"/>
			<point x="660" y="346" type="line" smooth="yes"/>
			<point x="727" y="346"/>
			<point x="741" y="329"/>
			<point x="758" y="252" type="curve"/>
			<point x="774" y="254" type="line"/>
			<point x="774" y="458" type="line"/>
			<point x="758" y="456" type="line"/>
			<point x="737" y="375"/>
			<point x="726" y="362"/>
			<point x="660" y="362" type="curve" smooth="yes"/>
			<point x="557" y="362" type="line"/>
			<point x="557" y="714" type="line"/>
			<point x="665" y="714" type="line" smooth="yes"/>
			<point x="771" y="714"/>
			<point x="801" y="682"/>
			<point x="841" y="564" type="curve"/>
			<point x="856" y="567" type="line"/>
			<point x="828" y="730" type="line"/>
			<point x="346" y="730" type="line"/>
			<point x="346" y="720" type="line"/>
			<point x="430" y="711" type="line"/>
			<point x="133" y="110" type="line" smooth="yes"/>
			<point x="109" y="62"/>
			<point x="82" y="22"/>
			<point x="26" y="15" type="curve" smooth="yes"/>
			<point x="0" y="12" type="line"/>
		</contour>
		<contour>
			<point x="277" y="360" type="line"/>
			<point x="451" y="714" type="line"/>
			<point x="462" y="714" type="line"/>
			<point x="462" y="360" type="line"/>
		</contour>
	</outline>
	<anchor name="bottom" x="508" y="-30"/>
	<anchor name="top" x="616" y="730"/>
</glyph>
<glyph name="Ccedilla" format="2">
	<unicode hex="00C7"/>
	<advance width="693"/>
	<outline>
		<contour>
			<point x="376" y="-220" type="curve" smooth="yes"/>
			<point x="446" y="-220"/>
			<point x="483" y="-182"/>
			<point x="483" y="-139" type="curve" smooth="yes"/>
			<point x="483" y="-86"/>
			<point x="442" y="-53"/>
			<point x="360" y="-63" type="curve"/>
			<point x="380" y="-14" type="line"/>
			<point x="386" y="-14"/>
			<point x="391" y="-14"/>
			<point x="397" y="-14" type="curve" smooth="yes"/>
			<point x="501" y="-14"/>
			<point x="594" y="42"/>
			<point x="648" y="133" type="curve"/>
			<point x="638" y="140" type="line"/>
			<point x="586" y="55"/>
			<point x="503" y="10"/>
			<point x="409" y="10" type="curve" smooth="yes"/>
			<point x="247" y="10"/>
			<point x="160" y="175"/>
			<point x="160" y="372" type="curve" smooth="yes"/>
			<point x="160" y="597"/>
			<point x="221" y="730"/>
			<point x="371" y="730" type="curve" smooth="yes"/>
			<point x="490" y="730"/>
			<point x="565" y="635"/>
			<point x="615" y="510" type="curve"/>
			<point x="630" y="513" type="line"/>
			<point x="591" y="746" type="line"/>
			<point x="577" y="746" type="line"/>
			<point x="567" y="659" type="line"/>
			<point x="525" y="702"/>
			<point x="460" y="744"/>
			<point x="371" y="744" type="curve" smooth="yes"/>
			<point x="181" y="744"/>
			<point x="53" y="578"/>
			<point x="53" y="371" type="curve" smooth="yes"/>
			<point x="53" y="144"/>
			<point x="163" y="2"/>
			<point x="361" y="-13" type="curve"/>
			<point x="334" y="-80" type="line"/>
			<point x="338" y="-90" type="line"/>
			<point x="347" y="-87"/>
			<point x="354" y="-86"/>
			<point x="366" y="-86" type="curve" smooth="yes"/>
			<point x="396" y="-86"/>
			<point x="414" y="-102"/>
			<point x="414" y="-131" type="curve" smooth="yes"/>
			<point x="414" y="-170"/>
			<point x="384" y="-194"/>
			<point x="347" y="-194" type="curve" smooth="yes"/>
			<point x="318" y="-194"/>
			<point x="300" y="-182"/>
			<point x="282" y="-168" type="curve"/>
			<point x="273" y="-180" type="line"/>
			<point x="295" y="-202"/>
			<point x="325" y="-220"/>
		</contour>
	</outline>
	<anchor name="bottom" x="379" y="-30"/>
	<anchor name="top" x="365" y="730"/>
</glyph>
<glyph name="Eth" format="2">
	<unicode hex="00D0"/>
	<advance width="760"/>
	<outline>
		<contour>
			<point x="349" y="730" type="curve" smooth="yes"/>
			<point x="59" y="730" type="line"/>
			<point x="59" y="718" type="line"/>
			<point x="115" y="715" type="line" smooth="yes"/>
			<point x="142" y="714"/>
			<point x="148" y="701"/>
			<point x="148" y="668" type="curve" smooth="yes"/>
			<point x="148" y="387" type="line"/>
			<point x="49" y="387" type="line"/>
			<point x="44" y="362" type="line"/>
			<point x="148" y="362" type="line"/>
			<point x="148" y="67" type="line" smooth="yes"/>
			<point x="148" y="30"/>
			<point x="142" y="18"/>
			<point x="117" y="16" type="curve" smooth="yes"/>
			<point x="59" y="12" type="line"/>
			<point x="59" y="0" type="line"/>
			<point x="321" y="0" type="line" smooth="yes"/>
			<point x="530" y="0"/>
			<point x="707" y="91"/>
			<point x="707" y="381" type="curve" smooth="yes"/>
			<point x="707" y="646"/>
			<point x="545" y="730"/>
		</contour>
		<contour>
			<point x="322" y="16" type="curve" smooth="yes"/>
			<point x="291" y="16"/>
			<point x="261" y="18"/>
			<point x="247" y="21" type="curve"/>
			<point x="247" y="362" type="line"/>
			<point x="441" y="362" type="line"/>
			<point x="441" y="387" type="line"/>
			<point x="247" y="387" type="line"/>
			<point x="247" y="714" type="line"/>
			<point x="341" y="714" type="line" smooth="yes"/>
			<point x="502" y="714"/>
			<point x="600" y="606"/>
			<point x="600" y="381" type="curve" smooth="yes"/>
			<point x="600" y="109"/>
			<point x="504" y="16"/>
		</contour>
	</outline>
	<anchor name="bottom" x="370" y="-30"/>
	<anchor name="top" x="365" y="730"/>
</glyph>
<glyph name="multiply" format="2">
	<unicode hex="00D7"/>
	<advance width="582"/>
	<outline>
		<contour>
			<point x="445" y="143" type="line"/>
			<point x="458" y="157" type="line"/>
			<point x="307" y="308" type="line"/>
			<point x="455" y="456" type="line"/>
			<point x="440" y="471" type="line"/>
			<point x="292" y="323" type="line"/>
			<point x="146" y="469" type="line"/>
			<point x="132" y="456" type="line"/>
			<point x="279" y="309" type="line"/>
			<point x="124" y="155" type="line"/>
			<point x="139" y="140" type="line"/>
			<point x="293" y="295" type="line"/>
		</contour>
	</outline>
</glyph>
<glyph name="ae" format="2">
	<unicode hex="00E6"/>
	<advance width="787"/>
	<outline>
		<contour>
			<point x="194" y="-14" type="curve" smooth="yes"/>
			<point x="289" y="-14"/>
			<point x="339" y="32"/>
			<point x="352" y="119" type="curve"/>
			<point x="386" y="32"/>
			<point x="459" y="-14"/>
			<point x="550" y="-14" type="curve" smooth="yes"/>
			<point x="633" y="-14"/>
			<point x="695" y="21"/>
			<point x="749" y="113" type="curve"/>
			<point x="740" y="120" type="line"/>
			<point x="687" y="66"/>
			<point x="639" y="54"/>
			<point x="582" y="54" type="curve" smooth="yes"/>
			<point x="493" y="54"/>
			<point x="423" y="119"/>
			<point x="430" y="275" type="curve"/>
			<point x="742" y="275" type="line"/>
			<point x="744" y="294"/>
			<point x="745" y="326"/>
			<point x="745" y="348" type="curve" smooth="yes"/>
			<point x="745" y="456"/>
			<point x="676" y="527"/>
			<point x="566" y="527" type="curve" smooth="yes"/>
			<point x="500" y="527"/>
			<point x="443" y="504"/>
			<point x="402" y="461" type="curve"/>
			<point x="373" y="505"/>
			<point x="321" y="527"/>
			<point x="244" y="527" type="curve" smooth="yes"/>
			<point x="145" y="527"/>
			<point x="57" y="465"/>
			<point x="57" y="401" type="curve" smooth="yes"/>
			<point x="57" y="367"/>
			<point x="76" y="348"/>
			<point x="112" y="348" type="curve" smooth="yes"/>
			<point x="147" y="348"/>
			<point x="167" y="369"/>
			<point x="167" y="392" type="curve" smooth="yes"/>
			<point x="167" y="409"/>
			<point x="155" y="434"/>
			<point x="120" y="474" type="curve"/>
			<point x="143" y="496"/>
			<point x="190" y="512"/>
			<point x="236" y="512" type="curve" smooth="yes"/>
			<point x="306" y="512"/>
			<point x="336" y="480"/>
			<point x="336" y="398" type="curve" smooth="yes"/>
			<point x="336" y="288" type="line"/>
			<point x="298" y="286"/>
			<point x="265" y="284"/>
			<point x="236" y="280" type="curve" smooth="yes"/>
			<point x="105" y="261"/>
			<point x="55" y="217"/>
			<point x="55" y="123" type="curve" smooth="yes"/>
			<point x="55" y="38"/>
			<point x="106" y="-14"/>
		</contour>
		<contour>
			<point x="236" y="21" type="curve" smooth="yes"/>
			<point x="181" y="21"/>
			<point x="152" y="64"/>
			<point x="152" y="144" type="curve" smooth="yes"/>
			<point x="152" y="215"/>
			<point x="178" y="249"/>
			<point x="244" y="265" type="curve" smooth="yes"/>
			<point x="269" y="271"/>
			<point x="299" y="273"/>
			<point x="336" y="274" type="curve"/>
			<point x="336" y="134" type="line" smooth="yes"/>
			<point x="336" y="67"/>
			<point x="295" y="21"/>
		</contour>
		<contour>
			<point x="431" y="291" type="line"/>
			<point x="441" y="443"/>
			<point x="484" y="512"/>
			<point x="557" y="512" type="curve" smooth="yes"/>
			<point x="621" y="512"/>
			<point x="650" y="473"/>
			<point x="650" y="352" type="curve" smooth="yes"/>
			<point x="650" y="334"/>
			<point x="649" y="303"/>
			<point x="648" y="291" type="curve"/>
		</contour>
	</outline>
	<anchor name="bottom" x="380" y="-30"/>
	<anchor name="top" x="408" y="550"/>
</glyph>
<glyph name="oslash" format="2">
	<unicode hex="00F8"/>
	<advance width="580"/>
	<outline>
		<contour>
			<point x="63" y="-14" type="line"/>
			<point x="90" y="-14" type="line"/>
			<point x="132" y="37" type="line"/>
			<point x="172" y="4"/>
			<point x="224" y="-14"/>
			<point x="286" y="-14" type="curve" smooth="yes"/>
			<point x="434" y="-14"/>
			<point x="532" y="96"/>
			<point x="532" y="270" type="curve" smooth="yes"/>
			<point x="532" y="347"/>
			<point x="510" y="410"/>
			<point x="472" y="454" type="curve"/>
			<point x="531" y="527" type="line"/>
			<point x="504" y="527" type="line"/>
			<point x="457" y="469" type="line"/>
			<point x="417" y="507"/>
			<point x="364" y="527"/>
			<point x="300" y="527" type="curve" smooth="yes"/>
			<point x="146" y="527"/>
			<point x="48" y="420"/>
			<point x="48" y="245" type="curve" smooth="yes"/>
			<point x="48" y="163"/>
			<point x="73" y="97"/>
			<point x="117" y="52" type="curve"/>
		</contour>
		<contour>
			<point x="303" y="4" type="curve" smooth="yes"/>
			<point x="249" y="4"/>
			<point x="205" y="32"/>
			<point x="178" y="94" type="curve"/>
			<point x="415" y="385" type="line"/>
			<point x="425" y="347"/>
			<point x="430" y="301"/>
			<point x="430" y="245" type="curve" smooth="yes"/>
			<point x="430" y="71"/>
			<point x="385" y="4"/>
		</contour>
		<contour>
			<point x="170" y="117" type="line"/>
			<point x="156" y="157"/>
			<point x="149" y="209"/>
			<point x="149" y="274" type="curve" smooth="yes"/>
			<point x="149" y="446"/>
			<point x="196" y="509"/>
			<point x="281" y="509" type="curve" smooth="yes"/>
			<point x="339" y="509"/>
			<point x="383" y="478"/>
			<point x="408" y="409" type="curve"/>
		</contour>
	</outline>
	<anchor name="bottom" x="290" y="-30"/>
	<anchor name="top" x="283" y="550"/>
</glyph>
<glyph name="thorn" format="2">
	<unicode hex="00FE"/>
	<advance width="610"/>
	<outline>
		<contour>
			<point x="25" y="-216" type="line"/>
			<point x="285" y="-216" type="line"/>
			<point x="285" y="-204" type="line"/>
			<point x="224" y="-198" type="line" smooth="yes"/>
			<point x="197" y="-195"/>
			<point x="192" y="-186"/>
			<point x="192" y="-152" type="curve" smooth="yes"/>
			<point x="192" y="19" type="line"/>
			<point x="223" y="-1"/>
			<point x="275" y="-14"/>
			<point x="314" y="-14" type="curve" smooth="yes"/>
			<point x="473" y="-14"/>
			<point x="558" y="101"/>
			<point x="558" y="271" type="curve" smooth="yes"/>
			<point x="558" y="446"/>
			<point x="480" y="527"/>
			<point x="350" y="527" type="curve" smooth="yes"/>
			<point x="285" y="527"/>
			<point x="229" y="502"/>
			<point x="193" y="434" type="curve"/>
			<point x="192" y="434" type="line"/>
			<point x="192" y="761" type="line"/>
			<point x="185" y="766" type="line"/>
			<point x="16" y="761" type="line"/>
			<point x="15" y="751" type="line"/>
			<point x="62" y="747" type="line" smooth="yes"/>
			<point x="95" y="744"/>
			<point x="99" y="733"/>
			<point x="99" y="685" type="curve" smooth="yes"/>
			<point x="99" y="-152" type="line" smooth="yes"/>
			<point x="99" y="-183"/>
			<point x="96" y="-195"/>
			<point x="72" y="-198" type="curve" smooth="yes"/>
			<point x="25" y="-204" type="line"/>
		</contour>
		<contour>
			<point x="316" y="3" type="curve" smooth="yes"/>
			<point x="266" y="3"/>
			<point x="219" y="28"/>
			<point x="192" y="53" type="curve"/>
			<point x="192" y="355" type="line" smooth="yes"/>
			<point x="192" y="441"/>
			<point x="241" y="492"/>
			<point x="325" y="492" type="curve" smooth="yes"/>
			<point x="408" y="492"/>
			<point x="459" y="433"/>
			<point x="459" y="266" type="curve" smooth="yes"/>
			<point x="459" y="58"/>
			<point x="404" y="3"/>
		</contour>
	</outline>
</glyph>
<glyph name="gcircumflex" format="2">
	<unicode hex="011D"/>
	<advance width="557"/>
	<outline>
		<contour>
			<point x="125" y="585" type="line"/>
			<point x="264" y="680" type="line"/>
			<point x="399" y="586" type="line"/>
			<point x="407" y="594" type="line"/>
			<point x="305" y="743" type="line" smooth="yes"/>
			<point x="289" y="766"/>
			<point x="278" y="771"/>
			<point x="264" y="771" type="curve" smooth="yes"/>
			<point x="250" y="771"/>
			<point x="236" y="765"/>
			<point x="225" y="749" type="curve" smooth="yes"/>
			<point x="117" y="593" type="line"/>
		</contour>
		<component base="g"/>
	</outline>
</glyph>
<glyph name="Hbar" format="2">
	<unicode hex="0126"/>
	<advance width="823"/>
	<outline>
		<contour>
			<point x="59" y="0" type="line"/>
			<point x="335" y="0" type="line"/>
			<point x="335" y="12" type="line"/>
			<point x="279" y="16" type="line" smooth="yes"/>
			<point x="253" y="18"/>
			<point x="247" y="29"/>
			<point x="247" y="63" type="curve" smooth="yes"/>
			<point x="247" y="363" type="line"/>
			<point x="577" y="363" type="line"/>
			<point x="577" y="67" type="line" smooth="yes"/>
			<point x="577" y="30"/>
			<point x="571" y="18"/>
			<point x="546" y="16" type="curve" smooth="yes"/>
			<point x="489" y="12" type="line"/>
			<point x="489" y="0" type="line"/>
			<point x="764" y="0" type="line"/>
			<point x="764" y="12" type="line"/>
			<point x="709" y="16" type="line" smooth="yes"/>
			<point x="682" y="18"/>
			<point x="676" y="29"/>
			<point x="676" y="63" type="curve" smooth="yes"/>
			<point x="676" y="540" type="line"/>
			<point x="774" y="540" type="line"/>
			<point x="774" y="562" type="line"/>
			<point x="676" y="562" type="line"/>
			<point x="676" y="664" type="line" smooth="yes"/>
			<point x="676" y="701"/>
			<point x="682" y="714"/>
			<point x="707" y="715" type="curve" smooth="yes"/>
			<point x="764" y="718" type="line"/>
			<point x="764" y="730" type="line"/>
			<point x="489" y="730" type="line"/>
			<point x="489" y="718" type="line"/>
			<point x="544" y="715" type="line" smooth="yes"/>
			<point x="571" y="714"/>
			<point x="577" y="702"/>
			<point x="577" y="668" type="curve" smooth="yes"/>
			<point x="577" y="562" type="line"/>
			<point x="247" y="562" type="line"/>
			<point x="247" y="664" type="line" smooth="yes"/>
			<point x="247" y="700"/>
			<point x="253" y="714"/>
			<point x="277" y="715" type="curve" smooth="yes"/>
			<point x="335" y="718" type="line"/>
			<point x="335" y="730" type="line"/>
			<point x="59" y="730" type="line"/>
			<point x="59" y="718" type="line"/>
			<point x="115" y="715" type="line" smooth="yes"/>
			<point x="142" y="714"/>
			<point x="148" y="702"/>
			<point x="148" y="668" type="curve" smooth="yes"/>
			<point x="148" y="562" type="line"/>
			<point x="54" y="562" type="line"/>
			<point x="49" y="540" type="line"/>
			<point x="148" y="540" type="line"/>
			<point x="148" y="67" type="line" smooth="yes"/>
			<point x="148" y="30"/>
			<point x="142" y="18"/>
			<point x="117" y="16" type="curve" smooth="yes"/>
			<point x="59" y="12" type="line"/>
		</contour>
		<contour>
			<point x="247" y="379" type="line"/>
			<point x="247" y="540" type="line"/>
			<point x="577" y="540" type="line"/>
			<point x="577" y="379" type="line"/>
		</contour>
	</outline>
	<anchor name="bottom" x="410" y="-30"/>
	<anchor name="top" x="415" y="730"/>
</glyph>
<glyph name="Iogonek" format="2">
	<unicode hex="012E"/>
	<advance width="395"/>
	<outline>
		<contour>
			<point x="181" y="-230" type="curve" smooth="yes"/>
			<point x="211" y="-230"/>
			<point x="252" y="-219"/>
			<point x="281" y="-166" type="curve"/>
			<point x="273" y="-161" type="line"/>
			<point x="257" y="-176"/>
			<point x="239" y="-183"/>
			<point x="223" y="-183" type="curve" smooth="yes"/>
			<point x="198" y="-183"/>
			<point x="180" y="-168"/>
			<point x="180" y="-126" type="curve" smooth="yes"/>
			<point x="180" y="-80"/>
			<point x="202" y="-42"/>
			<point x="254" y="0" type="curve"/>
			<point x="336" y="0" type="line"/>
			<point x="336" y="12" type="line"/>
			<point x="279" y="16" type="line" smooth="yes"/>
			<point x="253" y="18"/>
			<point x="247" y="29"/>
			<point x="247" y="63" type="curve" smooth="yes"/>
			<point x="247" y="664" type="line" smooth="yes"/>
			<point x="247" y="703"/>
			<point x="255" y="714"/>
			<point x="277" y="715" type="curve" smooth="yes"/>
			<point x="336" y="718" type="line"/>
			<point x="336" y="730" type="line"/>
			<point x="59" y="730" type="line"/>
			<point x="59" y="718" type="line"/>
			<point x="115" y="715" type="line" smooth="yes"/>
			<point x="142" y="714"/>
			<point x="148" y="701"/>
			<point x="148" y="668" type="curve" smooth="yes"/>
			<point x="148" y="67" type="line" smooth="yes"/>
			<point x="148" y="30"/>
			<point x="142" y="18"/>
			<point x="117" y="16" type="curve" smooth="yes"/>
			<point x="59" y="12" type="line"/>
			<point x="59" y="0" type="line"/>
			<point x="226" y="0" type="line"/>
			<point x="160" y="-40"/>
			<point x="100" y="-96"/>
			<point x="100" y="-155" type="curve" smooth="yes"/>
			<point x="100" y="-195"/>
			<point x="127" y="-230"/>
		</contour>
	</outline>
	<anchor name="bottom" x="195" y="-30"/>
	<anchor name="top" x="197" y="730"/>
</glyph>
<glyph name="OE" format="2">
	<unicode hex="0152"/>
	<advance width="1033"/>
	<outline>
		<contour>
			<point x="374" y="-14" type="curve" smooth="yes"/>
			<point x="458" y="-14"/>
			<point x="530" y="15"/>
			<point x="584" y="83" type="curve"/>
			<point x="584" y="0" type="line"/>
			<point x="967" y="0" type="line"/>
			<point x="983" y="173" type="line"/>
			<point x="968" y="173" type="line"/>
			<point x="930" y="47"/>
			<point x="904" y="16"/>
			<point x="806" y="16" type="curve" smooth="yes"/>
			<point x="684" y="16" type="line"/>
			<point x="684" y="366" type="line"/>
			<point x="772" y="366" type="line" smooth="yes"/>
			<point x="839" y="366"/>
			<point x="853" y="349"/>
			<point x="870" y="272" type="curve"/>
			<point x="886" y="274" type="line"/>
			<point x="886" y="478" type="line"/>
			<point x="870" y="476" type="line"/>
			<point x="849" y="395"/>
			<point x="838" y="382"/>
			<point x="772" y="382" type="curve" smooth="yes"/>
			<point x="684" y="382" type="line"/>
			<point x="684" y="714" type="line"/>
			<point x="777" y="714" type="line" smooth="yes"/>
			<point x="883" y="714"/>
			<point x="913" y="682"/>
			<point x="953" y="564" type="curve"/>
			<point x="968" y="567" type="line"/>
			<point x="940" y="730" type="line"/>
			<point x="585" y="730" type="line"/>
			<point x="585" y="654" type="line"/>
			<point x="534" y="716"/>
			<point x="465" y="744"/>
			<point x="383" y="744" type="curve" smooth="yes"/>
			<point x="177" y="744"/>
			<point x="53" y="597"/>
			<point x="53" y="351" type="curve" smooth="yes"/>
			<point x="53" y="126"/>
			<point x="177" y="-14"/>
		</contour>
		<contour>
			<point x="385" y="3" type="curve" smooth="yes"/>
			<point x="241" y="3"/>
			<point x="159" y="123"/>
			<point x="159" y="375" type="curve" smooth="yes"/>
			<point x="159" y="627"/>
			<point x="229" y="730"/>
			<point x="368" y="730" type="curve" smooth="yes"/>
			<point x="517" y="730"/>
			<point x="595" y="615"/>
			<point x="595" y="361" type="curve" smooth="yes"/>
			<point x="595" y="103"/>
			<point x="523" y="3"/>
		</contour>
	</outline>
</glyph>
<glyph name="scedilla" format="2">
	<unicode hex="015F"/>
	<advance width="442"/>
	<outline>
		<contour>
			<point x="243" y="-220" type="curve" smooth="yes"/>
			<point x="313" y="-220"/>
			<point x="350" y="-182"/>
			<point x="350" y="-139" type="curve" smooth="yes"/>
			<point x="350" y="-86"/>
			<point x="309" y="-53"/>
			<point x="227" y="-63" type="curve"/>
			<point x="247" y="-13" type="line"/>
			<point x="345" y="-5"/>
			<point x="407" y="56"/>
			<point x="407" y="149" type="curve" smooth="yes"/>
			<point x="407" y="256"/>
			<point x="322" y="288"/>
			<point x="246" y="310" type="curve" smooth="yes"/>
			<point x="179" y="329"/>
			<point x="121" y="345"/>
			<point x="121" y="417" type="curve" smooth="yes"/>
			<point x="121" y="475"/>
			<point x="160" y="508"/>
			<point x="223" y="508" type="curve" smooth="yes"/>
			<point x="301" y="508"/>
			<point x="342" y="456"/>
			<point x="367" y="369" type="curve"/>
			<point x="382" y="368" type="line"/>
			<point x="371" y="527" type="line"/>
			<point x="361" y="527" type="line"/>
			<point x="346" y="486" type="line"/>
			<point x="322" y="504"/>
			<point x="284" y="527"/>
			<point x="223" y="527" type="curve" smooth="yes"/>
			<point x="117" y="527"/>
			<point x="57" y="460"/>
			<point x="57" y="376" type="curve" smooth="yes"/>
			<point x="57" y="267"/>
			<point x="143" y="240"/>
			<point x="208" y="222" type="curve" smooth="yes"/>
			<point x="287" y="200"/>
			<point x="340" y="184"/>
			<point x="340" y="114" type="curve" smooth="yes"/>
			<point x="340" y="48"/>
			<point x="298" y="6"/>
			<point x="226" y="6" type="curve" smooth="yes"/>
			<point x="152" y="6"/>
			<point x="94" y="45"/>
			<point x="64" y="167" type="curve"/>
			<point x="50" y="166" type="line"/>
			<point x="63" y="-14" type="line"/>
			<point x="75" y="-14" type="line"/>
			<point x="87" y="32" type="line"/>
			<point x="126" y="0"/>
			<point x="168" y="-14"/>
			<point x="227" y="-14" type="curve"/>
			<point x="201" y="-80" type="line"/>
			<point x="205" y="-90" type="line"/>
			<point x="214" y="-87"/>
			<point x="221" y="-86"/>
			<point x="233" y="-86" type="curve" smooth="yes"/>
			<point x="263" y="-86"/>
			<point x="281" y="-102"/>
			<point x="281" y="-131" type="curve" smooth="yes"/>
			<point x="281" y="-170"/>
			<point x="251" y="-194"/>
			<point x="214" y="-194" type="curve" smooth="yes"/>
			<point x="185" y="-194"/>
			<point x="167" y="-182"/>
			<point x="149" y="-168" type="curve"/>
			<point x="140" y="-180" type="line"/>
			<point x="162" y="-202"/>
			<point x="192" y="-220"/>
		</contour>
	</outline>
	<anchor name="bottom" x="228" y="-30"/>
	<anchor name="top" x="222" y="550"/>
</glyph>
<glyph name="Tcedilla" format="2">
	<unicode hex="0162"/>
	<advance width="658"/>
	<outline>
		<contour>
			<point x="326" y="-220" type="curve" smooth="yes"/>
			<point x="396" y="-220"/>
			<point x="433" y="-182"/>
			<point x="433" y="-139" type="curve" smooth="yes"/>
			<point x="433" y="-86"/>
			<point x="392" y="-53"/>
			<point x="310" y="-63" type="curve"/>
			<point x="335" y="0" type="line"/>
			<point x="482" y="0" type="line"/>
			<point x="482" y="12" type="line"/>
			<point x="413" y="16" type="line" smooth="yes"/>
			<point x="385" y="18"/>
			<point x="379" y="29"/>
			<point x="379" y="62" type="curve" smooth="yes"/>
			<point x="379" y="714" type="line"/>
			<point x="445" y="714" type="line" smooth="yes"/>
			<point x="536" y="714"/>
			<point x="575" y="666"/>
			<point x="618" y="528" type="curve"/>
			<point x="633" y="532" type="line"/>
			<point x="607" y="730" type="line"/>
			<point x="53" y="730" type="line"/>
			<point x="25" y="532" type="line"/>
			<point x="39" y="528" type="line"/>
			<point x="83" y="666"/>
			<point x="123" y="714"/>
			<point x="215" y="714" type="curve" smooth="yes"/>
			<point x="280" y="714" type="line"/>
			<point x="280" y="66" type="line" smooth="yes"/>
			<point x="280" y="33"/>
			<point x="273" y="17"/>
			<point x="247" y="16" type="curve" smooth="yes"/>
			<point x="177" y="12" type="line"/>
			<point x="177" y="0" type="line"/>
			<point x="316" y="0" type="line"/>
			<point x="284" y="-80" type="line"/>
			<point x="288" y="-90" type="line"/>
			<point x="297" y="-87"/>
			<point x="304" y="-86"/>
			<point x="316" y="-86" type="curve" smooth="yes"/>
			<point x="346" y="-86"/>
			<point x="364" y="-102"/>
			<point x="364" y="-131" type="curve" smooth="yes"/>
			<point x="364" y="-170"/>
			<point x="334" y="-194"/>
			<point x="297" y="-194" type="curve" smooth="yes"/>
			<point x="268" y="-194"/>
			<point x="250" y="-182"/>
			<point x="232" y="-168" type="curve"/>
			<point x="223" y="-180" type="line"/>
			<point x="245" y="-202"/>
			<point x="275" y="-220"/>
		</contour>
	</outline>
	<anchor name="bottom" x="329" y="-30"/>
	<anchor name="top" x="329" y="730"/>
</glyph>
<glyph name="Uogonek" format="2">
	<unicode hex="0172"/>
	<advance width="762"/>
	<outline>
		<contour>
			<point x="425" y="-230" type="curve" smooth="yes"/>
			<point x="455" y="-230"/>
			<point x="496" y="-220"/>
			<point x="525" y="-166" type="curve"/>
			<point x="517" y="-161" type="line"/>
			<point x="501" y="-176"/>
			<point x="483" y="-183"/>
			<point x="467" y="-183" type="curve" smooth="yes"/>
			<point x="442" y="-183"/>
			<point x="424" y="-168"/>
			<point x="424" y="-126" type="curve" smooth="yes"/>
			<point x="424" y="-78"/>
			<point x="448" y="-39"/>
			<point x="510" y="12" type="curve"/>
			<point x="587" y="50"/>
			<point x="635" y="131"/>
			<point x="635" y="254" type="curve" smooth="yes"/>
			<point x="635" y="664" type="line" smooth="yes"/>
			<point x="635" y="701"/>
			<point x="641" y="713"/>
			<point x="666" y="715" type="curve" smooth="yes"/>
			<point x="710" y="718" type="line"/>
			<point x="710" y="730" type="line"/>
			<point x="532" y="730" type="line"/>
			<point x="532" y="718" type="line"/>
			<point x="580" y="715" type="line" smooth="yes"/>
			<point x="607" y="713"/>
			<point x="613" y="702"/>
			<point x="613" y="668" type="curve" smooth="yes"/>
			<point x="613" y="254" type="line" smooth="yes"/>
			<point x="613" y="111"/>
			<point x="544" y="19"/>
			<point x="414" y="19" type="curve" smooth="yes"/>
			<point x="285" y="19"/>
			<point x="233" y="101"/>
			<point x="233" y="252" type="curve" smooth="yes"/>
			<point x="233" y="664" type="line" smooth="yes"/>
			<point x="233" y="703"/>
			<point x="241" y="714"/>
			<point x="263" y="715" type="curve" smooth="yes"/>
			<point x="321" y="718" type="line"/>
			<point x="321" y="730" type="line"/>
			<point x="45" y="730" type="line"/>
			<point x="45" y="718" type="line"/>
			<point x="101" y="715" type="line" smooth="yes"/>
			<point x="128" y="714"/>
			<point x="134" y="701"/>
			<point x="134" y="668" type="curve" smooth="yes"/>
			<point x="134" y="245" type="line" smooth="yes"/>
			<point x="134" y="70"/>
			<point x="220" y="-14"/>
			<point x="390" y="-14" type="curve" smooth="yes"/>
			<point x="414" y="-14"/>
			<point x="437" y="-11"/>
			<point x="459" y="-6" type="curve"/>
			<point x="398" y="-46"/>
			<point x="344" y="-99"/>
			<point x="344" y="-155" type="curve" smooth="yes"/>
			<point x="344" y="-195"/>
			<point x="371" y="-230"/>
		</contour>
	</outline>
	<anchor name="bottom" x="400" y="-30"/>
	<anchor name="top" x="412" y="730"/>
</glyph>
<glyph name="Schwa" format="2">
	<unicode hex="018F"/>
	<advance width="687"/>
	<outline>
		<contour>
			<point x="307" y="-14" type="curve" smooth="yes"/>
			<point x="500" y="-14"/>
			<point x="634" y="120"/>
			<point x="634" y="367" type="curve" smooth="yes"/>
			<point x="634" y="601"/>
			<point x="522" y="744"/>
			<point x="322" y="744" type="curve" smooth="yes"/>
			<point x="192" y="744"/>
			<point x="103" y="678"/>
			<point x="53" y="595" type="curve"/>
			<point x="65" y="584" type="line"/>
			<point x="126" y="644"/>
			<point x="193" y="683"/>
			<point x="290" y="683" type="curve" smooth="yes"/>
			<point x="436" y="683"/>
			<point x="520" y="570"/>
			<point x="527" y="336" type="curve"/>
			<point x="59" y="336" type="line"/>
			<point x="55" y="306"/>
			<point x="53" y="274"/>
			<point x="53" y="234" type="curve" smooth="yes"/>
			<point x="53" y="74"/>
			<point x="168" y="-14"/>
		</contour>
		<contour>
			<point x="322" y="3" type="curve" smooth="yes"/>
			<point x="225" y="3"/>
			<point x="156" y="57"/>
			<point x="156" y="229" type="curve" smooth="yes"/>
			<point x="156" y="262"/>
			<point x="157" y="281"/>
			<point x="161" y="316" type="curve"/>
			<point x="527" y="316" type="line"/>
			<point x="517" y="117"/>
			<point x="463" y="3"/>
		</contour>
	</outline>
</glyph>
<glyph name="Ohorn" format="2">
	<unicode hex="01A0"/>
	<advance width="853"/>
	<outline>
		<contour>
			<point x="374" y="-14" type="curve" smooth="yes"/>
			<point x="572" y="-14"/>
			<point x="698" y="140"/>
			<point x="698" y="383" type="curve" smooth="yes"/>
			<point x="698" y="417"/>
			<point x="695" y="450"/>
			<point x="690" y="480" type="curve"/>
			<point x="799" y="514"/>
			<point x="853" y="607"/>
			<point x="853" y="675" type="curve" smooth="yes"/>
			<point x="853" y="721"/>
			<point x="831" y="761"/>
			<point x="781" y="761" type="curve" smooth="yes"/>
			<point x="745" y="761"/>
			<point x="721" y="736"/>
			<point x="721" y="698" type="curve" smooth="yes"/>
			<point x="721" y="662"/>
			<point x="742" y="646"/>
			<point x="790" y="646" type="curve" smooth="yes"/>
			<point x="811" y="646" type="line"/>
			<point x="807" y="598"/>
			<point x="787" y="534"/>
			<point x="686" y="496" type="curve"/>
			<point x="652" y="652"/>
			<point x="542" y="744"/>
			<point x="383" y="744" type="curve" smooth="yes"/>
			<point x="177" y="744"/>
			<point x="53" y="597"/>
			<point x="53" y="351" type="curve" smooth="yes"/>
			<point x="53" y="126"/>
			<point x="177" y="-14"/>
		</contour>
		<contour>
			<point x="388" y="3" type="curve" smooth="yes"/>
			<point x="244" y="3"/>
			<point x="159" y="123"/>
			<point x="159" y="375" type="curve" smooth="yes"/>
			<point x="159" y="627"/>
			<point x="229" y="730"/>
			<point x="368" y="730" type="curve" smooth="yes"/>
			<point x="511" y="730"/>
			<point x="589" y="615"/>
			<point x="589" y="361" type="curve" smooth="yes"/>
			<point x="589" y="103"/>
			<point x="526" y="3"/>
		</contour>
	</outline>
	<anchor name="bottom" x="387" y="-30"/>
	<anchor name="top" x="386" y="730"/>
</glyph>
<glyph name="Uhorn" format="2">
	<unicode hex="01AF"/>
	<advance width="824"/>
	<outline>
		<contour>
			<point x="390" y="-14" type="curve" smooth="yes"/>
			<point x="534" y="-14"/>
			<point x="635" y="75"/>
			<point x="635" y="254" type="curve" smooth="yes"/>
			<point x="635" y="472" type="line"/>
			<point x="768" y="511"/>
			<point x="824" y="606"/>
			<point x="824" y="675" type="curve" smooth="yes"/>
			<point x="824" y="721"/>
			<point x="802" y="761"/>
			<point x="752" y="761" type="curve" smooth="yes"/>
			<point x="716" y="761"/>
			<point x="692" y="736"/>
			<point x="692" y="698" type="curve" smooth="yes"/>
			<point x="692" y="662"/>
			<point x="713" y="646"/>
			<point x="761" y="646" type="curve" smooth="yes"/>
			<point x="782" y="646" type="line"/>
			<point x="778" y="598"/>
			<point x="758" y="533"/>
			<point x="635" y="489" type="curve"/>
			<point x="635" y="730" type="line"/>
			<point x="532" y="730" type="line"/>
			<point x="532" y="718" type="line"/>
			<point x="580" y="715" type="line" smooth="yes"/>
			<point x="607" y="713"/>
			<point x="613" y="702"/>
			<point x="613" y="668" type="curve" smooth="yes"/>
			<point x="613" y="254" type="line" smooth="yes"/>
			<point x="613" y="111"/>
			<point x="544" y="19"/>
			<point x="414" y="19" type="curve" smooth="yes"/>
			<point x="285" y="19"/>
			<point x="233" y="101"/>
			<point x="233" y="252" type="curve" smooth="yes"/>
			<point x="233" y="664" type="line" smooth="yes"/>
			<point x="233" y="700"/>
			<point x="239" y="714"/>
			<point x="263" y="715" type="curve" smooth="yes"/>
			<point x="321" y="718" type="line"/>
			<point x="321" y="730" type="line"/>
			<point x="45" y="730" type="line"/>
			<point x="45" y="718" type="line"/>
			<point x="101" y="715" type="line" smooth="yes"/>
			<point x="128" y="714"/>
			<point x="134" y="702"/>
			<point x="134" y="668" type="curve" smooth="yes"/>
			<point x="134" y="245" type="line" smooth="yes"/>
			<point x="134" y="70"/>
			<point x="220" y="-14"/>
		</contour>
	</outline>
	<anchor name="bottom" x="407" y="-30"/>
	<anchor name="top" x="419" y="730"/>
</glyph>
<glyph name="Oogonek" format="2">
	<unicode hex="01EA"/>
	<advance width="751"/>
	<outline>
		<contour>
			<point x="408" y="-230" type="curve" smooth="yes"/>
			<point x="438" y="-230"/>
			<point x="479" y="-220"/>
			<point x="508" y="-166" type="curve"/>
			<point x="500" y="-161" type="line"/>
			<point x="484" y="-176"/>
			<point x="466" y="-183"/>
			<point x="450" y="-183" type="curve" smooth="yes"/>
			<point x="425" y="-183"/>
			<point x="407" y="-168"/>
			<point x="407" y="-126" type="curve" smooth="yes"/>
			<point x="407" y="-78"/>
			<point x="431" y="-39"/>
			<point x="488" y="5" type="curve"/>
			<point x="619" y="54"/>
			<point x="698" y="190"/>
			<point x="698" y="383" type="curve" smooth="yes"/>
			<point x="698" y="606"/>
			<point x="577" y="744"/>
			<point x="383" y="744" type="curve" smooth="yes"/>
			<point x="177" y="744"/>
			<point x="53" y="597"/>
			<point x="53" y="351" type="curve" smooth="yes"/>
			<point x="53" y="126"/>
			<point x="177" y="-14"/>
			<point x="374" y="-14" type="curve" smooth="yes"/>
			<point x="397" y="-14"/>
			<point x="420" y="-12"/>
			<point x="441" y="-8" type="curve"/>
			<point x="380" y="-47"/>
			<point x="327" y="-99"/>
			<point x="327" y="-155" type="curve" smooth="yes"/>
			<point x="327" y="-195"/>
			<point x="354" y="-230"/>
		</contour>
		<contour>
			<point x="388" y="3" type="curve" smooth="yes"/>
			<point x="244" y="3"/>
			<point x="159" y="123"/>
			<point x="159" y="375" type="curve" smooth="yes"/>
			<point x="159" y="627"/>
			<point x="229" y="730"/>
			<point x="368" y="730" type="curve" smooth="yes"/>
			<point x="511" y="730"/>
			<point x="589" y="615"/>
			<point x="589" y="361" type="curve" smooth="yes"/>
			<point x="589" y="103"/>
			<point x="526" y="3"/>
		</contour>
	</outline>
	<anchor name="bottom" x="375" y="-30"/>
	<anchor name="top" x="378" y="730"/>
</glyph>
<glyph name="alpha-latin" format="2">
	<unicode hex="0251"/>
	<advance width="611"/>
	<outline>
		<contour>
			<point x="258" y="-14" type="curve" smooth="yes"/>
			<point x="330" y="-14"/>
			<point x="381" y="14"/>
			<point x="418" y="74" type="curve"/>
			<point x="420" y="74" type="line"/>
			<point x="426" y="16"/>
			<point x="457" y="-14"/>
			<point x="516" y="-14" type="curve" smooth="yes"/>
			<point x="548" y="-14"/>
			<point x="580" y="-3"/>
			<point x="611" y="33" type="curve"/>
			<point x="606" y="40" type="line"/>
			<point x="589" y="31"/>
			<point x="571" y="26"/>
			<point x="555" y="26" type="curve" smooth="yes"/>
			<point x="529" y="26"/>
			<point x="511" y="40"/>
			<point x="511" y="77" type="curve" smooth="yes"/>
			<point x="511" y="516" type="line"/>
			<point x="499" y="521" type="line"/>
			<point x="439" y="480" type="line"/>
			<point x="403" y="509"/>
			<point x="351" y="527"/>
			<point x="295" y="527" type="curve" smooth="yes"/>
			<point x="142" y="527"/>
			<point x="52" y="419"/>
			<point x="52" y="237" type="curve" smooth="yes"/>
			<point x="52" y="74"/>
			<point x="126" y="-14"/>
		</contour>
		<contour>
			<point x="290" y="19" type="curve" smooth="yes"/>
			<point x="199" y="19"/>
			<point x="151" y="88"/>
			<point x="151" y="249" type="curve" smooth="yes"/>
			<point x="151" y="440"/>
			<point x="193" y="510"/>
			<point x="290" y="510" type="curve" smooth="yes"/>
			<point x="340" y="510"/>
			<point x="386" y="487"/>
			<point x="418" y="460" type="curve"/>
			<point x="418" y="162" type="line" smooth="yes"/>
			<point x="418" y="64"/>
			<point x="357" y="19"/>
		</contour>
	</outline>
</glyph>
<glyph name="gsingle" format="2">
	<unicode hex="0261"/>
	<advance width="596"/>
	<outline>
		<contour>
			<point x="279" y="-230" type="curve" smooth="yes"/>
			<point x="381" y="-230"/>
			<point x="511" y="-185"/>
			<point x="511" y="15" type="curve" smooth="yes"/>
			<point x="511" y="516" type="line"/>
			<point x="499" y="521" type="line"/>
			<point x="439" y="480" type="line"/>
			<point x="403" y="509"/>
			<point x="351" y="527"/>
			<point x="295" y="527" type="curve" smooth="yes"/>
			<point x="142" y="527"/>
			<point x="52" y="419"/>
			<point x="52" y="237" type="curve" smooth="yes"/>
			<point x="52" y="74"/>
			<point x="126" y="-14"/>
			<point x="258" y="-14" type="curve" smooth="yes"/>
			<point x="330" y="-14"/>
			<point x="379" y="14"/>
			<point x="417" y="70" type="curve"/>
			<point x="418" y="70" type="line"/>
			<point x="418" y="-57" type="line" smooth="yes"/>
			<point x="418" y="-164"/>
			<point x="350" y="-213"/>
			<point x="277" y="-213" type="curve" smooth="yes"/>
			<point x="238" y="-213"/>
			<point x="212" y="-208"/>
			<point x="188" y="-197" type="curve"/>
			<point x="204" y="-162"/>
			<point x="206" y="-137"/>
			<point x="206" y="-125" type="curve" smooth="yes"/>
			<point x="206" y="-97"/>
			<point x="187" y="-76"/>
			<point x="158" y="-76" type="curve" smooth="yes"/>
			<point x="123" y="-76"/>
			<point x="100" y="-101"/>
			<point x="100" y="-133" type="curve" smooth="yes"/>
			<point x="100" y="-194"/>
			<point x="178" y="-230"/>
		</contour>
		<contour>
			<point x="290" y="19" type="curve" smooth="yes"/>
			<point x="199" y="19"/>
			<point x="151" y="88"/>
			<point x="151" y="249" type="curve" smooth="yes"/>
			<point x="151" y="440"/>
			<point x="193" y="510"/>
			<point x="290" y="510" type="curve" smooth="yes"/>
			<point x="340" y="510"/>
			<point x="386" y="487"/>
			<point x="418" y="460" type="curve"/>
			<point x="418" y="162" type="line" smooth="yes"/>
			<point x="418" y="64"/>
			<point x="357" y="19"/>
		</contour>
	</outline>
</glyph>
<glyph name="circumflex" format="2">
	<unicode hex="02C6"/>
	<advance width="500"/>
	<outline>
		<contour>
			<point x="113" y="585" type="line"/>
			<point x="252" y="680" type="line"/>
			<point x="387" y="586" type="line"/>
			<point x="395" y="594" type="line"/>
			<point x="293" y="743" type="line" smooth="yes"/>
			<point x="277" y="766"/>
			<point x="266" y="771"/>
			<point x="252" y="771" type="curve" smooth="yes"/>
			<point x="238" y="771"/>
			<point x="224" y="765"/>
			<point x="213" y="749" type="curve" smooth="yes"/>
			<point x="105" y="593" type="line"/>
		</contour>
	</outline>
	<anchor name="_top" x="250" y="550"/>
</glyph>
<glyph name="caron" format="2">
	<unicode hex="02C7"/>
	<advance width="500"/>
	<outline>
		<contour>
			<point x="248" y="586" type="curve" smooth="yes"/>
			<point x="262" y="586"/>
			<point x="276" y="592"/>
			<point x="287" y="608" type="curve" smooth="yes"/>
			<point x="395" y="764" type="line"/>
			<point x="387" y="772" type="line"/>
			<point x="248" y="677" type="line"/>
			<point x="113" y="771" type="line"/>
			<point x="105" y="763" type="line"/>
			<point x="207" y="614" type="line" smooth="yes"/>
			<point x="223" y="591"/>
			<point x="234" y="586"/>
		</contour>
	</outline>
	<anchor name="_top" x="249" y="550"/>
</glyph>
<glyph name="tilde" format="2">
	<unicode hex="02DC"/>
	<advance width="500"/>
	<outline>
		<contour>
			<point x="322" y="620" type="curve" smooth="yes"/>
			<point x="362" y="620"/>
			<point x="382" y="640"/>
			<point x="397" y="723" type="curve"/>
			<point x="386" y="726" type="line"/>
			<point x="373" y="696"/>
			<point x="362" y="690"/>
			<point x="344" y="690" type="curve" smooth="yes"/>
			<point x="327" y="690"/>
			<point x="317" y="695"/>
			<point x="265" y="717" type="curve" smooth="yes"/>
			<point x="225" y="734"/>
			<point x="206" y="742"/>
			<point x="180" y="742" type="curve" smooth="yes"/>
			<point x="137" y="742"/>
			<point x="118" y="719"/>
			<point x="104" y="639" type="curve"/>
			<point x="115" y="636" type="line"/>
			<point x="128" y="666"/>
			<point x="139" y="671"/>
			<point x="158" y="671" type="curve" smooth="yes"/>
			<point x="170" y="671"/>
			<point x="176" y="669"/>
			<point x="234" y="645" type="curve" smooth="yes"/>
			<point x="273" y="629"/>
			<point x="295" y="620"/>
		</contour>
	</outline>
	<anchor name="_top" x="250" y="550"/>
</glyph>
<glyph name="acutecomb" format="2">
	<unicode hex="0301"/>
	<outline>
		<contour>
			<point x="-38" y="585" type="line"/>
			<point x="86" y="680" type="line" smooth="yes"/>
			<point x="104" y="694"/>
			<point x="121" y="711"/>
			<point x="121" y="731" type="curve" smooth="yes"/>
			<point x="121" y="753"/>
			<point x="108" y="775"/>
			<point x="81" y="775" type="curve" smooth="yes"/>
			<point x="67" y="775"/>
			<point x="54" y="767"/>
			<point x="42" y="746" type="curve" smooth="yes"/>
			<point x="-46" y="593" type="line"/>
		</contour>
	</outline>
	<anchor name="_top" x="2" y="550"/>
</glyph>
<glyph name="hookabovecomb" format="2">
	<unicode hex="0309"/>
	<outline>
		<contour>
			<point x="-35" y="575" type="line"/>
			<point x="28" y="575" type="line"/>
			<point x="28" y="597" type="line" smooth="yes"/>
			<point x="28" y="630"/>
			<point x="117" y="658"/>
			<point x="117" y="726" type="curve" smooth="yes"/>
			<point x="117" y="787"/>
			<point x="63" y="808"/>
			<point x="-1" y="808" type="curve" smooth="yes"/>
			<point x="-65" y="808"/>
			<point x="-116" y="777"/>
			<point x="-116" y="728" type="curve" smooth="yes"/>
			<point x="-116" y="705"/>
			<point x="-102" y="689"/>
			<point x="-78" y="689" type="curve" smooth="yes"/>
			<point x="-55" y="689"/>
			<point x="-37" y="702"/>
			<point x="-37" y="720" type="curve" smooth="yes"/>
			<point x="-37" y="734"/>
			<point x="-45" y="748"/>
			<point x="-63" y="777" type="curve"/>
			<point x="-50" y="787"/>
			<point x="-34" y="793"/>
			<point x="-8" y="793" type="curve" smooth="yes"/>
			<point x="22" y="793"/>
			<point x="45" y="777"/>
			<point x="45" y="744" type="curve" smooth="yes"/>
			<point x="45" y="682"/>
			<point x="-35" y="671"/>
			<point x="-35" y="622" type="curve" smooth="yes"/>
		</contour>
	</outline>
	<anchor name="_top" x="0" y="550"/>
</glyph>
<glyph name="ringcomb" format="2">
	<unicode hex="030A"/>
	<outline>
		<contour>
			<point x="0" y="582" type="curve" smooth="yes"/>
			<point x="70" y="582"/>
			<point x="108" y="625"/>
			<point x="108" y="687" type="curve" smooth="yes"/>
			<point x="108" y="747"/>
			<point x="72" y="787"/>
			<point x="2" y="787" type="curve" smooth="yes"/>
			<point x="-72" y="787"/>
			<point x="-108" y="741"/>
			<point x="-108" y="685" type="curve" smooth="yes"/>
			<point x="-108" y="623"/>
			<point x="-75" y="582"/>
		</contour>
		<contour>
			<point x="1" y="597" type="curve" smooth="yes"/>
			<point x="-37" y="597"/>
			<point x="-50" y="625"/>
			<point x="-50" y="685" type="curve" smooth="yes"/>
			<point x="-50" y="744"/>
			<point x="-37" y="772"/>
			<point x="-1" y="772" type="curve" smooth="yes"/>
			<point x="34" y="772"/>
			<point x="49" y="745"/>
			<point x="49" y="685" type="curve" smooth="yes"/>
			<point x="49" y="623"/>
			<point x="38" y="597"/>
		</contour>
	</outline>
	<anchor name="_top" x="0" y="550"/>
</glyph>
<glyph name="hungarumlautcomb" format="2">
	<unicode hex="030B"/>
	<outline>
		<contour>
			<point x="53" y="585" type="line"/>
			<point x="180" y="679" type="line" smooth="yes"/>
			<point x="198" y="692"/>
			<point x="214" y="710"/>
			<point x="214" y="730" type="curve" smooth="yes"/>
			<point x="214" y="752"/>
			<point x="200" y="774"/>
			<point x="173" y="774" type="curve" smooth="yes"/>
			<point x="159" y="774"/>
			<point x="146" y="765"/>
			<point x="134" y="745" type="curve" smooth="yes"/>
			<point x="45" y="593" type="line"/>
		</contour>
		<contour>
			<point x="-91" y="585" type="line"/>
			<point x="22" y="678" type="line" smooth="yes"/>
			<point x="48" y="700"/>
			<point x="60" y="713"/>
			<point x="60" y="732" type="curve" smooth="yes"/>
			<point x="60" y="760"/>
			<point x="42" y="776"/>
			<point x="16" y="776" type="curve" smooth="yes"/>
			<point x="2" y="776"/>
			<point x="-11" y="769"/>
			<point x="-22" y="747" type="curve" smooth="yes"/>
			<point x="-99" y="593" type="line"/>
		</contour>
	</outline>
	<anchor name="_top" x="0" y="550"/>
</glyph>
<glyph name="dblgravecomb" format="2">
	<unicode hex="030F"/>
	<outline>
		<contour>
			<point x="-52" y="585" type="line"/>
			<point x="-44" y="593" type="line"/>
			<point x="-133" y="745" type="line" smooth="yes"/>
			<point x="-145" y="765"/>
			<point x="-158" y="774"/>
			<point x="-172" y="774" type="curve" smooth="yes"/>
			<point x="-199" y="774"/>
			<point x="-213" y="752"/>
			<point x="-213" y="730" type="curve" smooth="yes"/>
			<point x="-213" y="710"/>
			<point x="-197" y="692"/>
			<point x="-179" y="679" type="curve" smooth="yes"/>
		</contour>
		<contour>
			<point x="92" y="585" type="line"/>
			<point x="100" y="593" type="line"/>
			<point x="23" y="747" type="line" smooth="yes"/>
			<point x="12" y="769"/>
			<point x="-1" y="776"/>
			<point x="-15" y="776" type="curve" smooth="yes"/>
			<point x="-41" y="776"/>
			<point x="-59" y="760"/>
			<point x="-59" y="732" type="curve" smooth="yes"/>
			<point x="-59" y="713"/>
			<point x="-47" y="700"/>
			<point x="-21" y="678" type="curve" smooth="yes"/>
		</contour>
	</outline>
	<anchor name="_top" x="1" y="550"/>
</glyph>
<glyph name="commaturnedabovecomb" format="2">
	<unicode hex="0312"/>
	<outline>
		<contour>
			<point x="1" y="588" type="curve" smooth="yes"/>
			<point x="35" y="588"/>
			<point x="56" y="610"/>
			<point x="56" y="640" type="curve" smooth="yes"/>
			<point x="56" y="668"/>
			<point x="40" y="688"/>
			<point x="-8" y="688" type="curve" smooth="yes"/>
			<point x="-20" y="688" type="line"/>
			<point x="-20" y="721"/>
			<point x="-7" y="748"/>
			<point x="43" y="785" type="curve"/>
			<point x="35" y="797" type="line"/>
			<point x="-46" y="749"/>
			<point x="-60" y="699"/>
			<point x="-60" y="656" type="curve" smooth="yes"/>
			<point x="-60" y="619"/>
			<point x="-41" y="588"/>
		</contour>
	</outline>
	<anchor name="_top" x="0" y="550"/>
</glyph>
<glyph name="horncomb" format="2">
	<unicode hex="031B"/>
	<outline>
		<contour>
			<point x="-98" y="379" type="line"/>
			<point x="15" y="412"/>
			<point x="71" y="507"/>
			<point x="71" y="576" type="curve" smooth="yes"/>
			<point x="71" y="622"/>
			<point x="49" y="662"/>
			<point x="-1" y="662" type="curve" smooth="yes"/>
			<point x="-37" y="662"/>
			<point x="-61" y="637"/>
			<point x="-61" y="599" type="curve" smooth="yes"/>
			<point x="-61" y="563"/>
			<point x="-40" y="547"/>
			<point x="8" y="547" type="curve" smooth="yes"/>
			<point x="29" y="547" type="line"/>
			<point x="25" y="499"/>
			<point x="5" y="434"/>
			<point x="-98" y="396" type="curve"/>
		</contour>
	</outline>
</glyph>
<glyph name="dotbelowcomb" format="2">
	<unicode hex="0323"/>
	<outline>
		<contour>
			<point x="0" y="-203" type="curve" smooth="yes"/>
			<point x="38" y="-203"/>
			<point x="66" y="-175"/>
			<point x="66" y="-138" type="curve" smooth="yes"/>
			<point x="66" y="-101"/>
			<point x="38" y="-74"/>
			<point x="0" y="-74" type="curve" smooth="yes"/>
			<point x="-37" y="-74"/>
			<point x="-65" y="-102"/>
			<point x="-65" y="-139" type="curve" smooth="yes"/>
			<point x="-65" y="-176"/>
			<point x="-37" y="-203"/>
		</contour>
	</outline>
	<anchor name="_bottom" x="0" y="-30"/>
</glyph>
<glyph name="cedillacomb" format="2">
	<unicode hex="0327"/>
	<outline>
		<contour>
			<point x="-16" y="-220" type="curve" smooth="yes"/>
			<point x="54" y="-220"/>
			<point x="91" y="-182"/>
			<point x="91" y="-139" type="curve" smooth="yes"/>
			<point x="91" y="-86"/>
			<point x="50" y="-53"/>
			<point x="-32" y="-63" type="curve"/>
			<point x="-7" y="0" type="line"/>
			<point x="-26" y="0" type="line"/>
			<point x="-58" y="-80" type="line"/>
			<point x="-54" y="-90" type="line"/>
			<point x="-45" y="-87"/>
			<point x="-38" y="-86"/>
			<point x="-26" y="-86" type="curve" smooth="yes"/>
			<point x="4" y="-86"/>
			<point x="22" y="-102"/>
			<point x="22" y="-131" type="curve" smooth="yes"/>
			<point x="22" y="-170"/>
			<point x="-8" y="-194"/>
			<point x="-45" y="-194" type="curve" smooth="yes"/>
			<point x="-74" y="-194"/>
			<point x="-92" y="-182"/>
			<point x="-110" y="-168" type="curve"/>
			<point x="-119" y="-180" type="line"/>
			<point x="-97" y="-202"/>
			<point x="-67" y="-220"/>
		</contour>
	</outline>
	<anchor name="_bottom" x="0" y="-30"/>
</glyph>
<glyph name="ogonekcomb" format="2">
	<unicode hex="0328"/>
	<outline>
		<contour>
			<point x="-18" y="-230" type="curve" smooth="yes"/>
			<point x="12" y="-230"/>
			<point x="53" y="-220"/>
			<point x="82" y="-166" type="curve"/>
			<point x="74" y="-161" type="line"/>
			<point x="58" y="-176"/>
			<point x="40" y="-183"/>
			<point x="24" y="-183" type="curve" smooth="yes"/>
			<point x="-1" y="-183"/>
			<point x="-19" y="-168"/>
			<point x="-19" y="-126" type="curve" smooth="yes"/>
			<point x="-19" y="-77"/>
			<point x="6" y="-37"/>
			<point x="65" y="8" type="curve"/>
			<point x="43" y="9" type="line"/>
			<point x="-29" y="-31"/>
			<point x="-99" y="-91"/>
			<point x="-99" y="-155" type="curve" smooth="yes"/>
			<point x="-99" y="-195"/>
			<point x="-72" y="-230"/>
		</contour>
	</outline>
	<anchor name="_bottom" x="0" y="-30"/>
</glyph>
<glyph name="brevebelowcomb" format="2">
	<unicode hex="032E"/>
	<outline>
		<contour>
			<point x="-3" y="-216" type="curve" smooth="yes"/>
			<point x="89" y="-216"/>
			<point x="138" y="-150"/>
			<point x="145" y="-60" type="curve"/>
			<point x="132" y="-58" type="line"/>
			<point x="115" y="-109"/>
			<point x="73" y="-141"/>
			<point x="2" y="-141" type="curve" smooth="yes"/>
			<point x="-68" y="-141"/>
			<point x="-109" y="-115"/>
			<point x="-131" y="-58" type="curve"/>
			<point x="-144" y="-61" type="line"/>
			<point x="-135" y="-158"/>
			<point x="-94" y="-216"/>
		</contour>
	</outline>
	<anchor name="_bottom" x="0" y="-30"/>
</glyph>
<glyph name="ypogegrammeni" format="2">
	<unicode hex="037A"/>
	<advance width="233"/>
	<outline>
		<contour>
			<point x="138" y="-229" type="curve" smooth="yes"/>
			<point x="172" y="-229"/>
			<point x="210" y="-205"/>
			<point x="233" y="-168" type="curve"/>
			<point x="228" y="-161" type="line"/>
			<point x="214" y="-166"/>
			<point x="200" y="-169"/>
			<point x="190" y="-169" type="curve" smooth="yes"/>
			<point x="156" y="-169"/>
			<point x="141" y="-154"/>
			<point x="141" y="-123" type="curve" smooth="yes"/>
			<point x="141" y="-103"/>
			<point x="142" y="-85"/>
			<point x="146" y="-48" type="curve"/>
			<point x="141" y="-44" type="line"/>
			<point x="63" y="-51" type="line"/>
			<point x="63" y="-136" type="line" smooth="yes"/>
			<point x="63" y="-201"/>
			<point x="85" y="-229"/>
		</contour>
	</outline>
	<anchor name="_bottom" x="104" y="-30"/>
</glyph>
<glyph name="Delta" format="2">
	<unicode hex="0394"/>
	<advance width="567"/>
	<outline>
		<contour>
			<point x="17" y="0" type="line"/>
			<point x="552" y="0" type="line"/>
			<point x="557" y="24" type="line"/>
			<point x="318" y="730" type="line"/>
			<point x="250" y="730" type="line"/>
			<point x="10" y="29" type="line"/>
		</contour>
		<contour>
			<point x="44" y="50" type="line"/>
			<point x="246" y="650" type="line"/>
			<point x="248" y="650" type="line"/>
			<point x="441" y="50" type="line"/>
		</contour>
	</outline>
</glyph>
<glyph name="Pi" format="2">
	<unicode hex="03A0"/>
	<advance width="813"/>
	<outline>
		<contour>
			<point x="59" y="0" type="line"/>
			<point x="335" y="0" type="line"/>
			<point x="335" y="12" type="line"/>
			<point x="279" y="16" type="line" smooth="yes"/>
			<point x="254" y="18"/>
			<point x="247" y="28"/>
			<point x="247" y="63" type="curve"/>
			<point x="247" y="704" type="line"/>
			<point x="567" y="704" type="line"/>
			<point x="567" y="67" type="line"/>
			<point x="567" y="29"/>
			<point x="560" y="18"/>
			<point x="536" y="16" type="curve" smooth="yes"/>
			<point x="479" y="12" type="line"/>
			<point x="479" y="0" type="line"/>
			<point x="754" y="0" type="line"/>
			<point x="754" y="12" type="line"/>
			<point x="699" y="16" type="line" smooth="yes"/>
			<point x="673" y="18"/>
			<point x="666" y="28"/>
			<point x="666" y="63" type="curve" smooth="yes"/>
			<point x="666" y="664" type="line" smooth="yes"/>
			<point x="666" y="703"/>
			<point x="673" y="714"/>
			<point x="697" y="715" type="curve" smooth="yes"/>
			<point x="754" y="718" type="line"/>
			<point x="754" y="730" type="line"/>
			<point x="59" y="730" type="line"/>
			<point x="59" y="718" type="line"/>
			<point x="115" y="715" type="line" smooth="yes"/>
			<point x="141" y="714"/>
			<point x="148" y="704"/>
			<point x="148" y="668" type="curve" smooth="yes"/>
			<point x="148" y="67" type="line" smooth="yes"/>
			<point x="148" y="29"/>
			<point x="141" y="18"/>
			<point x="117" y="16" type="curve" smooth="yes"/>
			<point x="59" y="12" type="line"/>
		</contour>
	</outline>
</glyph>
<glyph name="Sigma" format="2">
	<unicode hex="03A3"/>
	<advance width="622"/>
	<outline>
		<contour>
			<point x="45" y="0" type="line"/>
			<point x="545" y="0" type="line"/>
			<point x="572" y="215" type="line"/>
			<point x="559" y="215" type="line"/>
			<point x="526" y="89"/>
			<point x="491" y="52"/>
			<point x="405" y="51" type="curve" smooth="yes"/>
			<point x="83" y="49" type="line"/>
			<point x="74" y="15" type="line"/>
			<point x="361" y="377" type="line"/>
			<point x="361" y="386" type="line"/>
			<point x="161" y="714" type="line"/>
			<point x="372" y="714" type="line" smooth="yes"/>
			<point x="459" y="714"/>
			<point x="500" y="676"/>
			<point x="534" y="564" type="curve"/>
			<point x="547" y="567" type="line"/>
			<point x="519" y="730" type="line"/>
			<point x="48" y="730" type="line"/>
			<point x="48" y="714" type="line"/>
			<point x="283" y="321" type="line"/>
			<point x="45" y="15" type="line"/>
		</contour>
	</outline>
</glyph>
<glyph name="Psi" format="2">
	<unicode hex="03A8"/>
	<advance width="929"/>
	<outline>
		<contour>
			<point x="326" y="0" type="line"/>
			<point x="603" y="0" type="line"/>
			<point x="603" y="12" type="line"/>
			<point x="546" y="16" type="line" smooth="yes"/>
			<point x="521" y="18"/>
			<point x="514" y="28"/>
			<point x="514" y="63" type="curve" smooth="yes"/>
			<point x="514" y="188" type="line"/>
			<point x="698" y="195"/>
			<point x="809" y="296"/>
			<point x="809" y="456" type="curve" smooth="yes"/>
			<point x="809" y="664" type="line" smooth="yes"/>
			<point x="809" y="702"/>
			<point x="816" y="713"/>
			<point x="840" y="715" type="curve" smooth="yes"/>
			<point x="884" y="718" type="line"/>
			<point x="884" y="730" type="line"/>
			<point x="710" y="730" type="line"/>
			<point x="710" y="456" type="line" smooth="yes"/>
			<point x="710" y="302"/>
			<point x="647" y="227"/>
			<point x="514" y="221" type="curve"/>
			<point x="514" y="664" type="line" smooth="yes"/>
			<point x="514" y="702"/>
			<point x="521" y="714"/>
			<point x="544" y="715" type="curve" smooth="yes"/>
			<point x="603" y="718" type="line"/>
			<point x="603" y="730" type="line"/>
			<point x="326" y="730" type="line"/>
			<point x="326" y="718" type="line"/>
			<point x="382" y="715" type="line" smooth="yes"/>
			<point x="408" y="714"/>
			<point x="415" y="704"/>
			<point x="415" y="668" type="curve" smooth="yes"/>
			<point x="415" y="221" type="line"/>
			<point x="282" y="227"/>
			<point x="219" y="302"/>
			<point x="219" y="456" type="curve" smooth="yes"/>
			<point x="219" y="730" type="line"/>
			<point x="45" y="730" type="line"/>
			<point x="45" y="718" type="line"/>
			<point x="89" y="715" type="line" smooth="yes"/>
			<point x="113" y="713"/>
			<point x="120" y="702"/>
			<point x="120" y="664" type="curve" smooth="yes"/>
			<point x="120" y="456" type="line" smooth="yes"/>
			<point x="120" y="296"/>
			<point x="231" y="195"/>
			<point x="415" y="188" type="curve"/>
			<point x="415" y="67" type="line" smooth="yes"/>
			<point x="415" y="29"/>
			<point x="408" y="18"/>
			<point x="384" y="16" type="curve" smooth="yes"/>
			<point x="326" y="12" type="line"/>
		</contour>
	</outline>
</glyph>
<glyph name="alpha" format="2">
	<unicode hex="03B1"/>
	<advance width="612"/>
	<outline>
		<contour>
			<point x="248" y="-14" type="curve" smooth="yes"/>
			<point x="316" y="-14"/>
			<point x="369" y="24"/>
			<point x="402" y="94" type="curve"/>
			<point x="405" y="94" type="line"/>
			<point x="408" y="24"/>
			<point x="439" y="-14"/>
			<point x="495" y="-14" type="curve" smooth="yes"/>
			<point x="532" y="-14"/>
			<point x="564" y="6"/>
			<point x="592" y="46" type="curve"/>
			<point x="588" y="53" type="line"/>
			<point x="576" y="48"/>
			<point x="560" y="45"/>
			<point x="546" y="45" type="curve" smooth="yes"/>
			<point x="496" y="45"/>
			<point x="482" y="77"/>
			<point x="482" y="194" type="curve" smooth="yes"/>
			<point x="482" y="292"/>
			<point x="498" y="408"/>
			<point x="525" y="513" type="curve"/>
			<point x="520" y="518" type="line"/>
			<point x="420" y="511" type="line"/>
			<point x="413" y="434" type="line"/>
			<point x="411" y="434" type="line"/>
			<point x="386" y="490"/>
			<point x="328" y="527"/>
			<point x="266" y="527" type="curve" smooth="yes"/>
			<point x="134" y="527"/>
			<point x="54" y="424"/>
			<point x="54" y="253" type="curve" smooth="yes"/>
			<point x="54" y="90"/>
			<point x="129" y="-14"/>
		</contour>
		<contour>
			<point x="277" y="19" type="curve" smooth="yes"/>
			<point x="192" y="19"/>
			<point x="157" y="90"/>
			<point x="157" y="261" type="curve" smooth="yes"/>
			<point x="157" y="439"/>
			<point x="192" y="510"/>
			<point x="280" y="510" type="curve" smooth="yes"/>
			<point x="335" y="510"/>
			<point x="381" y="473"/>
			<point x="409" y="406" type="curve"/>
			<point x="402" y="337"/>
			<point x="398" y="235"/>
			<point x="398" y="126" type="curve"/>
			<point x="376" y="64"/>
			<point x="325" y="19"/>
		</contour>
	</outline>
	<anchor name="bottom" x="262" y="-45"/>
	<anchor name="top" x="285" y="550"/>
</glyph>
<glyph name="epsilon" format="2">
	<unicode hex="03B5"/>
	<advance width="519"/>
	<outline>
		<contour>
			<point x="258" y="-14" type="curve" smooth="yes"/>
			<point x="349" y="-14"/>
			<point x="418" y="25"/>
			<point x="474" y="107" type="curve"/>
			<point x="465" y="114" type="line"/>
			<point x="429" y="77"/>
			<point x="362" y="54"/>
			<point x="289" y="54" type="curve" smooth="yes"/>
			<point x="204" y="54"/>
			<point x="152" y="93"/>
			<point x="152" y="155" type="curve" smooth="yes"/>
			<point x="152" y="206"/>
			<point x="173" y="239"/>
			<point x="227" y="271" type="curve"/>
			<point x="254" y="240"/>
			<point x="274" y="227"/>
			<point x="297" y="227" type="curve" smooth="yes"/>
			<point x="331" y="227"/>
			<point x="351" y="246"/>
			<point x="351" y="276" type="curve" smooth="yes"/>
			<point x="351" y="304"/>
			<point x="331" y="324"/>
			<point x="303" y="324" type="curve" smooth="yes"/>
			<point x="278" y="324"/>
			<point x="261" y="314"/>
			<point x="227" y="279" type="curve"/>
			<point x="171" y="304"/>
			<point x="150" y="334"/>
			<point x="150" y="392" type="curve" smooth="yes"/>
			<point x="150" y="464"/>
			<point x="204" y="510"/>
			<point x="291" y="510" type="curve" smooth="yes"/>
			<point x="339" y="510"/>
			<point x="383" y="499"/>
			<point x="407" y="481" type="curve"/>
			<point x="372" y="416"/>
			<point x="365" y="401"/>
			<point x="365" y="383" type="curve" smooth="yes"/>
			<point x="365" y="351"/>
			<point x="385" y="334"/>
			<point x="423" y="334" type="curve" smooth="yes"/>
			<point x="458" y="334"/>
			<point x="479" y="357"/>
			<point x="479" y="397" type="curve" smooth="yes"/>
			<point x="479" y="477"/>
			<point x="399" y="527"/>
			<point x="272" y="527" type="curve" smooth="yes"/>
			<point x="148" y="527"/>
			<point x="62" y="470"/>
			<point x="62" y="387" type="curve" smooth="yes"/>
			<point x="62" y="327"/>
			<point x="107" y="284"/>
			<point x="181" y="273" type="curve"/>
			<point x="181" y="272" type="line"/>
			<point x="98" y="256"/>
			<point x="53" y="207"/>
			<point x="53" y="134" type="curve" smooth="yes"/>
			<point x="53" y="47"/>
			<point x="138" y="-14"/>
		</contour>
	</outline>
	<anchor name="top" x="279" y="573"/>
</glyph>
<glyph name="zeta" format="2">
	<unicode hex="03B6"/>
	<advance width="442"/>
	<outline>
		<contour>
			<point x="332" y="-230" type="line"/>
			<point x="401" y="-163"/>
			<point x="431" y="-114"/>
			<point x="431" y="-67" type="curve" smooth="yes"/>
			<point x="431" y="3"/>
			<point x="396" y="34"/>
			<point x="279" y="69" type="curve" smooth="yes"/>
			<point x="108" y="120"/>
			<point x="72" y="150"/>
			<point x="72" y="243" type="curve" smooth="yes"/>
			<point x="72" y="369"/>
			<point x="210" y="540"/>
			<point x="447" y="708" type="curve"/>
			<point x="447" y="719" type="line"/>
			<point x="382" y="775" type="line"/>
			<point x="354" y="749"/>
			<point x="334" y="727"/>
			<point x="301" y="691" type="curve"/>
			<point x="267" y="673"/>
			<point x="234" y="665"/>
			<point x="195" y="665" type="curve" smooth="yes"/>
			<point x="167" y="665"/>
			<point x="144" y="671"/>
			<point x="120" y="684" type="curve"/>
			<point x="141" y="718"/>
			<point x="151" y="743"/>
			<point x="151" y="760" type="curve" smooth="yes"/>
			<point x="151" y="786"/>
			<point x="130" y="806"/>
			<point x="102" y="806" type="curve" smooth="yes"/>
			<point x="69" y="806"/>
			<point x="48" y="784"/>
			<point x="48" y="750" type="curve" smooth="yes"/>
			<point x="48" y="686"/>
			<point x="104" y="645"/>
			<point x="192" y="645" type="curve" smooth="yes"/>
			<point x="223" y="645"/>
			<point x="252" y="652"/>
			<point x="280" y="665" type="curve"/>
			<point x="125" y="487"/>
			<point x="38" y="319"/>
			<point x="38" y="200" type="curve" smooth="yes"/>
			<point x="38" y="72"/>
			<point x="80" y="29"/>
			<point x="252" y="-17" type="curve" smooth="yes"/>
			<point x="339" y="-40"/>
			<point x="370" y="-67"/>
			<point x="370" y="-118" type="curve" smooth="yes"/>
			<point x="370" y="-155"/>
			<point x="353" y="-194"/>
			<point x="324" y="-223" type="curve"/>
		</contour>
	</outline>
</glyph>
<glyph name="theta" format="2">
	<unicode hex="03B8"/>
	<advance width="590"/>
	<outline>
		<contour>
			<point x="292" y="-14" type="curve" smooth="yes"/>
			<point x="446" y="-14"/>
			<point x="532" y="129"/>
			<point x="532" y="385" type="curve" smooth="yes"/>
			<point x="532" y="649"/>
			<point x="455" y="782"/>
			<point x="302" y="782" type="curve" smooth="yes"/>
			<point x="144" y="782"/>
			<point x="58" y="643"/>
			<point x="58" y="387" type="curve" smooth="yes"/>
			<point x="58" y="120"/>
			<point x="136" y="-14"/>
		</contour>
		<contour>
			<point x="299" y="4" type="curve" smooth="yes"/>
			<point x="201" y="4"/>
			<point x="155" y="116"/>
			<point x="155" y="355" type="curve"/>
			<point x="434" y="385" type="line"/>
			<point x="434" y="115"/>
			<point x="395" y="4"/>
		</contour>
		<contour>
			<point x="155" y="409" type="line"/>
			<point x="155" y="654"/>
			<point x="197" y="764"/>
			<point x="290" y="764" type="curve" smooth="yes"/>
			<point x="390" y="764"/>
			<point x="434" y="656"/>
			<point x="434" y="409" type="curve"/>
		</contour>
	</outline>
</glyph>
<glyph name="nu" format="2">
	<unicode hex="03BD"/>
	<advance width="566"/>
	<outline>
		<contour>
			<point x="264" y="-19" type="line"/>
			<point x="436" y="129"/>
			<point x="508" y="263"/>
			<point x="508" y="436" type="curve" smooth="yes"/>
			<point x="508" y="464"/>
			<point x="505" y="492"/>
			<point x="501" y="508" type="curve"/>
			<point x="496" y="513" type="line"/>
			<point x="406" y="513" type="line"/>
			<point x="410" y="495"/>
			<point x="413" y="454"/>
			<point x="413" y="416" type="curve" smooth="yes"/>
			<point x="413" y="229"/>
			<point x="365" y="96"/>
			<point x="267" y="9" type="curve"/>
			<point x="264" y="9" type="line"/>
			<point x="260" y="378"/>
			<point x="215" y="522"/>
			<point x="104" y="522" type="curve" smooth="yes"/>
			<point x="64" y="522"/>
			<point x="27" y="501"/>
			<point x="0" y="462" type="curve"/>
			<point x="5" y="455" type="line"/>
			<point x="19" y="460"/>
			<point x="34" y="463"/>
			<point x="49" y="463" type="curve" smooth="yes"/>
			<point x="145" y="463"/>
			<point x="185" y="337"/>
			<point x="195" y="0" type="curve"/>
		</contour>
	</outline>
</glyph>
<glyph name="rho" format="2">
	<unicode hex="03C1"/>
	<advance width="564"/>
	<outline>
		<contour>
			<point x="70" y="-221" type="line"/>
			<point x="159" y="-214" type="line"/>
			<point x="147" y="-141"/>
			<point x="141" y="-65"/>
			<point x="141" y="19" type="curve"/>
			<point x="142" y="19" type="line"/>
			<point x="171" y="0"/>
			<point x="225" y="-14"/>
			<point x="274" y="-14" type="curve" smooth="yes"/>
			<point x="408" y="-14"/>
			<point x="512" y="108"/>
			<point x="512" y="267" type="curve" smooth="yes"/>
			<point x="512" y="431"/>
			<point x="428" y="527"/>
			<point x="285" y="527" type="curve" smooth="yes"/>
			<point x="149" y="527"/>
			<point x="53" y="422"/>
			<point x="53" y="273" type="curve" smooth="yes"/>
			<point x="53" y="17" type="line" smooth="yes"/>
			<point x="53" y="-65"/>
			<point x="57" y="-152"/>
			<point x="63" y="-216" type="curve"/>
		</contour>
		<contour>
			<point x="270" y="3" type="curve" smooth="yes"/>
			<point x="225" y="3"/>
			<point x="171" y="24"/>
			<point x="141" y="53" type="curve"/>
			<point x="141" y="272" type="line" smooth="yes"/>
			<point x="141" y="428"/>
			<point x="188" y="509"/>
			<point x="280" y="509" type="curve" smooth="yes"/>
			<point x="369" y="509"/>
			<point x="414" y="422"/>
			<point x="414" y="250" type="curve" smooth="yes"/>
			<point x="414" y="97"/>
			<point x="359" y="3"/>
		</contour>
	</outline>
	<anchor name="top" x="279" y="550"/>
</glyph>
<glyph name="tau" format="2">
	<unicode hex="03C4"/>
	<advance width="486"/>
	<outline>
		<contour>
			<point x="277" y="-14" type="curve" smooth="yes"/>
			<point x="337" y="-14"/>
			<point x="370" y="8"/>
			<point x="418" y="80" type="curve"/>
			<point x="408" y="87" type="line"/>
			<point x="378" y="55"/>
			<point x="354" y="44"/>
			<point x="315" y="44" type="curve" smooth="yes"/>
			<point x="267" y="44"/>
			<point x="245" y="75"/>
			<point x="245" y="142" type="curve" smooth="yes"/>
			<point x="245" y="206"/>
			<point x="251" y="374"/>
			<point x="256" y="466" type="curve"/>
			<point x="449" y="466" type="line"/>
			<point x="456" y="471" type="line"/>
			<point x="456" y="527" type="line"/>
			<point x="134" y="519" type="line"/>
			<point x="107" y="519"/>
			<point x="56" y="505"/>
			<point x="15" y="485" type="curve"/>
			<point x="13" y="466" type="line"/>
			<point x="203" y="466" type="line"/>
			<point x="176" y="296"/>
			<point x="161" y="171"/>
			<point x="161" y="111" type="curve" smooth="yes"/>
			<point x="161" y="32"/>
			<point x="204" y="-14"/>
		</contour>
	</outline>
</glyph>
<glyph name="chi" format="2">
	<unicode hex="03C7"/>
	<advance width="517"/>
	<outline>
		<contour>
			<point x="447" y="-230" type="curve" smooth="yes"/>
			<point x="481" y="-230"/>
			<point x="511" y="-215"/>
			<point x="542" y="-183" type="curve"/>
			<point x="537" y="-176" type="line"/>
			<point x="524" y="-184"/>
			<point x="504" y="-190"/>
			<point x="490" y="-190" type="curve" smooth="yes"/>
			<point x="453" y="-190"/>
			<point x="439" y="-174"/>
			<point x="412" y="-98" type="curve"/>
			<point x="301" y="175" type="line"/>
			<point x="511" y="513" type="line"/>
			<point x="506" y="518" type="line"/>
			<point x="405" y="513" type="line"/>
			<point x="296" y="194" type="line"/>
			<point x="294" y="194" type="line"/>
			<point x="205" y="413" type="line" smooth="yes"/>
			<point x="167" y="503"/>
			<point x="147" y="522"/>
			<point x="91" y="522" type="curve" smooth="yes"/>
			<point x="53" y="522"/>
			<point x="21" y="507"/>
			<point x="-10" y="475" type="curve"/>
			<point x="-5" y="468" type="line"/>
			<point x="9" y="477"/>
			<point x="28" y="482"/>
			<point x="46" y="482" type="curve" smooth="yes"/>
			<point x="82" y="482"/>
			<point x="100" y="462"/>
			<point x="130" y="390" type="curve" smooth="yes"/>
			<point x="240" y="118" type="line"/>
			<point x="32" y="-216" type="line"/>
			<point x="37" y="-221" type="line"/>
			<point x="138" y="-216" type="line"/>
			<point x="247" y="96" type="line"/>
			<point x="249" y="96" type="line"/>
			<point x="337" y="-121" type="line"/>
			<point x="366" y="-206"/>
			<point x="390" y="-230"/>
		</contour>
	</outline>
</glyph>
<glyph name="kaiSymbol" format="2">
	<unicode hex="03D7"/>
	<advance width="585"/>
	<outline>
		<contour>
			<point x="324" y="-229" type="curve" smooth="yes"/>
			<point x="468" y="-229"/>
			<point x="550" y="-163"/>
			<point x="550" y="-46" type="curve" smooth="yes"/>
			<point x="550" y="27"/>
			<point x="522" y="71"/>
			<point x="413" y="169" type="curve" smooth="yes"/>
			<point x="347" y="228"/>
			<point x="316" y="281"/>
			<point x="316" y="335" type="curve" smooth="yes"/>
			<point x="316" y="395"/>
			<point x="383" y="483"/>
			<point x="439" y="495" type="curve"/>
			<point x="426" y="449"/>
			<point x="440" y="421"/>
			<point x="477" y="421" type="curve" smooth="yes"/>
			<point x="507" y="421"/>
			<point x="529" y="442"/>
			<point x="529" y="471" type="curve" smooth="yes"/>
			<point x="529" y="505"/>
			<point x="504" y="527"/>
			<point x="466" y="527" type="curve" smooth="yes"/>
			<point x="385" y="527"/>
			<point x="236" y="371"/>
			<point x="155" y="202" type="curve"/>
			<point x="157" y="321"/>
			<point x="166" y="409"/>
			<point x="171" y="513" type="curve"/>
			<point x="164" y="518" type="line"/>
			<point x="68" y="511" type="line"/>
			<point x="75" y="0" type="line"/>
			<point x="155" y="0" type="line"/>
			<point x="155" y="170" type="line"/>
			<point x="189" y="221"/>
			<point x="232" y="289"/>
			<point x="280" y="345" type="curve"/>
			<point x="270" y="313"/>
			<point x="265" y="280"/>
			<point x="265" y="256" type="curve" smooth="yes"/>
			<point x="265" y="200"/>
			<point x="275" y="184"/>
			<point x="377" y="79" type="curve" smooth="yes"/>
			<point x="464" y="-10"/>
			<point x="481" y="-38"/>
			<point x="481" y="-83" type="curve" smooth="yes"/>
			<point x="481" y="-169"/>
			<point x="413" y="-206"/>
			<point x="257" y="-206" type="curve" smooth="yes"/>
			<point x="248" y="-206" type="line"/>
			<point x="248" y="-219" type="line"/>
			<point x="265" y="-225"/>
			<point x="295" y="-229"/>
		</contour>
	</outline>
</glyph>
<glyph name="KoppaArchaic" format="2">
	<unicode hex="03D8"/>
	<advance width="751"/>
	<outline>
		<contour>
			<point x="338" y="-213" type="line"/>
			<point x="424" y="-204" type="line"/>
			<point x="421" y="-144"/>
			<point x="419" y="-56"/>
			<point x="419" y="-11" type="curve"/>
			<point x="592" y="11"/>
			<point x="698" y="161"/>
			<point x="698" y="383" type="curve" smooth="yes"/>
			<point x="698" y="606"/>
			<point x="577" y="744"/>
			<point x="383" y="744" type="curve" smooth="yes"/>
			<point x="177" y="744"/>
			<point x="53" y="597"/>
			<point x="53" y="351" type="curve" smooth="yes"/>
			<point x="53" y="137"/>
			<point x="165" y="-1"/>
			<point x="347" y="-13" type="curve"/>
			<point x="346" y="-62"/>
			<point x="337" y="-140"/>
			<point x="331" y="-208" type="curve"/>
		</contour>
		<contour>
			<point x="419" y="5" type="curve"/>
			<point x="420" y="47"/>
			<point x="429" y="160"/>
			<point x="435" y="211" type="curve"/>
			<point x="428" y="216" type="line"/>
			<point x="342" y="207" type="line"/>
			<point x="342" y="151"/>
			<point x="346" y="48"/>
			<point x="347" y="7" type="curve"/>
			<point x="224" y="29"/>
			<point x="159" y="156"/>
			<point x="159" y="375" type="curve" smooth="yes"/>
			<point x="159" y="619"/>
			<point x="224" y="730"/>
			<point x="368" y="730" type="curve" smooth="yes"/>
			<point x="516" y="730"/>
			<point x="589" y="608"/>
			<point x="589" y="361" type="curve" smooth="yes"/>
			<point x="589" y="127"/>
			<point x="538" y="20"/>
		</contour>
	</outline>
</glyph>
<glyph name="koppaArchaic" format="2">
	<unicode hex="03D9"/>
	<advance width="580"/>
	<outline>
		<contour>
			<point x="252" y="-162" type="line"/>
			<point x="324" y="-153" type="line"/>
			<point x="319" y="-108"/>
			<point x="313" y="-41"/>
			<point x="312" y="-13" type="curve"/>
			<point x="447" y="0"/>
			<point x="532" y="109"/>
			<point x="532" y="270" type="curve" smooth="yes"/>
			<point x="532" y="427"/>
			<point x="441" y="527"/>
			<point x="300" y="527" type="curve" smooth="yes"/>
			<point x="145" y="527"/>
			<point x="48" y="419"/>
			<point x="48" y="245" type="curve" smooth="yes"/>
			<point x="48" y="96"/>
			<point x="130" y="-3"/>
			<point x="263" y="-13" type="curve"/>
			<point x="260" y="-42"/>
			<point x="251" y="-122"/>
			<point x="247" y="-158" type="curve"/>
		</contour>
		<contour>
			<point x="312" y="4" type="curve"/>
			<point x="313" y="21"/>
			<point x="322" y="91"/>
			<point x="329" y="142" type="curve"/>
			<point x="324" y="146" type="line"/>
			<point x="252" y="137" type="line"/>
			<point x="255" y="110"/>
			<point x="263" y="46"/>
			<point x="264" y="10" type="curve"/>
			<point x="189" y="33"/>
			<point x="149" y="124"/>
			<point x="149" y="274" type="curve" smooth="yes"/>
			<point x="149" y="436"/>
			<point x="190" y="509"/>
			<point x="281" y="509" type="curve" smooth="yes"/>
			<point x="379" y="509"/>
			<point x="430" y="419"/>
			<point x="430" y="245" type="curve" smooth="yes"/>
			<point x="430" y="86"/>
			<point x="392" y="9"/>
		</contour>
	</outline>
</glyph>
<glyph name="Koppa" format="2">
	<unicode hex="03DE"/>
	<advance width="563"/>
	<outline>
		<contour>
			<point x="328" y="-90" type="curve" smooth="yes"/>
			<point x="362" y="-90"/>
			<point x="393" y="-74"/>
			<point x="419" y="-43" type="curve"/>
			<point x="414" y="-36" type="line"/>
			<point x="389" y="-47"/>
			<point x="381" y="-50"/>
			<point x="368" y="-50" type="curve" smooth="yes"/>
			<point x="340" y="-50"/>
			<point x="322" y="-30"/>
			<point x="322" y="1" type="curve" smooth="yes"/>
			<point x="322" y="74"/>
			<point x="371" y="157"/>
			<point x="492" y="287" type="curve" smooth="yes"/>
			<point x="523" y="320" type="line"/>
			<point x="480" y="386" type="line"/>
			<point x="128" y="190" type="line"/>
			<point x="320" y="428"/>
			<point x="346" y="468"/>
			<point x="346" y="523" type="curve" smooth="yes"/>
			<point x="346" y="576"/>
			<point x="311" y="610"/>
			<point x="255" y="610" type="curve" smooth="yes"/>
			<point x="221" y="610"/>
			<point x="190" y="594"/>
			<point x="164" y="563" type="curve"/>
			<point x="169" y="556" type="line"/>
			<point x="194" y="567"/>
			<point x="202" y="570"/>
			<point x="215" y="570" type="curve" smooth="yes"/>
			<point x="243" y="570"/>
			<point x="261" y="550"/>
			<point x="261" y="519" type="curve" smooth="yes"/>
			<point x="261" y="468"/>
			<point x="232" y="415"/>
			<point x="97" y="218" type="curve" smooth="yes"/>
			<point x="50" y="149" type="line"/>
			<point x="67" y="124" type="line"/>
			<point x="419" y="285" type="line"/>
			<point x="276" y="120"/>
			<point x="237" y="56"/>
			<point x="237" y="-7" type="curve" smooth="yes"/>
			<point x="237" y="-57"/>
			<point x="273" y="-90"/>
		</contour>
	</outline>
</glyph>
<glyph name="koppa" format="2">
	<unicode hex="03DF"/>
	<advance width="600"/>
	<outline>
		<contour>
			<point x="291" y="-59" type="curve" smooth="yes"/>
			<point x="330" y="-59"/>
			<point x="363" y="-43"/>
			<point x="388" y="-11" type="curve"/>
			<point x="383" y="-4" type="line"/>
			<point x="368" y="-13"/>
			<point x="351" y="-18"/>
			<point x="337" y="-18" type="curve" smooth="yes"/>
			<point x="309" y="-18"/>
			<point x="295" y="-4"/>
			<point x="295" y="22" type="curve" smooth="yes"/>
			<point x="295" y="52"/>
			<point x="309" y="75"/>
			<point x="362" y="132" type="curve" smooth="yes"/>
			<point x="483" y="263" type="line"/>
			<point x="483" y="274" type="line"/>
			<point x="206" y="274" type="line"/>
			<point x="310" y="378" type="line" smooth="yes"/>
			<point x="365" y="433"/>
			<point x="385" y="466"/>
			<point x="385" y="500" type="curve" smooth="yes"/>
			<point x="385" y="542"/>
			<point x="356" y="568"/>
			<point x="311" y="568" type="curve" smooth="yes"/>
			<point x="272" y="568"/>
			<point x="239" y="552"/>
			<point x="214" y="520" type="curve"/>
			<point x="219" y="513" type="line"/>
			<point x="234" y="522"/>
			<point x="251" y="527"/>
			<point x="265" y="527" type="curve" smooth="yes"/>
			<point x="293" y="527"/>
			<point x="307" y="513"/>
			<point x="307" y="487" type="curve" smooth="yes"/>
			<point x="307" y="460"/>
			<point x="296" y="442"/>
			<point x="240" y="377" type="curve" smooth="yes"/>
			<point x="109" y="226" type="line"/>
			<point x="109" y="215" type="line"/>
			<point x="386" y="215" type="line"/>
			<point x="292" y="131" type="line" smooth="yes"/>
			<point x="240" y="85"/>
			<point x="217" y="48"/>
			<point x="217" y="9" type="curve" smooth="yes"/>
			<point x="217" y="-33"/>
			<point x="246" y="-59"/>
		</contour>
	</outline>
</glyph>
<glyph name="sampi" format="2">
	<unicode hex="03E1"/>
	<advance width="600"/>
	<outline>
		<contour>
			<point x="181" y="512" type="curve"/>
			<point x="166" y="470" type="line"/>
			<point x="256" y="447"/>
			<point x="329" y="404"/>
			<point x="382" y="346" type="curve"/>
			<point x="113" y="236" type="line" smooth="yes"/>
			<point x="78" y="222"/>
			<point x="69" y="223"/>
			<point x="58" y="241" type="curve" smooth="yes"/>
			<point x="32" y="283" type="line"/>
			<point x="9" y="274" type="line"/>
			<point x="82" y="91" type="line"/>
			<point x="106" y="100" type="line"/>
			<point x="96" y="148" type="line" smooth="yes"/>
			<point x="92" y="170"/>
			<point x="96" y="176"/>
			<point x="126" y="188" type="curve" smooth="yes"/>
			<point x="414" y="304" type="line"/>
			<point x="448" y="254"/>
			<point x="470" y="194"/>
			<point x="479" y="127" type="curve"/>
			<point x="202" y="14" type="line" smooth="yes"/>
			<point x="167" y="0"/>
			<point x="158" y="1"/>
			<point x="147" y="19" type="curve" smooth="yes"/>
			<point x="121" y="61" type="line"/>
			<point x="98" y="52" type="line"/>
			<point x="171" y="-131" type="line"/>
			<point x="195" y="-122" type="line"/>
			<point x="185" y="-74" type="line" smooth="yes"/>
			<point x="181" y="-51"/>
			<point x="185" y="-45"/>
			<point x="215" y="-34" type="curve" smooth="yes"/>
			<point x="484" y="74" type="line"/>
			<point x="484" y="-36"/>
			<point x="466" y="-130"/>
			<point x="421" y="-238" type="curve"/>
			<point x="472" y="-247" type="line"/>
			<point x="512" y="-150"/>
			<point x="535" y="-37"/>
			<point x="535" y="62" type="curve" smooth="yes"/>
			<point x="535" y="295"/>
			<point x="406" y="459"/>
		</contour>
	</outline>
</glyph>
<glyph name="Dje-cy" format="2">
	<unicode hex="0402"/>
	<advance width="828"/>
	<outline>
		<contour>
			<point x="577" y="-109" type="line"/>
			<point x="715" y="-12"/>
			<point x="783" y="107"/>
			<point x="783" y="236" type="curve" smooth="yes"/>
			<point x="783" y="376"/>
			<point x="690" y="442"/>
			<point x="570" y="442" type="curve" smooth="yes"/>
			<point x="480" y="442"/>
			<point x="412" y="413"/>
			<point x="359" y="379" type="curve"/>
			<point x="359" y="714" type="line"/>
			<point x="483" y="714" type="line" smooth="yes"/>
			<point x="575" y="714"/>
			<point x="617" y="667"/>
			<point x="656" y="538" type="curve"/>
			<point x="671" y="542" type="line"/>
			<point x="646" y="730" type="line"/>
			<point x="54" y="730" type="line"/>
			<point x="25" y="521" type="line"/>
			<point x="39" y="517" type="line"/>
			<point x="79" y="658"/>
			<point x="123" y="714"/>
			<point x="222" y="714" type="curve" smooth="yes"/>
			<point x="260" y="714" type="line"/>
			<point x="260" y="66" type="line" smooth="yes"/>
			<point x="260" y="29"/>
			<point x="254" y="16"/>
			<point x="229" y="15" type="curve" smooth="yes"/>
			<point x="172" y="12" type="line"/>
			<point x="172" y="0" type="line"/>
			<point x="447" y="0" type="line"/>
			<point x="447" y="12" type="line"/>
			<point x="392" y="15" type="line" smooth="yes"/>
			<point x="365" y="16"/>
			<point x="359" y="28"/>
			<point x="359" y="62" type="curve" smooth="yes"/>
			<point x="359" y="358" type="line"/>
			<point x="408" y="395"/>
			<point x="469" y="416"/>
			<point x="526" y="416" type="curve" smooth="yes"/>
			<point x="622" y="416"/>
			<point x="684" y="354"/>
			<point x="684" y="222" type="curve" smooth="yes"/>
			<point x="684" y="105"/>
			<point x="653" y="-3"/>
			<point x="572" y="-100" type="curve"/>
		</contour>
	</outline>
</glyph>
<glyph name="Ge-cy" format="2">
	<unicode hex="0413"/>
	<advance width="575"/>
	<outline>
		<contour>
			<point x="59" y="0" type="line"/>
			<point x="336" y="0" type="line"/>
			<point x="336" y="12" type="line"/>
			<point x="279" y="16" type="line" smooth="yes"/>
			<point x="253" y="18"/>
			<point x="247" y="29"/>
			<point x="247" y="63" type="curve"/>
			<point x="247" y="714" type="line"/>
			<point x="374" y="714" type="line" smooth="yes"/>
			<point x="472" y="714"/>
			<point x="507" y="671"/>
			<point x="550" y="528" type="curve"/>
			<point x="565" y="532" type="line"/>
			<point x="539" y="730" type="line"/>
			<point x="59" y="730" type="line"/>
			<point x="59" y="718" type="line"/>
			<point x="115" y="715" type="line" smooth="yes"/>
			<point x="142" y="714"/>
			<point x="148" y="702"/>
			<point x="148" y="668" type="curve" smooth="yes"/>
			<point x="148" y="67" type="line" smooth="yes"/>
			<point x="148" y="30"/>
			<point x="142" y="18"/>
			<point x="117" y="16" type="curve" smooth="yes"/>
			<point x="59" y="12" type="line"/>
		</contour>
	</outline>
	<anchor name="top" x="326" y="730"/>
</glyph>
<glyph name="De-cy" format="2">
	<unicode hex="0414"/>
	<advance width="720"/>
	<outline>
		<contour>
			<point x="5" y="-166" type="line"/>
			<point x="20" y="-166" type="line"/>
			<point x="29" y="-104" type="line" smooth="yes"/>
			<point x="40" y="-29"/>
			<point x="67" y="0"/>
			<point x="157" y="0" type="curve" smooth="yes"/>
			<point x="523" y="0" type="line" smooth="yes"/>
			<point x="607" y="0"/>
			<point x="644" y="-26"/>
			<point x="653" y="-104" type="curve" smooth="yes"/>
			<point x="660" y="-166" type="line"/>
			<point x="675" y="-166" type="line"/>
			<point x="675" y="17" type="line"/>
			<point x="571" y="17" type="line"/>
			<point x="571" y="664" type="line" smooth="yes"/>
			<point x="571" y="701"/>
			<point x="577" y="714"/>
			<point x="602" y="715" type="curve" smooth="yes"/>
			<point x="659" y="718" type="line"/>
			<point x="659" y="730" type="line"/>
			<point x="113" y="730" type="line"/>
			<point x="113" y="718" type="line"/>
			<point x="148" y="716" type="line" smooth="yes"/>
			<point x="186" y="714"/>
			<point x="202" y="685"/>
			<point x="202" y="638" type="curve" smooth="yes"/>
			<point x="202" y="498"/>
			<point x="201" y="198"/>
			<point x="101" y="17" type="curve"/>
			<point x="5" y="17" type="line"/>
		</contour>
		<contour>
			<point x="126" y="17" type="line"/>
			<point x="175" y="125"/>
			<point x="197" y="223"/>
			<point x="212" y="361" type="curve" smooth="yes"/>
			<point x="221" y="442"/>
			<point x="224" y="598"/>
			<point x="224" y="714" type="curve"/>
			<point x="472" y="714" type="line"/>
			<point x="472" y="17" type="line"/>
		</contour>
	</outline>
	<guideline x="29" y="-104" angle="0"/>
</glyph>
<glyph name="El-cy" format="2">
	<unicode hex="041B"/>
	<advance width="732"/>
	<outline>
		<contour>
			<point x="70" y="-13" type="curve" smooth="yes"/>
			<point x="139" y="-13"/>
			<point x="204" y="99"/>
			<point x="227" y="354" type="curve" smooth="yes"/>
			<point x="233" y="426"/>
			<point x="241" y="628"/>
			<point x="241" y="714" type="curve"/>
			<point x="486" y="714" type="line"/>
			<point x="486" y="67" type="line" smooth="yes"/>
			<point x="486" y="30"/>
			<point x="480" y="18"/>
			<point x="455" y="16" type="curve" smooth="yes"/>
			<point x="398" y="12" type="line"/>
			<point x="398" y="0" type="line"/>
			<point x="673" y="0" type="line"/>
			<point x="673" y="12" type="line"/>
			<point x="618" y="16" type="line" smooth="yes"/>
			<point x="591" y="18"/>
			<point x="585" y="29"/>
			<point x="585" y="63" type="curve" smooth="yes"/>
			<point x="585" y="664" type="line" smooth="yes"/>
			<point x="585" y="701"/>
			<point x="591" y="714"/>
			<point x="616" y="715" type="curve" smooth="yes"/>
			<point x="673" y="718" type="line"/>
			<point x="673" y="730" type="line"/>
			<point x="128" y="730" type="line"/>
			<point x="128" y="718" type="line"/>
			<point x="184" y="715" type="line" smooth="yes"/>
			<point x="213" y="713"/>
			<point x="217" y="699"/>
			<point x="217" y="668" type="curve" smooth="yes"/>
			<point x="217" y="452"/>
			<point x="200" y="181"/>
			<point x="138" y="75" type="curve"/>
			<point x="112" y="111"/>
			<point x="91" y="117"/>
			<point x="68" y="117" type="curve" smooth="yes"/>
			<point x="33" y="117"/>
			<point x="5" y="88"/>
			<point x="5" y="52" type="curve" smooth="yes"/>
			<point x="5" y="14"/>
			<point x="34" y="-13"/>
		</contour>
	</outline>
</glyph>
<glyph name="Ef-cy" format="2">
	<unicode hex="0424"/>
	<advance width="808"/>
	<outline>
		<contour>
			<point x="268" y="-17" type="line"/>
			<point x="545" y="-17" type="line"/>
			<point x="545" y="-5" type="line"/>
			<point x="488" y="-1" type="line" smooth="yes"/>
			<point x="462" y="1"/>
			<point x="456" y="12"/>
			<point x="456" y="46" type="curve" smooth="yes"/>
			<point x="456" y="107" type="line"/>
			<point x="466" y="106"/>
			<point x="486" y="105"/>
			<point x="494" y="105" type="curve" smooth="yes"/>
			<point x="671" y="105"/>
			<point x="768" y="225"/>
			<point x="768" y="371" type="curve" smooth="yes"/>
			<point x="768" y="514"/>
			<point x="671" y="615"/>
			<point x="502" y="615" type="curve" smooth="yes"/>
			<point x="490" y="615"/>
			<point x="478" y="614"/>
			<point x="456" y="613" type="curve"/>
			<point x="456" y="678" type="line" smooth="yes"/>
			<point x="456" y="714"/>
			<point x="462" y="728"/>
			<point x="486" y="729" type="curve" smooth="yes"/>
			<point x="545" y="732" type="line"/>
			<point x="545" y="744" type="line"/>
			<point x="268" y="744" type="line"/>
			<point x="268" y="732" type="line"/>
			<point x="324" y="729" type="line" smooth="yes"/>
			<point x="351" y="728"/>
			<point x="357" y="716"/>
			<point x="357" y="682" type="curve" smooth="yes"/>
			<point x="357" y="614" type="line"/>
			<point x="344" y="615"/>
			<point x="321" y="615"/>
			<point x="304" y="615" type="curve" smooth="yes"/>
			<point x="143" y="615"/>
			<point x="40" y="513"/>
			<point x="40" y="363" type="curve" smooth="yes"/>
			<point x="40" y="225"/>
			<point x="126" y="104"/>
			<point x="310" y="104" type="curve" smooth="yes"/>
			<point x="320" y="104"/>
			<point x="343" y="105"/>
			<point x="357" y="107" type="curve"/>
			<point x="357" y="50" type="line" smooth="yes"/>
			<point x="357" y="13"/>
			<point x="351" y="1"/>
			<point x="326" y="-1" type="curve" smooth="yes"/>
			<point x="268" y="-5" type="line"/>
		</contour>
		<contour>
			<point x="326" y="118" type="curve" smooth="yes"/>
			<point x="207" y="118"/>
			<point x="141" y="223"/>
			<point x="141" y="358" type="curve" smooth="yes"/>
			<point x="141" y="510"/>
			<point x="209" y="602"/>
			<point x="316" y="602" type="curve" smooth="yes"/>
			<point x="329" y="602"/>
			<point x="349" y="602"/>
			<point x="357" y="601" type="curve"/>
			<point x="357" y="119" type="line"/>
			<point x="350" y="118"/>
			<point x="336" y="118"/>
		</contour>
		<contour>
			<point x="486" y="118" type="curve" smooth="yes"/>
			<point x="479" y="118"/>
			<point x="463" y="118"/>
			<point x="456" y="119" type="curve"/>
			<point x="456" y="600" type="line"/>
			<point x="464" y="601"/>
			<point x="481" y="602"/>
			<point x="489" y="602" type="curve" smooth="yes"/>
			<point x="601" y="602"/>
			<point x="667" y="530"/>
			<point x="667" y="361" type="curve" smooth="yes"/>
			<point x="667" y="226"/>
			<point x="605" y="118"/>
		</contour>
	</outline>
	<guideline x="1019" y="0" angle="0"/>
	<guideline x="1049" y="734" angle="0"/>
	<guideline x="357" y="611" angle="359.4213"/>
</glyph>
<glyph name="Sha-cy" format="2">
	<unicode hex="0428"/>
	<advance width="1158"/>
	<outline>
		<contour>
			<point x="62" y="0" type="line"/>
			<point x="1090" y="0" type="line"/>
			<point x="1090" y="12" type="line"/>
			<point x="1035" y="16" type="line" smooth="yes"/>
			<point x="1008" y="18"/>
			<point x="1002" y="29"/>
			<point x="1002" y="63" type="curve" smooth="yes"/>
			<point x="1002" y="664" type="line" smooth="yes"/>
			<point x="1002" y="701"/>
			<point x="1008" y="714"/>
			<point x="1033" y="715" type="curve" smooth="yes"/>
			<point x="1090" y="718" type="line"/>
			<point x="1090" y="730" type="line"/>
			<point x="815" y="730" type="line"/>
			<point x="815" y="718" type="line"/>
			<point x="870" y="715" type="line" smooth="yes"/>
			<point x="897" y="714"/>
			<point x="903" y="702"/>
			<point x="903" y="668" type="curve" smooth="yes"/>
			<point x="903" y="16" type="line"/>
			<point x="626" y="16" type="line"/>
			<point x="626" y="664" type="line" smooth="yes"/>
			<point x="626" y="701"/>
			<point x="632" y="714"/>
			<point x="657" y="715" type="curve" smooth="yes"/>
			<point x="714" y="718" type="line"/>
			<point x="714" y="730" type="line"/>
			<point x="439" y="730" type="line"/>
			<point x="439" y="718" type="line"/>
			<point x="494" y="715" type="line" smooth="yes"/>
			<point x="521" y="714"/>
			<point x="527" y="702"/>
			<point x="527" y="668" type="curve" smooth="yes"/>
			<point x="527" y="16" type="line"/>
			<point x="250" y="16" type="line"/>
			<point x="250" y="664" type="line" smooth="yes"/>
			<point x="250" y="700"/>
			<point x="256" y="714"/>
			<point x="280" y="715" type="curve" smooth="yes"/>
			<point x="338" y="718" type="line"/>
			<point x="338" y="730" type="line"/>
			<point x="62" y="730" type="line"/>
			<point x="62" y="718" type="line"/>
			<point x="118" y="715" type="line" smooth="yes"/>
			<point x="145" y="714"/>
			<point x="151" y="702"/>
			<point x="151" y="668" type="curve" smooth="yes"/>
			<point x="151" y="67" type="line" smooth="yes"/>
			<point x="151" y="30"/>
			<point x="145" y="18"/>
			<point x="120" y="16" type="curve" smooth="yes"/>
			<point x="62" y="12" type="line"/>
		</contour>
	</outline>
</glyph>
<glyph name="Shcha-cy" format="2">
	<unicode hex="0429"/>
	<advance width="1160"/>
	<outline>
		<contour>
			<point x="1100" y="-166" type="line"/>
			<point x="1115" y="-162" type="line"/>
			<point x="1115" y="16" type="line"/>
			<point x="1001" y="16" type="line"/>
			<point x="1001" y="664" type="line" smooth="yes"/>
			<point x="1001" y="701"/>
			<point x="1007" y="714"/>
			<point x="1032" y="715" type="curve" smooth="yes"/>
			<point x="1089" y="718" type="line"/>
			<point x="1089" y="730" type="line"/>
			<point x="814" y="730" type="line"/>
			<point x="814" y="718" type="line"/>
			<point x="869" y="715" type="line" smooth="yes"/>
			<point x="896" y="714"/>
			<point x="902" y="702"/>
			<point x="902" y="668" type="curve" smooth="yes"/>
			<point x="902" y="16" type="line"/>
			<point x="625" y="16" type="line"/>
			<point x="625" y="664" type="line" smooth="yes"/>
			<point x="625" y="701"/>
			<point x="631" y="714"/>
			<point x="656" y="715" type="curve" smooth="yes"/>
			<point x="713" y="718" type="line"/>
			<point x="713" y="730" type="line"/>
			<point x="438" y="730" type="line"/>
			<point x="438" y="718" type="line"/>
			<point x="493" y="715" type="line" smooth="yes"/>
			<point x="520" y="714"/>
			<point x="526" y="702"/>
			<point x="526" y="668" type="curve" smooth="yes"/>
			<point x="526" y="16" type="line"/>
			<point x="249" y="16" type="line"/>
			<point x="249" y="664" type="line" smooth="yes"/>
			<point x="249" y="700"/>
			<point x="255" y="714"/>
			<point x="279" y="715" type="curve" smooth="yes"/>
			<point x="337" y="718" type="line"/>
			<point x="337" y="730" type="line"/>
			<point x="61" y="730" type="line"/>
			<point x="61" y="718" type="line"/>
			<point x="117" y="715" type="line" smooth="yes"/>
			<point x="144" y="714"/>
			<point x="150" y="702"/>
			<point x="150" y="668" type="curve" smooth="yes"/>
			<point x="150" y="67" type="line" smooth="yes"/>
			<point x="150" y="30"/>
			<point x="144" y="18"/>
			<point x="119" y="16" type="curve" smooth="yes"/>
			<point x="61" y="12" type="line"/>
			<point x="61" y="0" type="line"/>
			<point x="953" y="0" type="line" smooth="yes"/>
			<point x="1032" y="0"/>
			<point x="1075" y="-23"/>
			<point x="1088" y="-93" type="curve"/>
		</contour>
	</outline>
</glyph>
<glyph name="Ereversed-cy" format="2">
	<unicode hex="042D"/>
	<advance width="662"/>
	<outline>
		<contour>
			<point x="282" y="-14" type="curve" smooth="yes"/>
			<point x="489" y="-14"/>
			<point x="609" y="140"/>
			<point x="609" y="383" type="curve" smooth="yes"/>
			<point x="609" y="606"/>
			<point x="486" y="744"/>
			<point x="303" y="744" type="curve" smooth="yes"/>
			<point x="228" y="744"/>
			<point x="158" y="714"/>
			<point x="113" y="655" type="curve"/>
			<point x="76" y="740" type="line"/>
			<point x="62" y="740" type="line"/>
			<point x="80" y="509" type="line"/>
			<point x="95" y="510" type="line"/>
			<point x="107" y="676"/>
			<point x="201" y="727"/>
			<point x="286" y="727" type="curve" smooth="yes"/>
			<point x="412" y="727"/>
			<point x="500" y="625"/>
			<point x="500" y="369" type="curve"/>
			<point x="151" y="369" type="line"/>
			<point x="151" y="353" type="line"/>
			<point x="500" y="353" type="line"/>
			<point x="500" y="128"/>
			<point x="409" y="8"/>
			<point x="273" y="8" type="curve" smooth="yes"/>
			<point x="174" y="8"/>
			<point x="81" y="68"/>
			<point x="61" y="179" type="curve"/>
			<point x="46" y="175" type="line"/>
			<point x="64" y="58"/>
			<point x="163" y="-14"/>
		</contour>
	</outline>
	<anchor name="top" x="308" y="730"/>
</glyph>
<glyph name="Iu-cy" format="2">
	<unicode hex="042E"/>
	<advance width="1099"/>
	<outline>
		<contour>
			<point x="732" y="-14" type="curve" smooth="yes"/>
			<point x="917" y="-14"/>
			<point x="1046" y="140"/>
			<point x="1046" y="383" type="curve" smooth="yes"/>
			<point x="1046" y="606"/>
			<point x="923" y="744"/>
			<point x="741" y="744" type="curve" smooth="yes"/>
			<point x="554" y="744"/>
			<point x="431" y="608"/>
			<point x="422" y="379" type="curve"/>
			<point x="247" y="379" type="line"/>
			<point x="247" y="664" type="line" smooth="yes"/>
			<point x="247" y="700"/>
			<point x="253" y="714"/>
			<point x="277" y="715" type="curve" smooth="yes"/>
			<point x="335" y="718" type="line"/>
			<point x="335" y="730" type="line"/>
			<point x="59" y="730" type="line"/>
			<point x="59" y="718" type="line"/>
			<point x="115" y="715" type="line" smooth="yes"/>
			<point x="142" y="714"/>
			<point x="148" y="702"/>
			<point x="148" y="668" type="curve" smooth="yes"/>
			<point x="148" y="67" type="line" smooth="yes"/>
			<point x="148" y="30"/>
			<point x="142" y="18"/>
			<point x="117" y="16" type="curve" smooth="yes"/>
			<point x="59" y="12" type="line"/>
			<point x="59" y="0" type="line"/>
			<point x="335" y="0" type="line"/>
			<point x="335" y="12" type="line"/>
			<point x="279" y="16" type="line" smooth="yes"/>
			<point x="253" y="18"/>
			<point x="247" y="29"/>
			<point x="247" y="63" type="curve" smooth="yes"/>
			<point x="247" y="363" type="line"/>
			<point x="421" y="363" type="line"/>
			<point x="424" y="128"/>
			<point x="541" y="-14"/>
		</contour>
		<contour>
			<point x="746" y="3" type="curve" smooth="yes"/>
			<point x="617" y="3"/>
			<point x="527" y="123"/>
			<point x="527" y="375" type="curve" smooth="yes"/>
			<point x="527" y="627"/>
			<point x="597" y="729"/>
			<point x="726" y="729" type="curve" smooth="yes"/>
			<point x="855" y="729"/>
			<point x="937" y="615"/>
			<point x="937" y="361" type="curve" smooth="yes"/>
			<point x="937" y="103"/>
			<point x="870" y="3"/>
		</contour>
	</outline>
	<anchor name="top" x="735" y="730"/>
</glyph>
<glyph name="Ia-cy" format="2">
	<unicode hex="042F"/>
	<advance width="700"/>
	<outline>
		<contour>
			<point x="101" y="-14" type="curve" smooth="yes"/>
			<point x="169" y="-14"/>
			<point x="207" y="20"/>
			<point x="243" y="136" type="curve" smooth="yes"/>
			<point x="284" y="268"/>
			<point x="320" y="315"/>
			<point x="370" y="325" type="curve" smooth="yes"/>
			<point x="409" y="333"/>
			<point x="439" y="331"/>
			<point x="452" y="330" type="curve"/>
			<point x="453" y="65" type="line" smooth="yes"/>
			<point x="453" y="29"/>
			<point x="445" y="16"/>
			<point x="416" y="15" type="curve" smooth="yes"/>
			<point x="346" y="12" type="line"/>
			<point x="346" y="0" type="line"/>
			<point x="641" y="0" type="line"/>
			<point x="641" y="12" type="line"/>
			<point x="583" y="16" type="line" smooth="yes"/>
			<point x="558" y="18"/>
			<point x="552" y="30"/>
			<point x="552" y="67" type="curve" smooth="yes"/>
			<point x="552" y="668" type="line" smooth="yes"/>
			<point x="552" y="702"/>
			<point x="558" y="714"/>
			<point x="585" y="715" type="curve" smooth="yes"/>
			<point x="641" y="718" type="line"/>
			<point x="641" y="730" type="line"/>
			<point x="390" y="730" type="line" smooth="yes"/>
			<point x="232" y="730"/>
			<point x="125" y="654"/>
			<point x="125" y="532" type="curve" smooth="yes"/>
			<point x="125" y="436"/>
			<point x="202" y="354"/>
			<point x="339" y="336" type="curve"/>
			<point x="339" y="333" type="line"/>
			<point x="240" y="307"/>
			<point x="194" y="270"/>
			<point x="157" y="176" type="curve" smooth="yes"/>
			<point x="116" y="70"/>
			<point x="95" y="21"/>
			<point x="55" y="21" type="curve" smooth="yes"/>
			<point x="35" y="21"/>
			<point x="19" y="24"/>
			<point x="6" y="33" type="curve"/>
			<point x="0" y="26" type="line"/>
			<point x="28" y="-1"/>
			<point x="61" y="-14"/>
		</contour>
		<contour>
			<point x="396" y="349" type="curve" smooth="yes"/>
			<point x="289" y="349"/>
			<point x="232" y="431"/>
			<point x="232" y="527" type="curve" smooth="yes"/>
			<point x="232" y="641"/>
			<point x="280" y="714"/>
			<point x="397" y="714" type="curve" smooth="yes"/>
			<point x="453" y="714" type="line"/>
			<point x="452" y="350" type="line"/>
			<point x="427" y="349"/>
			<point x="410" y="349"/>
		</contour>
	</outline>
	<anchor name="top" x="396" y="730"/>
</glyph>
<glyph name="ve-cy" format="2">
	<unicode hex="0432"/>
	<advance width="546"/>
	<outline>
		<contour>
			<point x="50" y="0" type="line"/>
			<point x="282" y="0" type="line" smooth="yes"/>
			<point x="431" y="0"/>
			<point x="511" y="51"/>
			<point x="511" y="144" type="curve" smooth="yes"/>
			<point x="511" y="212"/>
			<point x="452" y="264"/>
			<point x="345" y="268" type="curve"/>
			<point x="345" y="269" type="line"/>
			<point x="420" y="277"/>
			<point x="482" y="325"/>
			<point x="482" y="396" type="curve" smooth="yes"/>
			<point x="482" y="478"/>
			<point x="406" y="513"/>
			<point x="288" y="513" type="curve" smooth="yes"/>
			<point x="50" y="513" type="line"/>
			<point x="50" y="501" type="line"/>
			<point x="98" y="495" type="line" smooth="yes"/>
			<point x="119" y="492"/>
			<point x="124" y="482"/>
			<point x="124" y="447" type="curve" smooth="yes"/>
			<point x="124" y="66" type="line" smooth="yes"/>
			<point x="124" y="31"/>
			<point x="119" y="21"/>
			<point x="98" y="18" type="curve" smooth="yes"/>
			<point x="50" y="12" type="line"/>
		</contour>
		<contour>
			<point x="288" y="16" type="curve" smooth="yes"/>
			<point x="265" y="16"/>
			<point x="243" y="17"/>
			<point x="217" y="21" type="curve"/>
			<point x="217" y="258" type="line"/>
			<point x="289" y="258" type="line" smooth="yes"/>
			<point x="355" y="258"/>
			<point x="412" y="228"/>
			<point x="412" y="144" type="curve" smooth="yes"/>
			<point x="412" y="45"/>
			<point x="346" y="16"/>
		</contour>
		<contour>
			<point x="217" y="274" type="line"/>
			<point x="217" y="494" type="line"/>
			<point x="228" y="495"/>
			<point x="250" y="497"/>
			<point x="275" y="497" type="curve" smooth="yes"/>
			<point x="340" y="497"/>
			<point x="383" y="463"/>
			<point x="383" y="390" type="curve" smooth="yes"/>
			<point x="383" y="306"/>
			<point x="338" y="274"/>
			<point x="282" y="274" type="curve" smooth="yes"/>
		</contour>
	</outline>
</glyph>
<glyph name="ge-cy" format="2">
	<unicode hex="0433"/>
	<advance width="491"/>
	<outline>
		<contour>
			<point x="50" y="0" type="line"/>
			<point x="325" y="0" type="line"/>
			<point x="325" y="11" type="line"/>
			<point x="245" y="19" type="line" smooth="yes"/>
			<point x="222" y="21"/>
			<point x="217" y="31"/>
			<point x="217" y="62" type="curve" smooth="yes"/>
			<point x="217" y="497" type="line"/>
			<point x="296" y="497" type="line" smooth="yes"/>
			<point x="373" y="497"/>
			<point x="403" y="465"/>
			<point x="426" y="390" type="curve" smooth="yes"/>
			<point x="446" y="325" type="line"/>
			<point x="461" y="329" type="line"/>
			<point x="435" y="513" type="line"/>
			<point x="50" y="513" type="line"/>
			<point x="50" y="501" type="line"/>
			<point x="98" y="495" type="line" smooth="yes"/>
			<point x="119" y="492"/>
			<point x="124" y="482"/>
			<point x="124" y="447" type="curve" smooth="yes"/>
			<point x="124" y="66" type="line" smooth="yes"/>
			<point x="124" y="31"/>
			<point x="119" y="21"/>
			<point x="98" y="18" type="curve" smooth="yes"/>
			<point x="50" y="12" type="line"/>
		</contour>
	</outline>
	<anchor name="top" x="265" y="550"/>
</glyph>
<glyph name="ze-cy" format="2">
	<unicode hex="0437"/>
	<advance width="482"/>
	<outline>
		<contour>
			<point x="225" y="-13" type="curve" smooth="yes"/>
			<point x="367" y="-13"/>
			<point x="447" y="51"/>
			<point x="447" y="138" type="curve" smooth="yes"/>
			<point x="447" y="222"/>
			<point x="370" y="259"/>
			<point x="277" y="267" type="curve"/>
			<point x="277" y="268" type="line"/>
			<point x="356" y="277"/>
			<point x="418" y="335"/>
			<point x="418" y="404" type="curve" smooth="yes"/>
			<point x="418" y="480"/>
			<point x="351" y="527"/>
			<point x="245" y="527" type="curve" smooth="yes"/>
			<point x="181" y="527"/>
			<point x="130" y="501"/>
			<point x="101" y="464" type="curve"/>
			<point x="81" y="521" type="line"/>
			<point x="66" y="521" type="line"/>
			<point x="80" y="337" type="line"/>
			<point x="96" y="337" type="line"/>
			<point x="95" y="436"/>
			<point x="134" y="506"/>
			<point x="217" y="506" type="curve" smooth="yes"/>
			<point x="281" y="506"/>
			<point x="319" y="463"/>
			<point x="319" y="395" type="curve" smooth="yes"/>
			<point x="319" y="305"/>
			<point x="270" y="274"/>
			<point x="211" y="274" type="curve" smooth="yes"/>
			<point x="158" y="274" type="line"/>
			<point x="158" y="258" type="line"/>
			<point x="218" y="258" type="line" smooth="yes"/>
			<point x="294" y="258"/>
			<point x="348" y="228"/>
			<point x="348" y="144" type="curve" smooth="yes"/>
			<point x="348" y="45"/>
			<point x="280" y="3"/>
			<point x="220" y="3" type="curve" smooth="yes"/>
			<point x="175" y="3"/>
			<point x="148" y="13"/>
			<point x="121" y="31" type="curve"/>
			<point x="147" y="65"/>
			<point x="164" y="100"/>
			<point x="164" y="120" type="curve" smooth="yes"/>
			<point x="164" y="150"/>
			<point x="145" y="169"/>
			<point x="108" y="169" type="curve" smooth="yes"/>
			<point x="68" y="169"/>
			<point x="50" y="144"/>
			<point x="50" y="104" type="curve" smooth="yes"/>
			<point x="50" y="46"/>
			<point x="119" y="-13"/>
		</contour>
	</outline>
</glyph>
<glyph name="ii-cy" format="2">
	<unicode hex="0438"/>
	<advance width="671"/>
	<outline>
		<contour>
			<point x="50" y="0" type="line"/>
			<point x="295" y="0" type="line"/>
			<point x="295" y="11" type="line"/>
			<point x="242" y="19" type="line" smooth="yes"/>
			<point x="222" y="22"/>
			<point x="217" y="31"/>
			<point x="217" y="62" type="curve" smooth="yes"/>
			<point x="217" y="89" type="line"/>
			<point x="455" y="405" type="line"/>
			<point x="455" y="58" type="line" smooth="yes"/>
			<point x="455" y="28"/>
			<point x="450" y="19"/>
			<point x="425" y="16" type="curve" smooth="yes"/>
			<point x="381" y="11" type="line"/>
			<point x="381" y="0" type="line"/>
			<point x="626" y="0" type="line"/>
			<point x="626" y="12" type="line"/>
			<point x="579" y="17" type="line" smooth="yes"/>
			<point x="553" y="20"/>
			<point x="548" y="28"/>
			<point x="548" y="58" type="curve" smooth="yes"/>
			<point x="548" y="455" type="line" smooth="yes"/>
			<point x="548" y="485"/>
			<point x="553" y="493"/>
			<point x="579" y="496" type="curve" smooth="yes"/>
			<point x="626" y="501" type="line"/>
			<point x="626" y="513" type="line"/>
			<point x="381" y="513" type="line"/>
			<point x="381" y="502" type="line"/>
			<point x="425" y="497" type="line" smooth="yes"/>
			<point x="450" y="494"/>
			<point x="455" y="485"/>
			<point x="455" y="455" type="curve" smooth="yes"/>
			<point x="455" y="431" type="line"/>
			<point x="217" y="116" type="line"/>
			<point x="217" y="451" type="line" smooth="yes"/>
			<point x="217" y="482"/>
			<point x="222" y="491"/>
			<point x="242" y="494" type="curve" smooth="yes"/>
			<point x="295" y="502" type="line"/>
			<point x="295" y="513" type="line"/>
			<point x="50" y="513" type="line"/>
			<point x="50" y="501" type="line"/>
			<point x="98" y="495" type="line" smooth="yes"/>
			<point x="119" y="492"/>
			<point x="124" y="482"/>
			<point x="124" y="447" type="curve" smooth="yes"/>
			<point x="124" y="66" type="line" smooth="yes"/>
			<point x="124" y="31"/>
			<point x="119" y="21"/>
			<point x="98" y="18" type="curve" smooth="yes"/>
			<point x="50" y="12" type="line"/>
		</contour>
	</outline>
	<anchor name="top" x="339" y="550"/>
</glyph>
<glyph name="em-cy" format="2">
	<unicode hex="043C"/>
	<advance width="762"/>
	<outline>
		<contour>
			<point x="50" y="0" type="line"/>
			<point x="222" y="0" type="line"/>
			<point x="222" y="11" type="line"/>
			<point x="169" y="19" type="line" smooth="yes"/>
			<point x="149" y="22"/>
			<point x="144" y="31"/>
			<point x="144" y="62" type="curve" smooth="yes"/>
			<point x="144" y="470" type="line"/>
			<point x="146" y="470" type="line"/>
			<point x="326" y="96" type="line"/>
			<point x="373" y="101" type="line"/>
			<point x="543" y="474" type="line"/>
			<point x="546" y="474" type="line"/>
			<point x="546" y="58" type="line" smooth="yes"/>
			<point x="546" y="28"/>
			<point x="541" y="19"/>
			<point x="516" y="16" type="curve" smooth="yes"/>
			<point x="472" y="11" type="line"/>
			<point x="472" y="0" type="line"/>
			<point x="717" y="0" type="line"/>
			<point x="717" y="12" type="line"/>
			<point x="670" y="17" type="line" smooth="yes"/>
			<point x="644" y="20"/>
			<point x="639" y="28"/>
			<point x="639" y="58" type="curve" smooth="yes"/>
			<point x="639" y="455" type="line" smooth="yes"/>
			<point x="639" y="485"/>
			<point x="644" y="493"/>
			<point x="670" y="496" type="curve" smooth="yes"/>
			<point x="717" y="501" type="line"/>
			<point x="717" y="513" type="line"/>
			<point x="539" y="513" type="line"/>
			<point x="399" y="207" type="line"/>
			<point x="384" y="176" type="line"/>
			<point x="222" y="513" type="line"/>
			<point x="50" y="513" type="line"/>
			<point x="50" y="501" type="line"/>
			<point x="98" y="495" type="line" smooth="yes"/>
			<point x="119" y="492"/>
			<point x="124" y="482"/>
			<point x="124" y="447" type="curve" smooth="yes"/>
			<point x="124" y="66" type="line" smooth="yes"/>
			<point x="124" y="31"/>
			<point x="119" y="21"/>
			<point x="98" y="18" type="curve" smooth="yes"/>
			<point x="50" y="12" type="line"/>
		</contour>
	</outline>
	<guideline x="546" y="475" angle="0"/>
</glyph>
<glyph name="te-cy" format="2">
	<unicode hex="0442"/>
	<advance width="563"/>
	<outline>
		<contour>
			<point x="156" y="0" type="line"/>
			<point x="411" y="0" type="line"/>
			<point x="411" y="11" type="line"/>
			<point x="353" y="19" type="line" smooth="yes"/>
			<point x="333" y="22"/>
			<point x="328" y="31"/>
			<point x="328" y="62" type="curve" smooth="yes"/>
			<point x="328" y="497" type="line"/>
			<point x="366" y="497" type="line" smooth="yes"/>
			<point x="455" y="497"/>
			<point x="486" y="456"/>
			<point x="507" y="380" type="curve" smooth="yes"/>
			<point x="522" y="326" type="line"/>
			<point x="538" y="330" type="line"/>
			<point x="511" y="513" type="line"/>
			<point x="52" y="513" type="line"/>
			<point x="25" y="330" type="line"/>
			<point x="41" y="326" type="line"/>
			<point x="56" y="380" type="line" smooth="yes"/>
			<point x="77" y="456"/>
			<point x="108" y="497"/>
			<point x="195" y="497" type="curve" smooth="yes"/>
			<point x="235" y="497" type="line"/>
			<point x="235" y="66" type="line" smooth="yes"/>
			<point x="235" y="31"/>
			<point x="230" y="20"/>
			<point x="209" y="18" type="curve" smooth="yes"/>
			<point x="156" y="12" type="line"/>
		</contour>
	</outline>
	<guideline x="631" y="513" angle="0"/>
</glyph>
<glyph name="shcha-cy" format="2">
	<unicode hex="0449"/>
	<advance width="980"/>
	<outline>
		<contour>
			<point x="925" y="-147" type="line"/>
			<point x="940" y="-143" type="line"/>
			<point x="940" y="16" type="line"/>
			<point x="839" y="16" type="line"/>
			<point x="839" y="455" type="line" smooth="yes"/>
			<point x="839" y="485"/>
			<point x="844" y="493"/>
			<point x="870" y="496" type="curve" smooth="yes"/>
			<point x="917" y="501" type="line"/>
			<point x="917" y="513" type="line"/>
			<point x="672" y="513" type="line"/>
			<point x="672" y="502" type="line"/>
			<point x="716" y="497" type="line" smooth="yes"/>
			<point x="741" y="494"/>
			<point x="746" y="485"/>
			<point x="746" y="455" type="curve" smooth="yes"/>
			<point x="746" y="16" type="line"/>
			<point x="528" y="16" type="line"/>
			<point x="528" y="455" type="line" smooth="yes"/>
			<point x="528" y="485"/>
			<point x="533" y="493"/>
			<point x="559" y="496" type="curve" smooth="yes"/>
			<point x="606" y="501" type="line"/>
			<point x="606" y="513" type="line"/>
			<point x="361" y="513" type="line"/>
			<point x="361" y="502" type="line"/>
			<point x="405" y="497" type="line" smooth="yes"/>
			<point x="430" y="494"/>
			<point x="435" y="485"/>
			<point x="435" y="455" type="curve" smooth="yes"/>
			<point x="435" y="16" type="line"/>
			<point x="217" y="16" type="line"/>
			<point x="217" y="451" type="line" smooth="yes"/>
			<point x="217" y="482"/>
			<point x="222" y="491"/>
			<point x="242" y="494" type="curve" smooth="yes"/>
			<point x="295" y="502" type="line"/>
			<point x="295" y="513" type="line"/>
			<point x="50" y="513" type="line"/>
			<point x="50" y="501" type="line"/>
			<point x="98" y="495" type="line" smooth="yes"/>
			<point x="119" y="492"/>
			<point x="124" y="482"/>
			<point x="124" y="447" type="curve" smooth="yes"/>
			<point x="124" y="66" type="line" smooth="yes"/>
			<point x="124" y="31"/>
			<point x="119" y="21"/>
			<point x="98" y="18" type="curve" smooth="yes"/>
			<point x="50" y="12" type="line"/>
			<point x="50" y="0" type="line"/>
			<point x="802" y="0" type="line" smooth="yes"/>
			<point x="888" y="0"/>
			<point x="908" y="-17"/>
			<point x="918" y="-93" type="curve" smooth="yes"/>
		</contour>
	</outline>
</glyph>
<glyph name="yeru-cy" format="2">
	<unicode hex="044B"/>
	<advance width="814"/>
	<outline>
		<contour>
			<point x="50" y="0" type="line"/>
			<point x="262" y="0" type="line" smooth="yes"/>
			<point x="393" y="0"/>
			<point x="500" y="51"/>
			<point x="500" y="164" type="curve" smooth="yes"/>
			<point x="500" y="259"/>
			<point x="421" y="303"/>
			<point x="302" y="303" type="curve" smooth="yes"/>
			<point x="272" y="303"/>
			<point x="242" y="300"/>
			<point x="217" y="296" type="curve"/>
			<point x="217" y="451" type="line" smooth="yes"/>
			<point x="217" y="482"/>
			<point x="222" y="491"/>
			<point x="242" y="494" type="curve" smooth="yes"/>
			<point x="295" y="502" type="line"/>
			<point x="295" y="513" type="line"/>
			<point x="50" y="513" type="line"/>
			<point x="50" y="501" type="line"/>
			<point x="98" y="495" type="line" smooth="yes"/>
			<point x="119" y="492"/>
			<point x="124" y="482"/>
			<point x="124" y="447" type="curve" smooth="yes"/>
			<point x="124" y="66" type="line" smooth="yes"/>
			<point x="124" y="31"/>
			<point x="119" y="21"/>
			<point x="98" y="18" type="curve" smooth="yes"/>
			<point x="50" y="12" type="line"/>
		</contour>
		<contour>
			<point x="260" y="15" type="curve" smooth="yes"/>
			<point x="243" y="15"/>
			<point x="229" y="16"/>
			<point x="217" y="18" type="curve"/>
			<point x="217" y="281" type="line"/>
			<point x="233" y="284"/>
			<point x="252" y="286"/>
			<point x="274" y="286" type="curve" smooth="yes"/>
			<point x="348" y="286"/>
			<point x="401" y="248"/>
			<point x="401" y="160" type="curve" smooth="yes"/>
			<point x="401" y="62"/>
			<point x="345" y="15"/>
		</contour>
		<contour>
			<point x="524" y="0" type="line"/>
			<point x="769" y="0" type="line"/>
			<point x="769" y="12" type="line"/>
			<point x="722" y="17" type="line" smooth="yes"/>
			<point x="696" y="20"/>
			<point x="691" y="28"/>
			<point x="691" y="58" type="curve" smooth="yes"/>
			<point x="691" y="455" type="line" smooth="yes"/>
			<point x="691" y="485"/>
			<point x="696" y="493"/>
			<point x="722" y="496" type="curve" smooth="yes"/>
			<point x="769" y="501" type="line"/>
			<point x="769" y="513" type="line"/>
			<point x="524" y="513" type="line"/>
			<point x="524" y="502" type="line"/>
			<point x="568" y="497" type="line" smooth="yes"/>
			<point x="593" y="494"/>
			<point x="598" y="485"/>
			<point x="598" y="455" type="curve"/>
			<point x="598" y="58" type="line" smooth="yes"/>
			<point x="598" y="28"/>
			<point x="593" y="19"/>
			<point x="568" y="16" type="curve" smooth="yes"/>
			<point x="524" y="11" type="line"/>
		</contour>
	</outline>
	<anchor name="top" x="424" y="550"/>
</glyph>
<glyph name="ereversed-cy" format="2">
	<unicode hex="044D"/>
	<advance width="511"/>
	<outline>
		<contour>
			<point x="213" y="-14" type="curve" smooth="yes"/>
			<point x="354" y="-14"/>
			<point x="463" y="90"/>
			<point x="463" y="265" type="curve" smooth="yes"/>
			<point x="463" y="437"/>
			<point x="370" y="527"/>
			<point x="238" y="527" type="curve" smooth="yes"/>
			<point x="170" y="527"/>
			<point x="123" y="499"/>
			<point x="94" y="462" type="curve"/>
			<point x="74" y="521" type="line"/>
			<point x="59" y="521" type="line"/>
			<point x="73" y="337" type="line"/>
			<point x="89" y="337" type="line"/>
			<point x="89" y="433"/>
			<point x="130" y="504"/>
			<point x="214" y="504" type="curve" smooth="yes"/>
			<point x="307" y="504"/>
			<point x="364" y="413"/>
			<point x="364" y="268" type="curve"/>
			<point x="154" y="268" type="line"/>
			<point x="154" y="252" type="line"/>
			<point x="364" y="252" type="line"/>
			<point x="364" y="78"/>
			<point x="293" y="8"/>
			<point x="207" y="8" type="curve" smooth="yes"/>
			<point x="174" y="8"/>
			<point x="142" y="12"/>
			<point x="116" y="32" type="curve"/>
			<point x="142" y="66"/>
			<point x="159" y="100"/>
			<point x="159" y="120" type="curve" smooth="yes"/>
			<point x="159" y="150"/>
			<point x="140" y="169"/>
			<point x="103" y="169" type="curve" smooth="yes"/>
			<point x="63" y="169"/>
			<point x="45" y="144"/>
			<point x="45" y="104" type="curve" smooth="yes"/>
			<point x="45" y="42"/>
			<point x="114" y="-14"/>
		</contour>
	</outline>
	<anchor name="top" x="247" y="550"/>
</glyph>
<glyph name="dje-cy" format="2">
	<unicode hex="0452"/>
	<advance width="634"/>
	<outline>
		<contour>
			<point x="368" y="-230" type="line"/>
			<point x="503" y="-164"/>
			<point x="538" y="-96"/>
			<point x="539" y="91" type="curve" smooth="yes"/>
			<point x="539" y="356" type="line" smooth="yes"/>
			<point x="539" y="467"/>
			<point x="486" y="527"/>
			<point x="385" y="527" type="curve" smooth="yes"/>
			<point x="314" y="527"/>
			<point x="250" y="491"/>
			<point x="219" y="421" type="curve"/>
			<point x="218" y="421" type="line"/>
			<point x="218" y="619" type="line"/>
			<point x="355" y="619" type="line"/>
			<point x="355" y="644" type="line"/>
			<point x="218" y="644" type="line"/>
			<point x="218" y="761" type="line"/>
			<point x="211" y="766" type="line"/>
			<point x="42" y="761" type="line"/>
			<point x="41" y="751" type="line"/>
			<point x="91" y="747" type="line" smooth="yes"/>
			<point x="120" y="745"/>
			<point x="125" y="733"/>
			<point x="125" y="685" type="curve" smooth="yes"/>
			<point x="125" y="644" type="line"/>
			<point x="29" y="644" type="line"/>
			<point x="24" y="619" type="line"/>
			<point x="125" y="619" type="line"/>
			<point x="125" y="66" type="line" smooth="yes"/>
			<point x="125" y="31"/>
			<point x="120" y="21"/>
			<point x="99" y="18" type="curve" smooth="yes"/>
			<point x="51" y="12" type="line"/>
			<point x="51" y="0" type="line"/>
			<point x="296" y="0" type="line"/>
			<point x="296" y="11" type="line"/>
			<point x="243" y="19" type="line" smooth="yes"/>
			<point x="223" y="22"/>
			<point x="218" y="31"/>
			<point x="218" y="62" type="curve" smooth="yes"/>
			<point x="218" y="351" type="line" smooth="yes"/>
			<point x="218" y="435"/>
			<point x="274" y="489"/>
			<point x="349" y="489" type="curve" smooth="yes"/>
			<point x="425" y="489"/>
			<point x="446" y="451"/>
			<point x="446" y="360" type="curve" smooth="yes"/>
			<point x="446" y="26" type="line" smooth="yes"/>
			<point x="446" y="-118"/>
			<point x="435" y="-165"/>
			<point x="363" y="-220" type="curve"/>
		</contour>
	</outline>
</glyph>
<glyph name="lje-cy" format="2">
	<unicode hex="0459"/>
	<advance width="807"/>
	<outline>
		<contour>
			<point x="78" y="-13" type="curve" smooth="yes"/>
			<point x="164" y="-13"/>
			<point x="195" y="120"/>
			<point x="209" y="246" type="curve" smooth="yes"/>
			<point x="219" y="337"/>
			<point x="220" y="413"/>
			<point x="220" y="497" type="curve"/>
			<point x="396" y="497" type="line"/>
			<point x="396" y="66" type="line" smooth="yes"/>
			<point x="396" y="31"/>
			<point x="391" y="21"/>
			<point x="370" y="18" type="curve" smooth="yes"/>
			<point x="322" y="12" type="line"/>
			<point x="322" y="0" type="line"/>
			<point x="529" y="0" type="line" smooth="yes"/>
			<point x="678" y="0"/>
			<point x="777" y="51"/>
			<point x="777" y="168" type="curve" smooth="yes"/>
			<point x="777" y="260"/>
			<point x="684" y="303"/>
			<point x="574" y="303" type="curve" smooth="yes"/>
			<point x="544" y="303"/>
			<point x="514" y="300"/>
			<point x="489" y="296" type="curve"/>
			<point x="489" y="455" type="line" smooth="yes"/>
			<point x="489" y="485"/>
			<point x="494" y="493"/>
			<point x="520" y="496" type="curve" smooth="yes"/>
			<point x="567" y="501" type="line"/>
			<point x="567" y="513" type="line"/>
			<point x="125" y="513" type="line"/>
			<point x="125" y="501" type="line"/>
			<point x="173" y="495" type="line" smooth="yes"/>
			<point x="194" y="492"/>
			<point x="199" y="482"/>
			<point x="199" y="447" type="curve" smooth="yes"/>
			<point x="199" y="326"/>
			<point x="187" y="182"/>
			<point x="160" y="99" type="curve" smooth="yes"/>
			<point x="153" y="79"/>
			<point x="145" y="63"/>
			<point x="137" y="51" type="curve"/>
			<point x="114" y="83"/>
			<point x="92" y="112"/>
			<point x="62" y="112" type="curve" smooth="yes"/>
			<point x="35" y="112"/>
			<point x="10" y="84"/>
			<point x="10" y="48" type="curve" smooth="yes"/>
			<point x="10" y="13"/>
			<point x="41" y="-13"/>
		</contour>
		<contour>
			<point x="532" y="15" type="curve" smooth="yes"/>
			<point x="518" y="15"/>
			<point x="505" y="16"/>
			<point x="489" y="18" type="curve"/>
			<point x="489" y="281" type="line"/>
			<point x="505" y="284"/>
			<point x="524" y="286"/>
			<point x="546" y="286" type="curve" smooth="yes"/>
			<point x="626" y="286"/>
			<point x="678" y="248"/>
			<point x="678" y="162" type="curve" smooth="yes"/>
			<point x="678" y="62"/>
			<point x="619" y="15"/>
		</contour>
	</outline>
</glyph>
<glyph name="nje-cy" format="2">
	<unicode hex="045A"/>
	<advance width="872"/>
	<outline>
		<contour>
			<point x="50" y="0" type="line"/>
			<point x="295" y="0" type="line"/>
			<point x="295" y="11" type="line"/>
			<point x="242" y="19" type="line" smooth="yes"/>
			<point x="222" y="22"/>
			<point x="217" y="31"/>
			<point x="217" y="62" type="curve" smooth="yes"/>
			<point x="217" y="262" type="line"/>
			<point x="455" y="262" type="line"/>
			<point x="455" y="58" type="line" smooth="yes"/>
			<point x="455" y="28"/>
			<point x="450" y="19"/>
			<point x="425" y="16" type="curve" smooth="yes"/>
			<point x="381" y="11" type="line"/>
			<point x="381" y="0" type="line"/>
			<point x="606" y="0" type="line" smooth="yes"/>
			<point x="731" y="0"/>
			<point x="831" y="52"/>
			<point x="831" y="161" type="curve" smooth="yes"/>
			<point x="831" y="252"/>
			<point x="748" y="293"/>
			<point x="633" y="293" type="curve" smooth="yes"/>
			<point x="603" y="293"/>
			<point x="573" y="290"/>
			<point x="548" y="286" type="curve"/>
			<point x="548" y="455" type="line" smooth="yes"/>
			<point x="548" y="485"/>
			<point x="553" y="493"/>
			<point x="579" y="496" type="curve" smooth="yes"/>
			<point x="626" y="501" type="line"/>
			<point x="626" y="513" type="line"/>
			<point x="381" y="513" type="line"/>
			<point x="381" y="502" type="line"/>
			<point x="425" y="497" type="line" smooth="yes"/>
			<point x="450" y="494"/>
			<point x="455" y="485"/>
			<point x="455" y="455" type="curve" smooth="yes"/>
			<point x="455" y="278" type="line"/>
			<point x="217" y="278" type="line"/>
			<point x="217" y="451" type="line" smooth="yes"/>
			<point x="217" y="482"/>
			<point x="222" y="491"/>
			<point x="242" y="494" type="curve" smooth="yes"/>
			<point x="295" y="502" type="line"/>
			<point x="295" y="513" type="line"/>
			<point x="50" y="513" type="line"/>
			<point x="50" y="501" type="line"/>
			<point x="98" y="495" type="line" smooth="yes"/>
			<point x="119" y="492"/>
			<point x="124" y="482"/>
			<point x="124" y="447" type="curve" smooth="yes"/>
			<point x="124" y="66" type="line" smooth="yes"/>
			<point x="124" y="31"/>
			<point x="119" y="21"/>
			<point x="98" y="18" type="curve" smooth="yes"/>
			<point x="50" y="12" type="line"/>
		</contour>
		<contour>
			<point x="595" y="15" type="curve" smooth="yes"/>
			<point x="579" y="15"/>
			<point x="565" y="16"/>
			<point x="548" y="19" type="curve"/>
			<point x="548" y="271" type="line"/>
			<point x="564" y="274"/>
			<point x="583" y="276"/>
			<point x="605" y="276" type="curve" smooth="yes"/>
			<point x="679" y="276"/>
			<point x="732" y="243"/>
			<point x="732" y="153" type="curve" smooth="yes"/>
			<point x="732" y="57"/>
			<point x="669" y="15"/>
		</contour>
	</outline>
</glyph>
<glyph name="dzhe-cy" format="2">
	<unicode hex="045F"/>
	<advance width="676"/>
	<outline>
		<contour>
			<point x="336" y="-147" type="line"/>
			<point x="348" y="-147" type="line"/>
			<point x="370" y="0" type="line"/>
			<point x="631" y="0" type="line"/>
			<point x="631" y="12" type="line"/>
			<point x="584" y="17" type="line" smooth="yes"/>
			<point x="558" y="20"/>
			<point x="553" y="28"/>
			<point x="553" y="58" type="curve" smooth="yes"/>
			<point x="553" y="455" type="line" smooth="yes"/>
			<point x="553" y="485"/>
			<point x="558" y="493"/>
			<point x="584" y="496" type="curve" smooth="yes"/>
			<point x="631" y="501" type="line"/>
			<point x="631" y="513" type="line"/>
			<point x="386" y="513" type="line"/>
			<point x="386" y="502" type="line"/>
			<point x="430" y="497" type="line" smooth="yes"/>
			<point x="455" y="494"/>
			<point x="460" y="485"/>
			<point x="460" y="455" type="curve" smooth="yes"/>
			<point x="460" y="16" type="line"/>
			<point x="217" y="16" type="line"/>
			<point x="217" y="451" type="line" smooth="yes"/>
			<point x="217" y="482"/>
			<point x="222" y="491"/>
			<point x="242" y="494" type="curve" smooth="yes"/>
			<point x="295" y="502" type="line"/>
			<point x="295" y="513" type="line"/>
			<point x="50" y="513" type="line"/>
			<point x="50" y="501" type="line"/>
			<point x="98" y="495" type="line" smooth="yes"/>
			<point x="119" y="492"/>
			<point x="124" y="482"/>
			<point x="124" y="447" type="curve" smooth="yes"/>
			<point x="124" y="66" type="line" smooth="yes"/>
			<point x="124" y="31"/>
			<point x="119" y="21"/>
			<point x="98" y="18" type="curve" smooth="yes"/>
			<point x="50" y="12" type="line"/>
			<point x="50" y="0" type="line"/>
			<point x="312" y="0" type="line"/>
		</contour>
	</outline>
</glyph>
